<?xml version="1.0" encoding="UTF-8"?>
<svg xmlns="http://www.w3.org/2000/svg" viewBox="0 0 204.56 173.82">
  <defs>
    <style>
      .cls-1 {
        fill: #a59f99;
      }

      .cls-1, .cls-2 {
        mix-blend-mode: multiply;
      }

      .cls-1, .cls-3, .cls-4, .cls-5, .cls-6, .cls-7, .cls-8, .cls-9, .cls-10, .cls-11, .cls-12, .cls-13, .cls-14, .cls-15, .cls-16, .cls-17, .cls-18, .cls-19, .cls-20, .cls-21, .cls-22, .cls-23, .cls-24, .cls-25, .cls-26, .cls-27, .cls-28, .cls-29, .cls-30, .cls-31, .cls-32, .cls-33, .cls-34, .cls-35, .cls-36, .cls-37, .cls-38, .cls-39, .cls-40, .cls-41, .cls-42, .cls-43, .cls-44, .cls-45, .cls-46, .cls-47, .cls-48, .cls-49 {
        stroke-width: 0px;
      }

      .cls-50 {
        isolation: isolate;
      }

      .cls-3 {
        fill: #f7f5f3;
      }

      .cls-4 {
        fill: #fb7400;
      }

      .cls-5 {
        fill: #606c70;
      }

      .cls-6 {
        fill: #4d5258;
      }

      .cls-7 {
        fill: #484b4d;
      }

      .cls-8 {
        fill: #484038;
      }

      .cls-9 {
        fill: #292017;
      }

      .cls-10 {
        fill: #5c3e17;
      }

      .cls-11 {
        fill: #635e59;
      }

      .cls-12 {
        fill: #322920;
      }

      .cls-13 {
        fill: #383838;
      }

      .cls-14 {
        fill: #383e45;
      }

      .cls-15 {
        fill: #3a3e40;
      }

      .cls-16 {
        fill: #3d454b;
      }

      .cls-17 {
        fill: #585b5d;
      }

      .cls-18 {
        fill: #1a1006;
      }

      .cls-19 {
        fill: #151b1f;
      }

      .cls-20 {
        fill: #21272b;
      }

      .cls-21 {
        fill: #1f150b;
      }

      .cls-22 {
        fill: #140800;
      }

      .cls-23 {
        fill: #e05d00;
      }

      .cls-24 {
        fill: #d7d7d7;
      }

      .cls-25 {
        fill: #e0e4ea;
      }

      .cls-26 {
        fill: #d7a32f;
      }

      .cls-27 {
        fill: #ababab;
      }

      .cls-28 {
        fill: #a5a9b2;
      }

      .cls-29 {
        fill: #b34700;
      }

      .cls-30 {
        fill: #a5b0c2;
      }

      .cls-31 {
        fill: #cdd4dd;
      }

      .cls-32 {
        fill: #8595ad;
      }

      .cls-33 {
        fill: #b3bdcc;
      }

      .cls-34 {
        fill: #666b70;
      }

      .cls-35 {
        fill: #b9c1d7;
      }

      .cls-36 {
        fill: #6b7f9c;
      }

      .cls-37 {
        fill: #9fb8b9;
      }

      .cls-38 {
        fill: #ff9500;
      }

      .cls-39 {
        fill: #7e8386;
      }

      .cls-40 {
        fill: #737f82;
      }

      .cls-41 {
        fill: #687c9a;
      }

      .cls-42 {
        fill: #e88000;
      }

      .cls-43 {
        fill: #e67b10;
      }

      .cls-44 {
        fill: #faf1bd;
      }

      .cls-45 {
        fill: #ffc226;
      }

      .cls-46 {
        fill: #ffc814;
      }

      .cls-47 {
        fill: #e8b725;
      }

      .cls-48 {
        fill: #e7eaef;
      }

      .cls-49 {
        fill: #e9e5e2;
      }
    </style>
  </defs>
  <g class="cls-50">
    <g id="Layer_2" data-name="Layer 2">
      <g id="layer">
        <g>
          <g>
            <path class="cls-1" d="m42.92,173.82l161.64-93.28-42.52-24.55L1.26,148.77l4.02,2.98c9.05,6.72,17.91,12.99,28.16,17.7l9.49,4.37Z"/>
            <polygon class="cls-20" points="161.85 97.03 156.99 94.02 140.32 105.42 84.52 141.68 79.68 138.13 61.94 150.68 61.94 131.21 155.26 80.48 163.34 85.11 161.85 97.03"/>
            <g>
              <path class="cls-19" d="m79.21,137.92c0,5.03-3.56,11.17-7.94,13.7-1.73,1,.12,3.44-1.18,3.12-.35-.09-4.13-2.37-4.43-2.54-1.44-.82-2.33-2.58-2.33-5.1,0-5.03,3.56-11.17,7.94-13.7,2.03-1.17,3.88-1.37,5.28-.74.13.06,3.62,2.12,3.74,2.19,1.41.83-1.08.59-1.08,3.08Z"/>
              <g>
                <path class="cls-17" d="m83.2,140.22c0,5.03-3.56,11.17-7.94,13.7-4.39,2.53-7.94.5-7.94-4.53s3.56-11.17,7.94-13.7c4.39-2.53,7.94-.51,7.94,4.53Z"/>
                <path class="cls-15" d="m83.01,140.55c0,4.91-3.47,10.89-7.75,13.36-4.28,2.47-7.75.49-7.75-4.42s3.47-10.89,7.75-13.36c4.28-2.47,7.75-.49,7.75,4.42Z"/>
                <path class="cls-28" d="m80.79,141.61c0,3.5-2.48,7.78-5.53,9.54-3.05,1.76-5.53.35-5.53-3.15s2.48-7.78,5.53-9.54c3.05-1.76,5.53-.35,5.53,3.15Z"/>
                <g>
                  <path class="cls-7" d="m70.19,147.69c0,3.22,2.28,4.52,5.08,2.9,2.81-1.62,5.08-5.55,5.08-8.77s-2.28-4.52-5.08-2.9c-2.81,1.62-5.08,5.55-5.08,8.77Z"/>
                  <path class="cls-20" d="m70.34,147.82c0,2.57,1.82,3.61,4.06,2.32,2.24-1.3,4.06-4.43,4.06-7.01s-1.82-3.61-4.06-2.32c-2.24,1.3-4.06,4.43-4.06,7.01Z"/>
                  <path class="cls-16" d="m70.47,146.76c0,2.57,1.82,3.61,4.06,2.32,2.24-1.3,4.06-4.43,4.06-7.01s-1.82-3.61-4.06-2.32c-2.24,1.3-4.06,4.43-4.06,7.01Z"/>
                  <path class="cls-34" d="m78.25,138.31c.77.58,1.23,1.64,1.23,3.09,0,3.22-2.28,7.15-5.08,8.77-1.11.64-2.14.83-2.98.61.93.7,2.31.69,3.85-.2,2.81-1.62,5.08-5.55,5.08-8.77,0-1.94-.83-3.19-2.1-3.51Z"/>
                  <path class="cls-39" d="m71.17,147.23c0,2.57,1.82,3.61,4.06,2.32,2.24-1.3,4.06-4.43,4.06-7.01s-1.82-3.61-4.06-2.32c-2.24,1.3-4.06,4.43-4.06,7.01Z"/>
                  <path class="cls-10" d="m74.07,145.97c0,1.05.74,1.47,1.65.94.91-.53,1.65-1.8,1.65-2.85s-.74-1.47-1.65-.94c-.91.53-1.65,1.8-1.65,2.85Z"/>
                  <path class="cls-28" d="m74.24,146.06c0,1.05.74,1.47,1.65.94.91-.53,1.65-1.8,1.65-2.85s-.74-1.47-1.65-.94c-.91.53-1.65,1.8-1.65,2.85Z"/>
                </g>
              </g>
            </g>
            <g>
              <path class="cls-19" d="m156.52,93.2c0,5.03-3.56,11.17-7.94,13.7-1.73,1,.12,3.44-1.18,3.12-.35-.09-4.13-2.37-4.43-2.54-1.44-.82-2.33-2.58-2.33-5.1,0-5.03,3.56-11.17,7.94-13.7,2.03-1.17,3.88-1.37,5.28-.74.13.06,3.62,2.12,3.74,2.19,1.41.83-1.08.59-1.08,3.08Z"/>
              <g>
                <path class="cls-17" d="m160.52,95.5c0,5.03-3.56,11.17-7.94,13.7-4.39,2.53-7.94.51-7.94-4.53s3.56-11.17,7.94-13.7,7.94-.51,7.94,4.53Z"/>
                <path class="cls-15" d="m160.33,95.83c0,4.91-3.47,10.89-7.75,13.36-4.28,2.47-7.75.49-7.75-4.42s3.47-10.89,7.75-13.36c4.28-2.47,7.75-.49,7.75,4.42Z"/>
                <path class="cls-28" d="m158.1,96.89c0,3.5-2.48,7.78-5.53,9.54-3.05,1.76-5.53.35-5.53-3.15s2.48-7.78,5.53-9.54c3.05-1.76,5.53-.35,5.53,3.15Z"/>
                <path class="cls-34" d="m147.54,103.02c0,1.46.48,2.52,1.25,3.08.93.68,2.29.66,3.81-.22,2.78-1.62,5.03-5.53,5.02-8.73,0-2.11-.99-3.39-2.46-3.55-.76-.09-1.65.13-2.6.68-2.78,1.62-5.03,5.53-5.02,8.73Z"/>
                <path class="cls-7" d="m147.54,103.02c0,1.46.48,2.52,1.25,3.08.76.09,1.65-.13,2.6-.68,2.78-1.62,5.03-5.53,5.02-8.73,0-1.46-.48-2.52-1.25-3.09-.76-.09-1.65.13-2.6.68-2.78,1.62-5.03,5.53-5.02,8.73Z"/>
                <path class="cls-20" d="m148.14,101.76c0,.83.27,1.44.72,1.77.53.39,1.31.38,2.18-.13,1.59-.93,2.88-3.16,2.87-4.99,0-1.2-.57-1.93-1.41-2.03-.43-.05-.94.07-1.49.39-1.59.93-2.88,3.16-2.87,4.99Z"/>
                <path class="cls-16" d="m148.39,100.89c0,.83.27,1.44.72,1.77.53.39,1.31.38,2.18-.13,1.59-.93,2.88-3.16,2.87-4.99,0-1.2-.57-1.93-1.41-2.03-.43-.05-.94.07-1.49.39-1.59.93-2.88,3.16-2.87,4.99Z"/>
                <path class="cls-39" d="m149.17,101.27c0,.83.27,1.44.72,1.77.53.39,1.31.38,2.18-.13,1.59-.93,2.88-3.16,2.87-4.99,0-1.2-.57-1.93-1.41-2.03-.43-.05-.94.07-1.49.39-1.59.93-2.88,3.16-2.87,4.99Z"/>
              </g>
            </g>
            <g>
              <g>
                <path class="cls-25" d="m4.46,90.31l-1.31,38.04-.28,8.5.91,5.86,22.87-13.2v-2.44c0-5.83,4.12-12.93,9.2-15.86,5.08-2.93,9.2-.58,9.2,5.24v2.44l58.94-34.03v-2.44c0-5.83,4.12-12.93,9.2-15.86,5.08-2.93,9.2-.58,9.2,5.24v2.44l21.28-12.29,19.68-15.66L156.78.14h-1.09l-34.22,19.75-10.75,8.72L8.69,87.52l-4.22,2.79Z"/>
                <path class="cls-31" d="m2.87,136.85l8.62,7.47c5.24,4.53,11.25,8.09,17.75,10.49l13.1,4.84.28-8.5L3.15,128.35l-.28,8.5Z"/>
                <polygon class="cls-31" points="28.55 145.88 25.57 153.3 14.69 146.89 10.43 134.88 28.55 145.88"/>
                <path class="cls-12" d="m2.91,135.72l8.51,7.33c5.05,4.35,10.81,7.79,17.04,10.17l13.89,5.31v-4.46l-14.23-5.56c-6.21-2.42-11.94-5.91-16.96-10.3l-8.1-7.08-.15,4.58Z"/>
                <path class="cls-31" d="m11.16,139.54l-8.1-7.08-.13,3.89-.02-.02.15-4.58,8.1,7.08c5.01,4.39,10.75,7.87,16.96,10.29l14.23,5.56v.72l-14.23-5.56c-6.21-2.42-11.94-5.91-16.96-10.29Z"/>
                <path class="cls-31" d="m11.16,140.81l-8.1-7.08-.13,3.89-.02-.02.15-4.58,8.1,7.08c5.01,4.39,10.75,7.87,16.96,10.3l14.23,5.56v.72l-14.23-5.56c-6.21-2.42-11.94-5.91-16.96-10.3Z"/>
                <path class="cls-31" d="m11.16,142.07l-8.1-7.08-.13,3.89-.02-.02.15-4.58,8.1,7.08c5.01,4.39,10.75,7.87,16.96,10.29l14.23,5.56v.72l-14.23-5.56c-6.21-2.42-11.94-5.91-16.96-10.29Z"/>
                <polygon class="cls-12" points="7.51 119.57 138.61 43.88 147.07 36.05 159.38 28.94 152.53 6.26 7.51 89.99 7.51 119.57"/>
                <polygon class="cls-6" points="132.87 45.63 137.41 43.01 147.15 34.04 157.89 27.84 157.89 10.75 132.87 25.19 132.87 45.63"/>
                <polygon class="cls-6" points="102.27 63.29 131.71 46.3 131.71 25.86 102.27 42.86 102.27 63.29"/>
                <polygon class="cls-12" points="102.27 51.08 131.71 34.09 131.71 33.19 102.27 50.18 102.27 51.08"/>
                <polygon class="cls-12" points="117.45 41.42 116.53 41.95 116.53 34.63 117.45 34.09 117.45 41.42"/>
                <polygon class="cls-6" points="53.94 91.2 69.94 81.96 69.94 61.52 53.94 70.76 53.94 91.2"/>
                <polygon class="cls-6" points="23.34 108.86 52.78 91.87 52.78 71.43 23.34 88.43 23.34 108.86"/>
                <polygon class="cls-18" points="32 82.02 52.78 70.02 52.78 64.71 32 76.71 32 82.02"/>
                <polygon class="cls-12" points="23.34 96.65 52.78 79.66 52.78 78.76 23.34 95.75 23.34 96.65"/>
                <polygon class="cls-12" points="38.52 86.99 37.6 87.52 37.6 80.2 38.52 79.67 38.52 86.99"/>
                <polygon class="cls-32" points="160.67 39.98 163.34 38.44 165.16 38.44 165.16 45.53 162.39 48 160.67 49.23 160.67 39.98"/>
                <polygon class="cls-26" points="67.34 89.9 69.94 88.39 69.94 86.78 67.34 88.29 67.34 89.9"/>
                <g class="cls-2">
                  <path class="cls-27" d="m144.96,58.28v-14.42l12.73-8.71v11.42l-12.73,11.71Zm.52-14.15v12.98l11.7-10.77v-10.21l-11.7,8Z"/>
                </g>
                <polygon class="cls-26" points="138.74 49.62 147.11 39.75 147.11 37.41 138.74 45.16 138.74 49.62"/>
                <polygon class="cls-26" points="147.11 39.75 163.34 30.27 163.34 28.03 147.11 37.41 147.11 39.75"/>
                <path class="cls-15" d="m105.32,81.69c0,4.98,3.52,6.99,7.86,4.48,4.34-2.51,7.86-8.58,7.86-13.56s-3.52-6.99-7.86-4.48-7.86,8.58-7.86,13.56Z"/>
                <path class="cls-32" d="m102.86,82.99v2.51l1.12-.65v-2.44c0-5.83,4.12-12.93,9.2-15.86,5.08-2.93,9.2-.58,9.2,5.24v2.44l1.12-.65v-2.51c0-6.54-4.62-9.18-10.32-5.89-5.7,3.29-10.32,11.26-10.32,17.8Z"/>
                <polygon class="cls-12" points="6.17 125.62 3.71 128.03 3.15 128.35 4.36 93.46 6.17 92.54 6.17 125.62"/>
                <polygon class="cls-6" points="84.52 56.68 73.39 63.1 73.39 95.03 84.52 88.61 84.52 56.68"/>
                <polygon class="cls-6" points="98.58 48.56 87.46 54.98 87.46 86.91 98.58 80.49 98.58 48.56"/>
                <g class="cls-2">
                  <path class="cls-27" d="m71.67,102.58v-43.24l.13-.08,14.45-8.34v43.24l-.13.08-14.45,8.34Zm.52-42.95v42.05l13.55-7.82v-42.05l-13.55,7.82Z"/>
                </g>
                <g class="cls-2">
                  <path class="cls-27" d="m85.73,94.46v-43.24l.13-.08,14.45-8.34v43.24l-.13.08-14.45,8.34Zm.52-42.95v42.05l13.55-7.82v-42.05l-13.55,7.82Z"/>
                </g>
              </g>
              <polygon class="cls-6" points="5.59 120.68 3.15 126.18 4.46 98.44 5.59 97.79 5.59 120.68"/>
              <polygon class="cls-32" points="4.46 90.31 109.97 29.39 110.72 28.61 8.69 87.52 4.46 90.31"/>
              <polygon class="cls-32" points="110.72 28.61 109.97 29.39 122.01 20.2 156.78 .14 155.69 .14 121.47 19.89 110.72 28.61"/>
            </g>
            <g>
              <g>
                <g>
                  <path class="cls-21" d="m1.98,97.17l1.08,1.28c.88,1.13,1.6,3.01,1.6,4.19v7.15c0,1.18-.72,1.21-1.6.08l-1.48-1.85c-.88-1.13-1.2-2.43-1.2-3.61v-7.15c0-1.18.72-1.21,1.6-.08Z"/>
                  <path class="cls-8" d="m1.6,97.45l1.08,1.28c.88,1.13,1.6,3.01,1.6,4.19v7.15c0,1.18-.72,1.21-1.6.08l-1.48-1.85c-.88-1.13-1.2-2.43-1.2-3.61v-7.15c0-1.18.72-1.21,1.6-.08Z"/>
                  <polygon class="cls-12" points="7.3 118.38 1.96 111.98 1.99 93.26 5.58 97.99 5.26 98.35 2.35 94.69 2.35 111.62 7.66 117.82 7.3 118.38"/>
                </g>
                <path class="cls-32" d="m43.94,113.1l-1.59,46.54.91,5.86,22.87-13.2v-2.44c0-5.83,4.12-12.93,9.2-15.86,5.08-2.93,9.2-.58,9.2,5.24v2.44l58.94-34.03v-2.44c0-5.83,4.12-12.93,9.2-15.86,5.08-2.93,9.2-.58,9.2,5.24v2.44l21.28-12.29,12.83-11.7V23.09l-3.79-1.75-34.22,19.75-9.54,9.33-102.03,58.91-2.45,3.77Z"/>
                <polygon class="cls-12" points="125.46 114.68 111.4 122.8 111.4 124.93 125.46 116.81 125.46 114.68"/>
                <polygon class="cls-12" points="139.53 106.56 125.46 114.68 125.46 116.81 139.53 108.69 139.53 106.56"/>
                <polygon class="cls-9" points="46.99 142.36 178.08 66.67 186.55 58.84 192.01 55.69 192.01 29.05 46.99 112.78 46.99 142.36"/>
                <polygon class="cls-14" points="172.35 68.42 176.88 65.8 186.63 56.83 190.51 54.59 190.51 37.5 172.35 47.98 172.35 68.42"/>
                <polygon class="cls-14" points="141.75 86.08 171.19 69.09 171.19 48.65 141.75 65.65 141.75 86.08"/>
                <polygon class="cls-12" points="141.75 73.87 171.19 56.88 171.19 55.98 141.75 72.97 141.75 73.87"/>
                <polygon class="cls-12" points="156.93 64.21 156 64.74 156 57.42 156.93 56.89 156.93 64.21"/>
                <polygon class="cls-14" points="93.42 113.99 109.42 104.75 109.42 84.31 93.42 93.55 93.42 113.99"/>
                <polygon class="cls-14" points="62.82 131.66 92.25 114.66 92.25 94.22 62.82 111.22 62.82 131.66"/>
                <polygon class="cls-18" points="71.48 104.81 92.25 92.81 92.25 87.51 71.48 99.5 71.48 104.81"/>
                <g>
                  <path class="cls-4" d="m74.38,99.73l-.09.06c-.08.05-.15.05-.15-.07,0-.12.07-.21.15-.26l.41-.25c.19-.12.29-.07.37.1l.21.45c.05.11.07.19.07.34,0,.13-.03.26-.08.41l-.24.74c-.09.29-.2.43-.4.55l-.41.25c-.06.04-.12.03-.12-.09,0-.12.06-.2.13-.24l.12-.07.04-1.92Zm.21,1.77l.05-.03c.1-.06.13-.09.18-.24l.23-.73c.03-.09.05-.16.05-.24,0-.11-.02-.16-.06-.24l-.19-.44c-.05-.11-.07-.09-.19-.02l-.03.02-.04,1.92Z"/>
                  <path class="cls-4" d="m77.07,98.69c.05.1.06.19.06.33,0,.16-.04.28-.09.44l-.24.75c-.06.19-.16.37-.31.46-.14.09-.24.03-.3-.09l-.22-.47c-.05-.11-.08-.19-.07-.35,0-.14.02-.25.07-.41l.26-.81c.06-.19.17-.37.31-.46.14-.08.24-.03.3.09l.23.51Zm-.45-.22s-.03-.08-.08-.05c-.05.03-.07.09-.09.15l-.24.74c-.04.12-.06.19-.06.3,0,.09.01.14.04.19l.22.49s.03.08.08.05c.05-.03.07-.09.09-.15l.25-.78c.03-.09.05-.16.05-.25,0-.11-.02-.16-.05-.23l-.21-.47Z"/>
                  <path class="cls-4" d="m78.43,99.5c-.08.05-.13.06-.15-.05h0c-.02.13-.07.19-.15.24l-.19.11c-.09.05-.11.05-.15-.03l-.08-.15c-.03-.05-.03-.06-.03-.15l.04-1.93c0-.11.04-.19.13-.24.09-.05.12-.02.12.09l-.04,1.93.06.12.11-.06.07-.2.02-1.05c0-.1.04-.22.13-.27.09-.05.12.02.12.12l-.02,1.05.06.12.11-.06.07-.2.04-1.93c0-.11.04-.19.13-.24.09-.05.12-.02.12.09l-.04,1.93c0,.09,0,.1-.04.19l-.09.26c-.04.13-.07.16-.15.21l-.19.11Z"/>
                  <path class="cls-4" d="m80.47,95.86c0-.11.04-.19.13-.24.09-.05.12-.02.12.09l-.05,2.42-.33.2-.61-1.6h0s0,0,0,0l-.04,1.83c0,.11-.04.19-.13.24-.09.05-.12.02-.12-.09l.05-2.42.33-.2.61,1.63h0s0,0,0,0l.04-1.85Z"/>
                  <path class="cls-4" d="m81.52,95.39l-.09.06c-.08.05-.15.05-.15-.07,0-.12.07-.21.15-.25l.41-.25c.19-.12.29-.07.37.1l.21.45c.05.11.07.19.07.34,0,.13-.03.26-.08.41l-.24.74c-.09.29-.2.43-.4.55l-.41.25c-.06.04-.12.03-.12-.09,0-.12.06-.2.13-.24l.12-.07.04-1.93Zm.21,1.77l.05-.03c.1-.06.13-.09.18-.24l.23-.72c.03-.09.05-.16.05-.25,0-.11-.02-.16-.06-.23l-.19-.44c-.05-.11-.07-.09-.19-.03l-.03.02-.04,1.92Z"/>
                  <path class="cls-4" d="m83.31,94.3v.12c0,.1-.04.19-.13.24-.09.05-.12.02-.12-.09v-.45s1.23-.74,1.23-.74v.45c-.01.1-.05.19-.14.24-.09.05-.12.02-.12-.09v-.12s-.24.15-.24.15l-.04,2.09c0,.11-.04.19-.13.24-.09.05-.12.02-.12-.09l.04-2.09-.24.15Z"/>
                  <path class="cls-4" d="m85.99,93.26c.04.1.06.19.06.33,0,.16-.04.28-.09.44l-.24.75c-.06.19-.16.37-.31.46-.14.09-.24.03-.3-.09l-.22-.47c-.05-.11-.08-.19-.07-.35,0-.14.02-.25.07-.41l.26-.81c.06-.19.17-.37.3-.46.14-.08.24-.03.3.09l.24.51Zm-.45-.22s-.03-.08-.08-.05c-.05.03-.07.09-.09.15l-.24.74c-.04.12-.06.19-.06.3,0,.09.01.14.04.19l.22.49s.03.08.08.05c.05-.03.07-.09.09-.15l.25-.78c.03-.09.05-.16.05-.25,0-.11-.02-.16-.05-.23l-.21-.47Z"/>
                  <path class="cls-4" d="m87.35,94.07c-.08.05-.13.06-.15-.05h0c-.02.13-.07.19-.15.24l-.19.11c-.09.05-.11.05-.15-.03l-.08-.15c-.03-.05-.03-.06-.03-.15l.04-1.93c0-.11.04-.19.13-.24.09-.05.12-.02.12.09l-.04,1.93.06.12.11-.06.07-.2.02-1.05c0-.1.04-.22.13-.27.09-.05.12.02.12.12l-.02,1.05.06.12.11-.06.07-.2.04-1.93c0-.11.04-.19.13-.24.09-.05.12-.02.12.09l-.04,1.93c0,.09,0,.1-.04.19l-.09.26c-.05.13-.07.16-.15.21l-.19.11Z"/>
                  <path class="cls-4" d="m89.39,90.44c0-.11.04-.19.13-.24s.12-.02.12.09l-.05,2.42-.33.2-.61-1.6h0s0,0,0,0l-.04,1.83c0,.11-.04.19-.13.24-.09.05-.12.02-.12-.09l.05-2.42.33-.2.61,1.63h0s0,0,0,0l.04-1.85Z"/>
                </g>
                <polygon class="cls-12" points="62.82 119.44 92.25 102.45 92.25 101.55 62.82 118.54 62.82 119.44"/>
                <polygon class="cls-12" points="78 109.78 77.07 110.31 77.07 102.99 78 102.46 78 109.78"/>
                <polygon class="cls-32" points="193.29 66.73 195.96 65.18 197.78 65.19 197.78 72.28 195.01 74.75 193.29 75.98 193.29 66.73"/>
                <polygon class="cls-26" points="106.81 112.69 109.42 111.18 109.42 109.57 106.81 111.08 106.81 112.69"/>
                <polygon class="cls-42" points="61.05 140.06 178.22 72.41 178.22 67.95 61.05 135.6 61.05 140.06"/>
                <g class="cls-2">
                  <path class="cls-27" d="m184.43,81.11v-14.48l.13-.08,6.96-4.02v11.37l-7.09,7.2Zm.52-14.18v12.92l6.05-6.15v-10.26l-6.05,3.5Z"/>
                </g>
                <polygon class="cls-42" points="178.22 72.41 186.59 62.54 186.59 60.2 178.22 67.95 178.22 72.41"/>
                <polygon class="cls-42" points="186.59 62.54 195.96 57.01 195.96 54.78 186.59 60.2 186.59 62.54"/>
                <path class="cls-32" d="m142.34,105.78v2.51l1.12-.65v-2.44c0-5.83,4.12-12.93,9.2-15.86,5.08-2.93,9.2-.58,9.2,5.24v2.44l1.12-.65v-2.51c0-6.54-4.62-9.18-10.32-5.89-5.7,3.29-10.32,11.26-10.32,17.8Z"/>
                <path class="cls-32" d="m65,150.43v2.51l1.12-.65v-2.44c0-5.83,4.12-12.93,9.2-15.86,5.08-2.93,9.2-.58,9.2,5.24v2.44l1.12-.65v-2.51c0-6.54-4.62-9.18-10.32-5.89-5.7,3.29-10.32,11.26-10.32,17.8Z"/>
                <polygon class="cls-12" points="45.65 148.41 43.13 150.85 42.57 151.17 43.94 116.32 45.65 115.33 45.65 148.41"/>
                <path class="cls-12" d="m4.36,93.46l39.58,22.86-1.37,34.85-14.02-5.29c-6.67-2.52-12.81-6.25-18.12-11.01l-7.28-6.53,1.2-34.89Z"/>
                <path class="cls-6" d="m43.58,123.38L4.46,98.44l-1.31,27.74,6.84,6.06c5.34,4.73,11.46,8.48,18.09,11.08l14.49,5.69,1.01-25.62Z"/>
                <polygon class="cls-14" points="45.06 143.47 42.57 149 43.58 123.38 45.06 122.16 45.06 143.47"/>
                <path class="cls-40" d="m3.63,126.6l4.45-3.22,9.48,6.56,5.07,5.13,19.72,8.47,1.47,2.7-1.24,2.76-15.02-5.9c-6.28-2.47-12.08-6.02-17.13-10.49l-6.79-6.01Z"/>
                <polygon class="cls-37" points="6.95 121.62 3.15 126.18 4.46 98.44 6.95 99.88 6.95 121.62"/>
                <path class="cls-12" d="m4.1,100.59l10.12,7.83c4.36,3.38,9.12,6.19,14.18,8.38l15.17,6.58.36-7.06-16.37-7.32c-3.9-1.74-7.59-3.91-11.02-6.46l-12.19-9.09-.26,7.13Z"/>
                <polygon class="cls-12" points="19.79 141.03 20.65 141.03 22.94 110.34 22.08 110.34 19.79 141.03"/>
                <path class="cls-21" d="m42.82,117l-15.7-7.01c-3.96-1.77-7.74-3.99-11.23-6.58l-10.54-7.86-.16,4.52,9.68,7.49c4.29,3.32,8.98,6.09,13.95,8.24l13.75,5.96.24-4.77Z"/>
                <path class="cls-40" d="m36.54,117.18c-.06.64.3,1.25.89,1.51l2.76,1.42c.46.24,1.02-.09,1.02-.62v-.08s.1-1.05.1-1.05c.05-.51-.24-.99-.7-1.2l-2.06-.91-1.14-.51c-.34-.15-.74.08-.77.45l-.09.98Z"/>
                <path class="cls-40" d="m6.82,100.34l2.48,2.02c.23.19.57,0,.59-.36l.05-.63.04-.49c.04-.56-.16-1.1-.54-1.4l-1.51-1.23-.98-.79c-.23-.19-.57.01-.59.36l-.08,1.13c-.04.56.16,1.09.54,1.4Z"/>
                <path class="cls-48" d="m39.36,118.59l1.85.82.1-1.05c.05-.51-.24-.99-.7-1.2l-2.06-.91-.08.83c-.06.64.3,1.25.89,1.51Z"/>
                <path class="cls-48" d="m7.82,99.65l2.12,1.72.04-.49c.04-.56-.16-1.1-.54-1.4l-1.51-1.23-.11,1.41Z"/>
                <path class="cls-22" d="m13.57,102.07l4.28,3.05c2.54,1.89,5.29,3.48,8.18,4.78l8.38,3.7-.18,4.18-7.14-3.1c-3.62-1.57-7.04-3.57-10.16-5.99l-3.54-2.53.18-4.09Z"/>
                <path class="cls-12" d="m4.36,93.46l12.19,9.09c3.43,2.55,7.12,4.72,11.02,6.46l16.37,7.32L4.36,93.46Z"/>
                <polygon class="cls-42" points="46.99 155.86 61.05 140.06 61.05 135.6 46.99 151.39 46.99 155.86"/>
                <polygon class="cls-42" points="42.35 158.54 46.99 155.86 46.99 151.39 42.35 154.07 42.35 158.54"/>
                <polygon class="cls-14" points="123.99 79.47 112.87 85.89 112.87 117.82 123.99 111.4 123.99 79.47"/>
                <polygon class="cls-14" points="59.58 116.66 48.46 123.08 48.46 155.01 59.58 148.59 59.58 116.66"/>
                <polygon class="cls-14" points="138.06 71.35 126.93 77.77 126.93 109.7 138.06 103.28 138.06 71.35"/>
                <g class="cls-2">
                  <path class="cls-27" d="m46.8,162.44v-43.08l.09-.05,14.34-8.28v43.08l-.09.05-14.34,8.28Zm.37-42.86v42.22l13.69-7.91v-42.22l-13.69,7.91Z"/>
                </g>
                <polygon class="cls-12" points="61.05 151.77 46.99 159.89 46.99 162.12 61.05 154 61.05 151.77"/>
                <g class="cls-2">
                  <path class="cls-27" d="m111.14,125.38v-43.24l.13-.08,14.45-8.34v43.24l-.13.08-14.45,8.34Zm.52-42.95v42.05l13.55-7.82v-42.05l-13.55,7.82Z"/>
                </g>
                <g class="cls-2">
                  <path class="cls-27" d="m125.21,117.26v-43.24l.13-.08,14.45-8.34v43.24l-.13.08-14.45,8.34Zm.52-42.95v42.05l13.55-7.82v-42.05l-13.55,7.82Z"/>
                </g>
                <g>
                  <path class="cls-4" d="m16.33,105.21l-.07-.05c-.06-.04-.12-.11-.11-.21,0-.1.05-.1.11-.06l.32.21c.15.1.22.23.28.45l.16.57c.04.13.05.22.05.34,0,.11-.03.18-.06.25l-.18.36c-.07.14-.16.15-.31.05l-.32-.21c-.05-.03-.09-.1-.09-.19,0-.09.05-.1.1-.07l.09.06.03-1.52Zm.16,1.64l.04.02c.08.05.1.05.14-.02l.18-.36s.04-.08.04-.15c0-.09-.02-.15-.04-.25l-.15-.55c-.04-.14-.06-.15-.14-.21l-.02-.02-.03,1.52Z"/>
                  <path class="cls-4" d="m18.4,107.06c.03.13.05.21.04.32,0,.13-.03.19-.07.27l-.19.37c-.05.09-.13.14-.24.06-.11-.07-.19-.22-.23-.37l-.17-.6c-.04-.13-.06-.23-.06-.35,0-.11.02-.18.06-.26l.2-.4c.05-.09.13-.13.24-.06.11.07.18.21.23.37l.18.65Zm-.35-.63c-.01-.05-.02-.1-.06-.12-.04-.03-.05,0-.07.04l-.18.36c-.03.06-.05.1-.05.18,0,.07,0,.12.03.2l.17.62s.03.1.06.12c.04.03.05,0,.07-.04l.19-.38s.04-.08.04-.15c0-.09-.01-.15-.04-.24l-.16-.59Z"/>
                  <path class="cls-4" d="m19.45,109.07c-.07-.04-.1-.09-.11-.19h0c-.01.08-.05.08-.12.03l-.14-.09c-.07-.04-.08-.07-.11-.17l-.06-.21c-.02-.07-.03-.08-.02-.15l.03-1.52c0-.08.03-.11.1-.07.07.05.09.11.09.2l-.03,1.52.05.16.08.06.05-.09.02-.83c0-.08.03-.14.1-.09.07.05.09.14.09.22l-.02.83.05.16.08.05.05-.09.03-1.52c0-.09.03-.11.1-.07.07.05.09.11.09.2l-.03,1.52c0,.07,0,.07-.03.12l-.07.12c-.03.06-.05.06-.12.02l-.14-.09Z"/>
                  <path class="cls-4" d="m21.03,108.18c0-.08.03-.11.1-.07.07.05.1.11.09.2l-.04,1.91-.25-.17-.47-1.91h0s0,0,0,0l-.03,1.44c0,.08-.03.11-.1.07-.07-.05-.1-.11-.09-.19l.04-1.91.25.17.47,1.92h0s0,0,0,0l.03-1.46Z"/>
                  <path class="cls-4" d="m21.83,108.85l-.07-.05c-.06-.04-.12-.11-.11-.21,0-.09.05-.1.11-.06l.32.21c.15.1.22.23.28.45l.16.57c.04.13.05.22.05.34,0,.1-.03.18-.06.25l-.18.36c-.07.14-.16.15-.31.05l-.32-.21s-.1-.1-.09-.2c0-.09.05-.1.1-.07l.09.06.03-1.52Zm.16,1.64l.04.02c.08.05.1.05.14-.02l.18-.35s.04-.08.04-.15c0-.09-.02-.15-.04-.25l-.15-.55c-.04-.14-.05-.15-.14-.21h-.02s-.03,1.5-.03,1.5Z"/>
                  <path class="cls-4" d="m23.21,109.76v.1c0,.08-.03.11-.1.07-.07-.05-.1-.11-.09-.19v-.36s.95.63.95.63v.36c0,.08-.04.11-.11.07-.07-.04-.09-.11-.09-.19v-.09s-.18-.12-.18-.12l-.03,1.65c0,.08-.03.11-.1.07-.07-.05-.1-.11-.09-.19l.03-1.65-.19-.12Z"/>
                  <path class="cls-4" d="m25.28,111.61c.03.13.05.21.04.32,0,.12-.03.19-.07.27l-.19.37c-.05.1-.13.14-.24.06-.11-.07-.19-.22-.23-.37l-.17-.6c-.04-.13-.06-.23-.06-.35,0-.11.02-.18.05-.26l.2-.39c.05-.09.13-.13.23-.06.11.07.18.21.23.37l.18.65Zm-.35-.63c-.02-.05-.02-.1-.06-.12-.04-.03-.05,0-.07.04l-.18.36c-.03.06-.05.1-.05.18,0,.07,0,.12.03.2l.17.62s.02.09.06.12c.04.03.05,0,.07-.03l.19-.38s.04-.08.04-.15c0-.09-.01-.15-.04-.24l-.16-.59Z"/>
                  <path class="cls-4" d="m26.33,113.62c-.07-.04-.1-.09-.11-.19h0c-.01.08-.05.08-.12.03l-.14-.09c-.07-.04-.08-.07-.11-.17l-.06-.21c-.02-.07-.02-.08-.02-.15l.03-1.52c0-.08.03-.11.1-.07.07.05.09.11.09.2l-.03,1.52.05.16.08.05.05-.09.02-.83c0-.08.03-.14.1-.09.07.05.09.14.09.22l-.02.83.05.16.08.06.05-.09.03-1.52c0-.09.03-.12.1-.07.07.05.1.11.09.2l-.03,1.52c0,.07,0,.07-.03.11l-.07.12c-.04.06-.05.06-.12.02l-.14-.1Z"/>
                  <path class="cls-4" d="m27.9,112.73c0-.08.03-.11.1-.07.07.05.1.11.09.2l-.04,1.91-.25-.17-.47-1.91h0s0,0,0,0l-.03,1.44c0,.09-.03.11-.1.07-.07-.05-.1-.11-.09-.2l.04-1.91.25.17.47,1.92h0s0,0,0,0l.03-1.46Z"/>
                </g>
              </g>
              <polygon class="cls-32" points="43.94 113.1 149.45 52.18 148.42 50.42 46.38 109.33 43.94 113.1"/>
              <polygon class="cls-32" points="148.42 50.42 149.45 52.18 160.08 43.81 195.96 23.09 192.17 21.33 157.96 41.09 148.42 50.42"/>
            </g>
            <polygon class="cls-49" points="8.69 87.52 23.31 98.69 46.38 109.33 148.42 50.42 111.29 28.19 8.69 87.52"/>
            <g>
              <g>
                <polygon class="cls-30" points="134.41 46.78 37.81 101.87 37.71 102.02 38.44 102.46 134.57 47.08 134.41 46.78"/>
                <polygon class="cls-3" points="133.83 46.44 37.81 101.87 38.29 102.16 134.41 46.78 133.83 46.44"/>
              </g>
              <g>
                <polygon class="cls-30" points="130.15 44.33 33.55 99.43 33.45 99.57 34.18 100.02 130.31 44.63 130.15 44.33"/>
                <polygon class="cls-3" points="129.57 44 33.55 99.43 34.03 99.71 130.15 44.33 129.57 44"/>
              </g>
              <g>
                <polygon class="cls-30" points="125.89 41.88 29.29 96.98 29.19 97.13 29.92 97.57 126.05 42.18 125.89 41.88"/>
                <polygon class="cls-3" points="125.31 41.55 29.29 96.98 29.77 97.27 125.89 41.88 125.31 41.55"/>
              </g>
              <g>
                <polygon class="cls-30" points="121.63 39.43 25.03 94.53 24.93 94.68 25.66 95.12 121.79 39.74 121.63 39.43"/>
                <polygon class="cls-3" points="121.05 39.1 25.03 94.53 25.51 94.82 121.63 39.43 121.05 39.1"/>
              </g>
              <g>
                <polygon class="cls-30" points="117.37 36.99 20.77 92.09 20.67 92.23 21.4 92.68 117.53 37.29 117.37 36.99"/>
                <polygon class="cls-3" points="116.79 36.65 20.77 92.09 21.25 92.37 117.37 36.99 116.79 36.65"/>
              </g>
              <g>
                <polygon class="cls-30" points="113.11 34.54 16.51 89.64 16.41 89.79 17.14 90.23 113.27 34.84 113.11 34.54"/>
                <polygon class="cls-3" points="112.53 34.21 16.51 89.64 16.99 89.93 113.11 34.54 112.53 34.21"/>
              </g>
            </g>
            <polygon class="cls-31" points="122.01 20.2 111.29 28.19 118.16 34.63 135.71 45.63 148.42 50.42 157.96 41.09 122.01 20.2"/>
            <path class="cls-31" d="m4.46,90.31l17.76,12.3,21.71,10.49,2.45-3.77-12.64-6.03c-6.47-3.08-12.64-6.77-18.41-11.02l-6.64-4.76-4.22,2.79Z"/>
            <path class="cls-32" d="m2.87,136.85l.91,5.86,7.49,6.56c4.98,4.36,10.67,7.83,16.82,10.25l15.16,5.97-.91-5.86-13.1-4.84c-6.5-2.4-12.51-5.95-17.75-10.49l-8.62-7.47Z"/>
            <path class="cls-33" d="m4.36,93.46l12.19,9.09c3.43,2.55,7.12,4.72,11.02,6.46l16.37,7.32v-3.22l-13.62-6.58c-5.39-2.61-10.57-5.62-15.49-9.03l-10.37-7.18-.1,3.15Z"/>
            <polygon class="cls-33" points="2.94 134.75 2.9 136.12 2.87 136.85 5.05 138.7 14.69 146.89 25.57 153.3 42.29 159.62 42.35 159.64 43.58 158.98 44.67 159.64 42.88 163.05 43.58 166.11 24.99 159.3 14.99 153.6 2.94 142.36 1.38 139.75 1.32 136.51 2.94 134.75"/>
            <polygon class="cls-36" points="24.99 159.3 24.42 155.47 14.11 149.48 14.11 152.78 14.99 153.6 23.3 158.38 24.99 159.3"/>
            <polygon class="cls-32" points="44.67 159.64 42.57 161.09 42.63 164.32 43.58 166.11 45.65 164.81 45.65 161.8 44.67 159.64"/>
            <polygon class="cls-49" points="2.94 134.75 2.87 136.85 14.69 146.89 25.57 153.3 42.29 159.62 42.35 159.64 43.58 158.98 44.67 159.64 42.59 160.94 24.01 154.13 13.73 147.84 1.32 136.51 2.94 134.75"/>
            <polygon class="cls-12" points="43.01 151.54 42.54 151.66 40.71 150.97 39.75 153.31 39.5 158.35 42.35 159.47 43.58 158.39 43.58 153.36 43.01 151.54"/>
            <g>
              <path class="cls-38" d="m37.89,161.2s0,.06,0,.09c.02.59.42,1.24.91,1.49.28.14.53.12.71-.01.16-.12.26-.33.27-.62.02-.61-.39-1.32-.91-1.58-.52-.26-.96.02-.98.63Z"/>
              <path class="cls-23" d="m37.89,161.2s0,.06,0,.09c0,0,.8-.1,1.09.26.27.34.51.69.53,1.21.16-.12.26-.33.27-.62.02-.61-.39-1.32-.91-1.58-.52-.26-.96.02-.98.63Z"/>
              <path class="cls-45" d="m38.67,161.2c0,.31.2.66.46.79.26.13.48-.01.49-.32,0-.31-.2-.66-.46-.79-.26-.13-.48.01-.49.32Z"/>
            </g>
            <g>
              <path class="cls-38" d="m4.66,141.76s0,.06,0,.09c.02.59.42,1.24.91,1.49.28.14.53.12.71-.01.16-.12.26-.33.27-.62.02-.61-.39-1.32-.91-1.58s-.96.02-.98.63Z"/>
              <path class="cls-23" d="m4.66,141.76s0,.06,0,.09c0,0,.8-.1,1.09.26.27.34.51.69.53,1.21.16-.12.26-.33.27-.62.02-.61-.39-1.32-.91-1.58s-.96.02-.98.63Z"/>
              <path class="cls-45" d="m5.45,141.77c0,.31.2.66.46.79s.48-.01.49-.32-.2-.66-.46-.79-.48.01-.49.32Z"/>
            </g>
            <g>
              <path class="cls-35" d="m40.79,152.48s0,.04,0,.06c.01.38.26.8.56.97.17.09.32.08.44,0,.1-.08.16-.22.17-.4.01-.4-.24-.86-.56-1.03-.32-.17-.59.01-.6.41Z"/>
              <path class="cls-5" d="m40.79,152.48s0,.04,0,.06c0,0,.49-.06.67.17.17.22.32.45.33.79.1-.08.16-.22.17-.4.01-.4-.24-.86-.56-1.03-.32-.17-.59.01-.6.41Z"/>
              <path class="cls-24" d="m41.27,152.48c0,.2.12.43.28.52.16.09.3,0,.3-.21,0-.2-.12-.43-.28-.52-.16-.09-.3,0-.3.21Z"/>
            </g>
            <g>
              <path class="cls-43" d="m41.52,154.58s0,.04,0,.06c.01.38.26.8.56.97.17.09.32.08.43,0,.1-.08.16-.22.17-.4.01-.4-.24-.86-.56-1.03s-.59.01-.6.41Z"/>
              <path class="cls-29" d="m41.52,154.58s0,.04,0,.06c0,0,.49-.06.67.17.17.22.31.45.33.79.1-.08.16-.22.17-.4.01-.4-.24-.86-.56-1.03s-.59.01-.6.41Z"/>
              <path class="cls-47" d="m42,154.59c0,.2.12.43.28.52.16.09.3,0,.3-.21s-.12-.43-.28-.52c-.16-.09-.3,0-.3.21Z"/>
            </g>
            <g>
              <path class="cls-35" d="m40.5,156.44s0,.06,0,.09c.02.57.38,1.21.84,1.45.25.13.49.12.65-.01.15-.12.24-.33.25-.61.02-.6-.36-1.28-.84-1.54s-.88.02-.9.62Z"/>
              <path class="cls-5" d="m40.5,156.44s0,.06,0,.09c0,0,.73-.09,1,.26.25.33.47.67.49,1.18.15-.12.24-.33.25-.61.02-.6-.36-1.28-.84-1.54s-.88.02-.9.62Z"/>
              <path class="cls-24" d="m41.23,156.44c0,.3.18.65.42.77.24.13.44-.01.45-.31,0-.3-.18-.65-.42-.77s-.44.01-.45.31Z"/>
            </g>
            <polygon class="cls-12" points="3.14 128.87 5.05 130.63 5.45 133.22 5.26 138.32 2.91 136.42 2.91 130.86 3.14 128.87"/>
            <g>
              <path class="cls-43" d="m3.09,132.33s0,.04,0,.06c0,.36.21.82.5,1.05.16.13.31.16.42.1.1-.05.17-.16.18-.34.03-.37-.19-.87-.5-1.11-.3-.24-.58-.14-.61.23Z"/>
              <path class="cls-29" d="m3.09,132.33s0,.04,0,.06c0,0,.48.07.64.33.15.25.29.5.28.82.1-.05.17-.16.18-.34.03-.37-.19-.87-.5-1.11-.3-.24-.58-.14-.61.23Z"/>
              <path class="cls-47" d="m3.56,132.45c-.01.19.1.43.25.56.15.12.29.07.3-.12.01-.19-.1-.43-.25-.56-.15-.12-.29-.07-.3.12Z"/>
            </g>
            <g>
              <path class="cls-35" d="m3.81,130.84s0,.04,0,.06c0,.36.21.82.5,1.05.16.13.31.16.42.1.1-.05.17-.16.18-.34.03-.37-.19-.86-.5-1.11-.3-.24-.58-.14-.61.23Z"/>
              <path class="cls-5" d="m3.81,130.84s0,.04,0,.06c0,0,.48.07.64.33.15.25.29.5.28.82.1-.05.17-.16.18-.34.03-.37-.19-.86-.5-1.11-.3-.24-.58-.14-.61.23Z"/>
              <path class="cls-24" d="m4.28,130.97c-.01.19.1.44.25.56.15.12.29.07.3-.12.01-.19-.1-.43-.25-.56-.15-.12-.29-.07-.3.12Z"/>
            </g>
            <g>
              <path class="cls-35" d="m3.16,134.79s0,.06,0,.08c0,.54.32,1.23.75,1.58.24.19.47.24.64.16.15-.07.25-.25.27-.51.04-.56-.29-1.3-.75-1.66-.46-.36-.86-.2-.91.35Z"/>
              <path class="cls-5" d="m3.16,134.79s0,.06,0,.08c0,0,.72.1.97.5.23.37.43.75.42,1.24.15-.07.25-.25.27-.51.04-.56-.29-1.3-.75-1.66-.46-.36-.86-.2-.91.35Z"/>
              <path class="cls-24" d="m3.86,134.97c-.02.28.15.65.38.83.23.18.43.1.46-.18.02-.28-.15-.65-.38-.83-.23-.18-.43-.1-.46.18Z"/>
            </g>
            <polygon class="cls-13" points="20.74 139.9 21.37 139.41 23.38 114.37 22.67 113.98 20.74 139.9"/>
            <path class="cls-31" d="m11.81,138.78c4.71,4,10.04,7.21,15.77,9.52l-1.58,3.93c-4.24-1.85-8.24-4.2-11.91-7l-2.28-6.45Z"/>
            <polygon class="cls-11" points="19.15 147.36 21.72 148.84 21.72 145.89 19.15 144.41 19.15 147.36"/>
            <g>
              <path class="cls-44" d="m23.72,156.7v2c0,.49-.51.77-.95.52l-6.85-3.88c-.67-.38-1.09-1.09-1.09-1.84v-2.08c0-.49.52-.77.95-.52l6.86,3.97c.66.38,1.07,1.09,1.07,1.83Z"/>
              <path class="cls-46" d="m22.92,159c.31.02.57-.22.57-.53v-1.73c0-.69-.38-1.35-1-1.7l-6.59-3.81c-.08-.05-.17-.07-.26-.08-.31-.02-.57.22-.57.53v1.82c0,.7.39,1.36,1.01,1.71l6.57,3.72c.08.05.17.07.26.08Z"/>
            </g>
            <path class="cls-41" d="m195.96,23.09l-11.06-7.93c-5.79-4.16-11.96-7.77-18.41-10.81l-9.25-4.35-1.55.14h1.09l9.43,4.63c5.62,2.76,11.01,5.97,16.12,9.59l9.84,6.98,3.79,1.75Z"/>
            <path class="cls-49" d="m156.78.14l9.43,4.63c5.62,2.76,11.01,5.97,16.12,9.59l9.84,6.98-34.22,19.75-14.02-5.45-14.98-9.36-6.95-6.08L156.78.14Z"/>
          </g>
          <g>
            <path class="cls-12" d="m50.06,125.28l1.08.11c.88.18,1.6,1.28,1.6,2.45v6.84c0,1.18-.72,1.99-1.6,1.81l-1.48-.25c-.88-.18-1.2-1.13-1.2-2.31v-6.84c0-1.18.72-1.99,1.6-1.81Z"/>
            <path class="cls-8" d="m50.06,125.71l1.08.11c.88.18,1.6,1.28,1.6,2.45v6.84c0,1.18-.72,1.99-1.6,1.81l-1.48-.25c-.88-.18-1.2-1.13-1.2-2.31v-6.84c0-1.18.72-1.99,1.6-1.81Z"/>
            <polygon class="cls-12" points="50.6 138.57 46.25 142.59 46.06 141.78 49.93 137.97 49.93 125.33 44.75 120.23 45.05 119.63 50.6 124.92 50.6 138.57"/>
          </g>
        </g>
      </g>
    </g>
  </g>
</svg>