<?xml version="1.0" encoding="UTF-8"?>
<svg xmlns="http://www.w3.org/2000/svg" xmlns:xlink="http://www.w3.org/1999/xlink" viewBox="0 0 254.95 218.02">
  <defs>
    <style>
      .cls-1 {
        fill: url(#linear-gradient-6);
      }

      .cls-1, .cls-2, .cls-3, .cls-4, .cls-5, .cls-6, .cls-7, .cls-8, .cls-9, .cls-10, .cls-11, .cls-12, .cls-13, .cls-14, .cls-15, .cls-16, .cls-17, .cls-18, .cls-19, .cls-20, .cls-21, .cls-22, .cls-23, .cls-24, .cls-25, .cls-26, .cls-27, .cls-28, .cls-29, .cls-30, .cls-31, .cls-32, .cls-33, .cls-34, .cls-35, .cls-36, .cls-37, .cls-38, .cls-39, .cls-40, .cls-41, .cls-42, .cls-43, .cls-44, .cls-45, .cls-46, .cls-47, .cls-48, .cls-49, .cls-50 {
        stroke-width: 0px;
      }

      .cls-1, .cls-2, .cls-3, .cls-4, .cls-5, .cls-13, .cls-15, .cls-16, .cls-19, .cls-51 {
        mix-blend-mode: multiply;
      }

      .cls-2 {
        fill: url(#linear-gradient-4);
      }

      .cls-52 {
        filter: url(#luminosity-noclip-7);
      }

      .cls-53 {
        filter: url(#luminosity-noclip-3);
      }

      .cls-54 {
        filter: url(#luminosity-noclip-5);
      }

      .cls-3 {
        fill: url(#linear-gradient-11);
      }

      .cls-4 {
        fill: url(#linear-gradient-14);
      }

      .cls-5, .cls-8, .cls-51 {
        opacity: .2;
      }

      .cls-55 {
        mask: url(#mask);
      }

      .cls-6, .cls-13 {
        fill: url(#linear-gradient-3);
      }

      .cls-6, .cls-14, .cls-18, .cls-19 {
        opacity: .5;
      }

      .cls-6, .cls-56 {
        mix-blend-mode: screen;
      }

      .cls-7 {
        fill: url(#linear-gradient);
      }

      .cls-57 {
        filter: url(#luminosity-noclip);
      }

      .cls-8, .cls-14, .cls-47 {
        fill: #fff;
      }

      .cls-9 {
        fill: url(#linear-gradient-12);
      }

      .cls-10 {
        fill: url(#linear-gradient-13);
      }

      .cls-11 {
        fill: url(#linear-gradient-10);
      }

      .cls-12 {
        fill: url(#linear-gradient-15);
      }

      .cls-13, .cls-15, .cls-56 {
        opacity: .3;
      }

      .cls-15, .cls-19, .cls-29 {
        fill: #5a6567;
      }

      .cls-16 {
        opacity: .1;
      }

      .cls-58 {
        opacity: .7;
      }

      .cls-17 {
        fill: #343433;
        fill-rule: evenodd;
      }

      .cls-18 {
        fill: url(#linear-gradient-7);
      }

      .cls-20 {
        fill: url(#linear-gradient-2);
      }

      .cls-21 {
        fill: url(#linear-gradient-8);
      }

      .cls-22 {
        fill: url(#linear-gradient-9);
      }

      .cls-23 {
        fill: url(#linear-gradient-5);
      }

      .cls-59 {
        isolation: isolate;
      }

      .cls-60 {
        mask: url(#mask-3);
      }

      .cls-61 {
        mask: url(#mask-2);
      }

      .cls-62 {
        mask: url(#mask-5);
      }

      .cls-63 {
        mask: url(#mask-4);
      }

      .cls-64 {
        mask: url(#mask-1);
      }

      .cls-65 {
        mask: url(#mask-7);
      }

      .cls-66 {
        mask: url(#mask-6);
      }

      .cls-25 {
        fill: #4d585a;
      }

      .cls-26 {
        fill: #4f5a5c;
      }

      .cls-27 {
        fill: #354042;
      }

      .cls-28 {
        fill: #565f62;
      }

      .cls-30 {
        fill: #555e61;
      }

      .cls-31 {
        fill: #3b4447;
      }

      .cls-32 {
        fill: #273234;
      }

      .cls-33 {
        fill: #39464a;
      }

      .cls-34 {
        fill: #3c4548;
      }

      .cls-35 {
        fill: #1b2628;
      }

      .cls-36 {
        fill: #3d4b4f;
      }

      .cls-37 {
        fill: #404b4d;
      }

      .cls-38 {
        fill: #141c1e;
      }

      .cls-39 {
        fill: #424d4f;
      }

      .cls-40 {
        fill: #222b2e;
      }

      .cls-41 {
        fill: #cccbca;
      }

      .cls-42 {
        fill: #c5d0d3;
      }

      .cls-43 {
        fill: #d77728;
      }

      .cls-44 {
        fill: #b01120;
      }

      .cls-45 {
        fill: #bd1e2d;
      }

      .cls-46 {
        fill: #303e42;
      }

      .cls-48 {
        fill: #e3e3e4;
      }

      .cls-49 {
        fill: #f09041;
      }

      .cls-50 {
        fill: #e7e8e7;
      }
    </style>
    <linearGradient id="linear-gradient" x1="88.36" y1="189.63" x2="75.87" y2="202.96" gradientUnits="userSpaceOnUse">
      <stop offset="0" stop-color="#c1c0c0"/>
      <stop offset="1" stop-color="#dedddc"/>
    </linearGradient>
    <linearGradient id="linear-gradient-2" x1="213.47" y1="117.56" x2="200.97" y2="130.88" xlink:href="#linear-gradient"/>
    <linearGradient id="linear-gradient-3" x1="117.45" y1="150.77" x2="115.81" y2="146.83" gradientUnits="userSpaceOnUse">
      <stop offset="0" stop-color="#fff"/>
      <stop offset="1" stop-color="#000"/>
    </linearGradient>
    <filter id="luminosity-noclip" x="6.15" y="164.76" width="68.8" height="33.12" color-interpolation-filters="sRGB" filterUnits="userSpaceOnUse">
      <feFlood flood-color="#fff" result="bg"/>
      <feBlend in="SourceGraphic" in2="bg"/>
    </filter>
    <filter id="luminosity-noclip-2" x="6.15" y="-8444.78" width="68.8" height="32766" color-interpolation-filters="sRGB" filterUnits="userSpaceOnUse">
      <feFlood flood-color="#fff" result="bg"/>
      <feBlend in="SourceGraphic" in2="bg"/>
    </filter>
    <mask id="mask-1" x="6.15" y="-8444.78" width="68.8" height="32766" maskUnits="userSpaceOnUse"/>
    <linearGradient id="linear-gradient-4" x1="46" y1="182.15" x2="67.08" y2="183.34" gradientUnits="userSpaceOnUse">
      <stop offset="0" stop-color="#333"/>
      <stop offset=".52" stop-color="#999"/>
      <stop offset="1" stop-color="#333"/>
    </linearGradient>
    <mask id="mask" x="6.15" y="164.76" width="68.8" height="33.12" maskUnits="userSpaceOnUse">
      <g class="cls-57">
        <g class="cls-64">
          <path class="cls-2" d="m69.57,190.76l-8.13,3.62s-2.98,1.41-10.31-.24c-6.8-1.53-10.56-2.94-11.5-3.32-.27.05-.55.08-.82.08-.2,0-.4-.01-.59-.05-3.37-.5-11.02-4.47-14.6-6.88-.27-.18-.55-.37-.84-.56-3.5-2.32-8.64-5.74-9.91-10.02-1.38-1.83-4.18-5.77-4.98-8.64,0,0-1.61,1.61-1.61,2.7,0,.32-.11,1.13-.12,2.29,3.94,6.21,10.74,12.08,17.3,16.39,7.93,5.21,22.46,10.38,28.64,11.44,6.18,1.07,11.15-1.07,11.15-1.07l11.71-6.06-5.38.31Z"/>
        </g>
      </g>
    </mask>
    <linearGradient id="linear-gradient-5" x1="46" y1="182.15" x2="67.08" y2="183.34" gradientUnits="userSpaceOnUse">
      <stop offset="0" stop-color="#fff"/>
      <stop offset=".52" stop-color="#fff"/>
      <stop offset="1" stop-color="#fff"/>
    </linearGradient>
    <filter id="luminosity-noclip-3" x="11.84" y="178.51" width="28.76" height="19.69" color-interpolation-filters="sRGB" filterUnits="userSpaceOnUse">
      <feFlood flood-color="#fff" result="bg"/>
      <feBlend in="SourceGraphic" in2="bg"/>
    </filter>
    <filter id="luminosity-noclip-4" x="11.84" y="-8444.78" width="28.76" height="32766" color-interpolation-filters="sRGB" filterUnits="userSpaceOnUse">
      <feFlood flood-color="#fff" result="bg"/>
      <feBlend in="SourceGraphic" in2="bg"/>
    </filter>
    <mask id="mask-3" x="11.84" y="-8444.78" width="28.76" height="32766" maskUnits="userSpaceOnUse"/>
    <linearGradient id="linear-gradient-6" x1="21.15" y1="177.83" x2="24.79" y2="185.12" xlink:href="#linear-gradient-4"/>
    <mask id="mask-2" x="11.84" y="178.51" width="28.76" height="19.69" maskUnits="userSpaceOnUse">
      <g class="cls-53">
        <g class="cls-60">
          <path class="cls-1" d="m40.01,195.01c-2.67,1.14-8.31-2.31-12.6-4.65-3.93-2.14-7.97-5.1-9.32-6.2-.83-.68-1.1-1.5-1.17-2.03-1.62-1.26-2.89-2.33-3.63-2.97-1.68-1.44-1.65-.24-1.12,1.49.53,1.73,3.31,5.62,9.72,9.87,6.41,4.26,11.23,6.38,14.29,7.36,3.06.98,4.14-.52,4.4-1.55.15-.63-.23-1.07-.55-1.32Z"/>
        </g>
      </g>
    </mask>
    <linearGradient id="linear-gradient-7" x1="21.15" y1="177.83" x2="24.79" y2="185.12" xlink:href="#linear-gradient-5"/>
    <linearGradient id="linear-gradient-8" x1="51.17" y1="186.82" x2="51.95" y2="189.81" gradientUnits="userSpaceOnUse">
      <stop offset="0" stop-color="#faffff"/>
      <stop offset="1" stop-color="#d4d7d9"/>
    </linearGradient>
    <linearGradient id="linear-gradient-9" x1="57.89" y1="183.09" x2="59.39" y2="188.84" xlink:href="#linear-gradient-8"/>
    <linearGradient id="linear-gradient-10" x1="61.37" y1="182.53" x2="62.3" y2="186.11" xlink:href="#linear-gradient-8"/>
    <filter id="luminosity-noclip-5" x="44.42" y="179.65" width="22.68" height="12.97" color-interpolation-filters="sRGB" filterUnits="userSpaceOnUse">
      <feFlood flood-color="#fff" result="bg"/>
      <feBlend in="SourceGraphic" in2="bg"/>
    </filter>
    <filter id="luminosity-noclip-6" x="44.42" y="-8444.78" width="22.68" height="32766" color-interpolation-filters="sRGB" filterUnits="userSpaceOnUse">
      <feFlood flood-color="#fff" result="bg"/>
      <feBlend in="SourceGraphic" in2="bg"/>
    </filter>
    <mask id="mask-5" x="44.42" y="-8444.78" width="22.68" height="32766" maskUnits="userSpaceOnUse"/>
    <linearGradient id="linear-gradient-11" x1="44.42" y1="186.14" x2="67.09" y2="186.14" gradientUnits="userSpaceOnUse">
      <stop offset="0" stop-color="#fff"/>
      <stop offset=".09" stop-color="#f4f4f4"/>
      <stop offset=".23" stop-color="#d8d8d8"/>
      <stop offset=".43" stop-color="#ababab"/>
      <stop offset=".65" stop-color="#6c6c6c"/>
      <stop offset=".91" stop-color="#1c1c1c"/>
      <stop offset="1" stop-color="#000"/>
    </linearGradient>
    <mask id="mask-4" x="44.42" y="179.65" width="22.68" height="12.97" maskUnits="userSpaceOnUse">
      <g class="cls-54">
        <g class="cls-62">
          <path class="cls-3" d="m44.42,190.27s4.19-5.83,7.5-7.57c3.31-1.74,13.97-2.95,14.38-3.03.42-.08,1.09.17.64,1.12-.46.96-2.99,6.69-5.31,8.84-2.32,2.15-3.28,3.42-8.05,2.86-4.77-.56-9.17-2.22-9.17-2.22Z"/>
        </g>
      </g>
    </mask>
    <linearGradient id="linear-gradient-12" x1="44.42" y1="186.14" x2="67.09" y2="186.14" gradientUnits="userSpaceOnUse">
      <stop offset="0" stop-color="#fff"/>
      <stop offset="1" stop-color="#fff"/>
    </linearGradient>
    <linearGradient id="linear-gradient-13" x1="10.27" y1="158.33" x2="11.65" y2="163.61" xlink:href="#linear-gradient-8"/>
    <filter id="luminosity-noclip-7" x="7.88" y="150.43" width="4.43" height="20.48" color-interpolation-filters="sRGB" filterUnits="userSpaceOnUse">
      <feFlood flood-color="#fff" result="bg"/>
      <feBlend in="SourceGraphic" in2="bg"/>
    </filter>
    <filter id="luminosity-noclip-8" x="7.88" y="-8444.78" width="4.43" height="32766" color-interpolation-filters="sRGB" filterUnits="userSpaceOnUse">
      <feFlood flood-color="#fff" result="bg"/>
      <feBlend in="SourceGraphic" in2="bg"/>
    </filter>
    <mask id="mask-7" x="7.88" y="-8444.78" width="4.43" height="32766" maskUnits="userSpaceOnUse"/>
    <linearGradient id="linear-gradient-14" x1="7.88" y1="160.67" x2="12.31" y2="160.67" xlink:href="#linear-gradient-3"/>
    <mask id="mask-6" x="7.88" y="150.43" width="4.43" height="20.48" maskUnits="userSpaceOnUse">
      <g class="cls-52">
        <g class="cls-65">
          <path class="cls-4" d="m7.88,164.76s3.29,5.02,4.43,6.15c0,0-.07-8.75-.09-11.37-.02-2.22-.65-7.12-.98-9.11-.87,1.31-1.55,2.46-1.87,3.25-1.15,2.86-1.49,11.08-1.49,11.08Z"/>
        </g>
      </g>
    </mask>
    <linearGradient id="linear-gradient-15" x1="7.88" y1="160.67" x2="12.31" y2="160.67" gradientUnits="userSpaceOnUse">
      <stop offset="0" stop-color="#fff"/>
      <stop offset="1" stop-color="#fff"/>
    </linearGradient>
  </defs>
  <g class="cls-59">
    <g id="Layer_2" data-name="Layer 2">
      <g id="Layer_1-2" data-name="Layer 1">
        <g>
          <path class="cls-16" d="m253.53,106.73c1.9,1.1,1.9,2.89,0,3.98l-183.78,106c-4.63,2.46-14.75,1.32-23.57-2.34-5.7-2.37-16.69-8.22-21.95-11.26-5.22-3.02-15.48-9.05-20-12.93-4.45-3.82-7.29-10.47,1.51-14.49l180.3-103.99c1.9-1.09,5-1.09,6.89,0l60.6,35.04Z"/>
          <polygon class="cls-40" points="79.26 177.54 87.8 187.85 95.92 190.51 97.34 187.31 98.7 178.54 79.26 177.54"/>
          <polygon class="cls-40" points="222.6 113.3 221.01 116.91 212.9 115.24 204.69 107.03 225.17 107.03 222.6 113.3"/>
          <g>
            <path class="cls-31" d="m89.75,181.72l-6.28-2.88c-1.86-.63-4.21-.29-6.77,1.19-6.03,3.48-10.92,11.94-10.92,18.91,0,3.65,1.35,6.16,3.5,7.22l5.9,2.74c1.91.81,4.41.53,7.15-1.05,6.03-3.48,10.91-11.94,10.91-18.91,0-3.65-1.35-6.16-3.5-7.22Z"/>
            <path class="cls-30" d="m93.25,188.94c0,6.96-4.89,15.43-10.91,18.91-6.03,3.48-10.92.66-10.92-6.3s4.89-15.43,10.92-18.91c6.03-3.48,10.91-.66,10.91,6.3Z"/>
            <path class="cls-31" d="m92.28,189.69c0,6.34-4.45,14.06-9.95,17.23-5.5,3.17-9.95.6-9.95-5.74s4.45-14.06,9.95-17.23c5.5-3.17,9.95-.6,9.95,5.74Z"/>
            <g>
              <path class="cls-7" d="m89.21,191.94c-.08,4.37-2.82,9.15-6.56,11.41-3.34,2.01-6.64.04-6.56-3.83.08-4.37,2.82-9.15,6.56-11.41,3.34-2.01,6.64-.04,6.56,3.83Z"/>
              <path class="cls-41" d="m88.94,192.26c-.08,4.16-2.68,8.71-6.25,10.86-3.17,1.91-6.32.04-6.25-3.64.08-4.16,2.68-8.71,6.25-10.86,3.17-1.92,6.32-.04,6.25,3.64Z"/>
              <path class="cls-14" d="m85.35,187.85c1.72.37,2.95,1.96,2.91,4.27-.08,4.11-2.65,8.6-6.17,10.73-1.35.82-2.7.93-3.79.51,1.18.72,2.78.73,4.39-.25,3.57-2.15,6.17-6.7,6.25-10.86.05-2.62-1.53-4.32-3.58-4.4Z"/>
              <path class="cls-50" d="m86.37,194.11c-.04,2.21-1.43,4.64-3.33,5.78-1.69,1.02-3.36.02-3.32-1.94.04-2.22,1.43-4.64,3.32-5.78,1.69-1.02,3.37-.02,3.33,1.94Z"/>
              <g>
                <path class="cls-17" d="m80.63,193.69l-1.52-1.5c-.27.39-.53.79-.77,1.21l1.91.88c.11-.2.24-.4.38-.59Z"/>
                <path class="cls-17" d="m82.91,191.49c.1-.06.19-.11.29-.15l-.39-2.64s-.09.05-.14.08c-.37.23-.73.49-1.08.77l.93,2.21c.13-.09.26-.17.39-.25Z"/>
                <path class="cls-17" d="m79.82,195.15l-1.97-.76c-.22.47-.42.96-.58,1.45l2.24.16c.09-.28.19-.57.32-.84Z"/>
                <path class="cls-17" d="m81.73,192.4l-.9-2.2c-.36.34-.71.71-1.03,1.1l1.35,1.72c.18-.22.38-.42.58-.62Z"/>
                <path class="cls-17" d="m86.11,191.86l1.14-1.91c-.07-.14-.15-.27-.23-.4-.1-.15-.21-.29-.33-.42l-.9,2.41c.11.1.22.21.31.33Z"/>
                <path class="cls-17" d="m86.6,192.95l1.21-1.39c-.06-.29-.13-.56-.21-.82l-1.2,1.56c.09.2.17.41.21.65Z"/>
                <path class="cls-17" d="m85.36,191.25l.76-2.65c-.28-.19-.58-.32-.9-.4l-.37,2.88c.18.04.35.09.51.17Z"/>
                <path class="cls-17" d="m84.34,191.04l.32-2.9s-.01,0-.02,0c-.35,0-.72.07-1.09.21l.27,2.77c.18-.04.35-.07.52-.07Z"/>
                <path class="cls-17" d="m79.26,196.94h-2.31c-.11.48-.2.96-.25,1.44l2.46-.61c.02-.28.05-.55.1-.83Z"/>
                <path class="cls-17" d="m83.84,199.52l-.08,1.4c.26-.24.51-.49.75-.76l-.2-1.1c-.15.16-.32.31-.48.45Z"/>
                <path class="cls-17" d="m85.07,198.17l.34.91c.3-.41.58-.85.84-1.29l-.81-.17c-.12.19-.24.38-.37.55Z"/>
                <path class="cls-17" d="m85.97,196.62l.78.2c.24-.5.44-1.01.61-1.53l-1.02.34c-.1.34-.23.67-.37.99Z"/>
                <path class="cls-17" d="m79.2,198.63l-2.55.66c0,.06-.01.12-.01.18,0,.35.05.68.15.99l2.57-1.23c-.07-.18-.12-.38-.16-.6Z"/>
                <path class="cls-17" d="m86.66,193.73c0,.33-.04.67-.11,1.01l1.08-.42c.13-.56.22-1.12.27-1.68l-1.25,1.09Z"/>
                <path class="cls-17" d="m82.91,200.21c-.12.07-.23.13-.35.18l-.78,1.93c.06-.02.12-.04.19-.06.04-.02.08-.04.12-.07.27-.16.53-.35.79-.54l.34-1.65c-.1.07-.21.14-.32.21Z"/>
                <path class="cls-17" d="m79.59,199.69l-2.46,1.48c.15.22.33.42.54.59.09.07.18.14.27.2l1.96-1.89c-.11-.11-.22-.24-.31-.38Z"/>
                <path class="cls-17" d="m80.35,200.4l-1.82,1.85c.27.11.56.19.86.24l1.26-1.95c-.11-.04-.21-.08-.3-.13Z"/>
                <path class="cls-17" d="m81.15,200.65l-1.02,1.9s.03,0,.04,0c.24,0,.48-.02.73-.05l.88-1.87c-.22.03-.42.04-.63.02Z"/>
              </g>
            </g>
          </g>
          <g>
            <path class="cls-31" d="m214.85,109.65l-6.28-2.88c-1.86-.63-4.21-.29-6.77,1.19-6.03,3.48-10.92,11.95-10.92,18.91,0,3.65,1.35,6.16,3.5,7.22l5.9,2.74c1.91.82,4.41.53,7.15-1.05,6.03-3.48,10.91-11.94,10.91-18.91,0-3.65-1.35-6.16-3.49-7.22Z"/>
            <path class="cls-30" d="m218.35,116.87c0,6.96-4.89,15.43-10.91,18.91-6.03,3.48-10.91.66-10.91-6.3s4.89-15.42,10.91-18.91c6.03-3.48,10.91-.66,10.91,6.3Z"/>
            <path class="cls-31" d="m217.38,117.62c0,6.35-4.46,14.06-9.95,17.23-5.5,3.17-9.95.6-9.95-5.74s4.45-14.06,9.95-17.23c5.49-3.17,9.95-.6,9.95,5.74Z"/>
            <g>
              <path class="cls-20" d="m214.31,119.86c-.08,4.37-2.82,9.15-6.56,11.41-3.34,2.01-6.64.04-6.57-3.83.08-4.37,2.81-9.15,6.57-11.41,3.33-2.01,6.64-.04,6.56,3.83Z"/>
              <path class="cls-41" d="m214.04,120.18c-.08,4.16-2.68,8.71-6.25,10.86-3.18,1.91-6.32.04-6.25-3.64.08-4.16,2.68-8.71,6.25-10.86,3.17-1.92,6.32-.04,6.25,3.64Z"/>
              <path class="cls-14" d="m210.46,115.78c1.71.37,2.95,1.96,2.91,4.27-.08,4.11-2.65,8.6-6.17,10.73-1.35.82-2.7.94-3.79.51,1.18.72,2.78.73,4.39-.24,3.57-2.15,6.17-6.7,6.25-10.86.05-2.62-1.53-4.32-3.58-4.4Z"/>
              <path class="cls-50" d="m211.47,122.03c-.04,2.21-1.43,4.64-3.33,5.78-1.69,1.02-3.36.02-3.33-1.94.04-2.22,1.43-4.64,3.33-5.78,1.69-1.02,3.36-.02,3.33,1.94Z"/>
              <g>
                <path class="cls-17" d="m205.74,121.62l-1.52-1.5c-.27.39-.54.79-.77,1.21l1.91.88c.12-.2.24-.4.38-.59Z"/>
                <path class="cls-17" d="m208.01,119.42c.09-.06.19-.11.29-.15l-.39-2.64s-.09.05-.14.07c-.37.23-.73.49-1.08.77l.93,2.21c.13-.09.26-.17.39-.25Z"/>
                <path class="cls-17" d="m204.92,123.08l-1.97-.76c-.22.47-.42.96-.58,1.45l2.24.16c.09-.29.2-.57.32-.84Z"/>
                <path class="cls-17" d="m206.84,120.32l-.9-2.21c-.36.34-.71.71-1.03,1.1l1.35,1.72c.18-.22.37-.42.58-.61Z"/>
                <path class="cls-17" d="m211.21,119.79l1.14-1.92c-.07-.14-.15-.27-.23-.4-.1-.15-.21-.29-.33-.42l-.89,2.41c.11.1.21.21.31.33Z"/>
                <path class="cls-17" d="m211.7,120.88l1.2-1.39c-.06-.29-.13-.57-.21-.82l-1.2,1.56c.09.2.17.41.21.65Z"/>
                <path class="cls-17" d="m210.47,119.18l.76-2.65c-.28-.19-.58-.33-.9-.4l-.37,2.88c.18.04.35.09.51.17Z"/>
                <path class="cls-17" d="m209.44,118.97l.32-2.9s-.01,0-.02,0c-.35,0-.72.07-1.09.21l.27,2.77c.18-.04.35-.07.52-.07Z"/>
                <path class="cls-17" d="m204.37,124.87h-2.32c-.12.48-.2.96-.25,1.44l2.46-.61c.02-.28.05-.55.1-.83Z"/>
                <path class="cls-17" d="m208.94,127.45l-.07,1.4c.26-.24.51-.49.75-.76l-.2-1.1c-.15.16-.31.31-.48.45Z"/>
                <path class="cls-17" d="m210.18,126.09l.34.91c.3-.41.58-.85.84-1.29l-.81-.17c-.12.19-.24.37-.37.55Z"/>
                <path class="cls-17" d="m211.07,124.54l.78.2c.24-.5.44-1.01.61-1.53l-1.02.34c-.1.34-.23.67-.37.99Z"/>
                <path class="cls-17" d="m204.3,126.55l-2.55.66c0,.06-.01.12-.01.19,0,.35.05.68.15.99l2.57-1.23c-.07-.19-.12-.39-.16-.6Z"/>
                <path class="cls-17" d="m211.76,121.65c-.01.33-.05.67-.11,1.01l1.08-.42c.13-.56.23-1.12.27-1.68l-1.25,1.09Z"/>
                <path class="cls-17" d="m208.01,128.13c-.12.07-.24.13-.35.18l-.78,1.93c.06-.02.13-.04.19-.06.04-.02.08-.04.12-.07.27-.16.53-.35.79-.54l.34-1.65c-.11.07-.21.14-.31.21Z"/>
                <path class="cls-17" d="m204.69,127.61l-2.46,1.48c.15.22.32.42.54.59.09.07.18.14.28.2l1.96-1.89c-.11-.11-.22-.24-.31-.38Z"/>
                <path class="cls-17" d="m205.45,128.33l-1.82,1.85c.27.11.56.19.86.24l1.26-1.95c-.1-.04-.2-.08-.3-.14Z"/>
                <path class="cls-17" d="m206.26,128.58l-1.02,1.9s.03,0,.05,0c.24,0,.48-.02.72-.05l.87-1.87c-.21.03-.43.04-.62.02Z"/>
              </g>
            </g>
          </g>
          <path class="cls-45" d="m250.5,76.9s-.73-17.85-2.79-28.11c-2.06-10.26-5.46-20.59-7.47-23.63-2-3.04-12.69-11.3-17.49-13.97C217.95,8.52,200.82.19,199.05.01c-1.76-.18-5.52,1.7-5.52,1.7l-102.29,58.49s-16.76,9.78-23.51,15.49c-6.74,5.71-17.86,21.02-17.86,21.02l-20.35,32.01s-8.14,8.69-10.63,11.6c-2.49,2.91-8.38,10.51-9.54,13.36-1.15,2.86-1.49,11.08-1.49,11.08,0,0-1.61,1.61-1.61,2.7s-1.22,7.65,3.89,14.64c5.1,6.99,16.06,12.77,24.1,17.52,8.05,4.75,20.11,8.12,23.9,7.72,3.11-.33,8.13-2.41,9.81-3.13.71-2.17,2.58-6.99,6.76-13.39,5.75-8.82,12.64-11.68,17.63-9.98,3.93,1.34,3.8,7.23,3.57,9.67l97.54-57.85h.75c.65-2.57,1.85-6.3,4.01-10.72,4.18-8.58,12.18-14.11,18.06-13.22,4.49.68,4.81,5.81,4.72,8.19,1.83-1.25,15.24-10.44,18.01-12.25,2.98-1.94,10.45-6.98,10.99-9.23.55-2.25.18-10.63.18-10.63l.3-7.91Z"/>
          <path class="cls-37" d="m92.35,180.84c1.55.53,2.47,1.77,3,3.22l2.67-1.97,98.85-57.16c.4-.96.86-1.96,1.37-2.99.97-1.98,2.14-3.8,3.44-5.42l-4.07.81-102.49,59.6-3.58,3.69c.27.06.54.14.81.23Z"/>
          <path class="cls-37" d="m216.29,108.72c1.85.28,3,1.32,3.69,2.61l23.85-14.95-.27,5.17c2.99-2.17,6.11-4.7,6.45-6.12.46-1.9.28-8.15.2-10.07l-30.56,18.7-3.83,4.6c.16.01.31.03.47.05Z"/>
          <polygon class="cls-5" points="246.49 73.99 140.87 138.49 98.86 167.01 141.36 139.03 246.68 74.68 246.49 73.99"/>
          <path class="cls-5" d="m238.37,34.32s-4.08,3.09-10.79,6.96c-24.44,14.1-83.67,48.33-106.51,62-3.81,2.28-11.04,6.76-13.11,11.22,2.19-5.23,9.31-9.67,13.11-11.95,29.11-17.41,117.3-68.22,117.3-68.22Z"/>
          <g class="cls-51">
            <rect class="cls-24" x="107.7" y="75.9" width="144.07" height=".28" transform="translate(-13.73 101.72) rotate(-30.49)"/>
          </g>
          <path class="cls-5" d="m39.62,190.82c.33.13,1.01.39,2.04.73.57-.37,1.77-1.26,2.6-2.58,1.12-1.78,3.58-5.56,6.68-8.24,1.96-1.7,16.87-12.76,16.87-12.76,0,0-13.5,9.37-16.58,11.67-3.27,2.44-5.29,5.07-6.07,6.25,0,0,0,0,0,0-1.79,2.9-3.65,4.54-5.54,4.91,0,0,0,0,0,0Z"/>
          <path class="cls-5" d="m12.18,165.11c0-.16.03-.5.23-.82h0c.12-2.7.2-5.46,1.45-8.39,1.25-2.94,8.34-15.81,8.34-15.81,0,0-8.2,14.24-9.09,16.34-.89,2.1-1.69,9.39-1.69,9.39l.75.59c-.01-.74,0-1.16.02-1.29Z"/>
          <g>
            <path class="cls-5" d="m66.01,205.02h0s0,0-.01,0c0,0,0,0,.01,0Z"/>
            <path class="cls-5" d="m66,205.03c-.15.06-.31.12-.48.19.16-.06.32-.13.48-.19Z"/>
            <path class="cls-5" d="m250.5,76.9s-.73-17.85-2.79-28.11c-2.06-10.26-5.46-20.59-7.47-23.63-.02-.02-.04-.05-.05-.07-.96-.29-1.75.02-2.91.74-2.04,1.26-87.59,51.88-117.37,68.9-4.15,2.37-8.73,7.36-11.79,14.38-3.18,7.3-25.3,50.75-25.3,50.75,0,0-.71,1.79-1.87,3.04-1.16,1.26-18.19,17.94-18.75,19.01-.56,1.07-10.44,3-12.12,3.33-1.14.22-3.37-.06-5.17-.44-.01.02-.02.04-.03.06-.84,1.45-3.41,5.68-6.53,5.22-3.12-.46-10.62-4.3-14.28-6.75-3.66-2.46-10.05-6.36-10.64-11.15-.6-4.8-.43-7.04-.43-7.04,0,0,0-.02,0-.06-1.76-2.33-3.41-4.92-4.52-7.12-.43,3.25-.57,6.82-.57,6.82,0,0-1.61,1.61-1.61,2.7s-1.22,7.65,3.89,14.64c5.1,6.99,16.06,12.77,24.1,17.52,8.05,4.75,20.11,8.12,23.9,7.72,2.12-.23,5.13-1.26,7.36-2.13l4.05-14.46s2.95-7.65,11.72-13.06c8.77-5.4,13.83-.77,13.83-.77l102.49-59.6s2.95-7.51,10.53-11.65c7.58-4.14,11.51-1.61,11.51-1.61l30.56-18.7c0,.08,0,.17.01.26l-30.58,18.71-.13-.08s-1.17-.72-3.39-.72c-2.38,0-5.03.79-7.88,2.35-7.41,4.05-10.39,11.46-10.42,11.53l-.03.08-102.71,59.73-.13-.12s-2-1.79-5.55-1.79c-2.52,0-5.21.87-7.99,2.59-8.6,5.3-11.6,12.86-11.62,12.92l-3.92,14c.06-.02.11.05.14.2.82-.32,1.51-.61,1.95-.81.71-2.17,2.58-6.99,6.76-13.39,5.75-8.82,12.64-11.68,17.63-9.98,3.93,1.34,3.8,7.23,3.57,9.67l97.54-57.85h.75c.65-2.57,1.85-6.3,4.01-10.72,4.18-8.58,12.18-14.11,18.06-13.22,4.49.68,4.81,5.81,4.72,8.19,1.83-1.25,15.24-10.44,18.01-12.25,2.98-1.94,10.45-6.98,10.99-9.23.55-2.25.18-10.63.18-10.63l.3-7.91Zm-7.58-5.94c-2.31,1.29-109.09,64.87-109.09,64.87,0,0-1.76.57-3.19-.46,1.22.45,2.43.06,2.43.06,0,0,106.77-63.58,109.09-64.87,2.31-1.29,1.48-4.04,1.48-4.04,0,0-2.97-13.69-3.86-18.71-.17-.97-.54-1.6-1.02-1.98.82.26,1.51.94,1.77,2.39.89,5.01,3.86,18.71,3.86,18.71,0,0,.84,2.75-1.48,4.04Zm-1.04-31.35l.14.24-124.14,73.12-.14-.24,124.13-73.12ZM81.89,169.35l-15.83,11.98,17.13-15.4,35.68-46.77s.79,11.48-.16,18.18c-.95,6.7-6.36,9.36-9.55,11.88-3.19,2.53-27.27,20.13-27.27,20.13Zm164.6-94.55v3.99l-104.31,62.29-43.32,25.94,42.5-27.98,105.13-64.24v-.8l.19.68-.19.12Zm-148.77,113.56l-.14-.24,95.55-56.45.14.24-95.55,56.45Z"/>
          </g>
          <g>
            <path class="cls-38" d="m69.85,112.63c-9.06-5.12-16.08-11.02-19.93-15.97-.02.03-.03.05-.03.05l-20.35,32.01s-.11.11-.29.31c0,0-3.34,6.42,18,19.61,21.34,13.2,32.69,11.43,32.69,11.43l17.22-34.48s-15.62-6.37-27.3-12.96Z"/>
            <path class="cls-46" d="m69.46,113.32c-8.14-4.6-15.16-10.12-19.47-15.3l-19.22,30.24.3.96c.52,1.02,1.09,4.44,19.97,16.11,16.63,10.28,21.35,11.03,25.57,11.84l2.1.11c.43,0,1.68-.24,1.91-.26l15.44-31.03c-3.34-1.39-16.5-6.98-26.6-12.68Z"/>
            <path class="cls-36" d="m86.98,141.31c-.96-2.89-4.52-6.36-7.95-7.74-.96-.39-1.81-.57-2.51-.57h0c-1.8,0-2.65,1.22-1.95,3.29.96,2.89,4.52,6.36,7.95,7.74.96.39,1.81.57,2.51.57,1.8,0,2.64-1.21,1.95-3.29Zm-1.28,1.67c-.06.08-.29.17-.67.17s-1.01-.08-1.96-.47c-3.03-1.23-6.29-4.36-7.12-6.86-.24-.73-.17-1.11-.1-1.21.06-.09.29-.17.67-.17h0c.37,0,1.01.08,1.96.47,3.02,1.22,6.29,4.36,7.12,6.86.24.73.17,1.11.1,1.21Z"/>
            <path class="cls-38" d="m115.41,116.92s3.59-2.74,3.48,1.46c-.11,4.2-.47,12.08-.88,15.04-.41,2.96-1.36,6.05-5.23,9.15-3.87,3.1-29.68,23.55-29.68,23.55l9.18-20.1s7.3-15.06,9.34-18.38c2.04-3.32,13.79-10.72,13.79-10.72Z"/>
            <g>
              <path class="cls-46" d="m92.95,157.29c2.59-2.06,5.39-4.28,8.05-6.38v-20.53c-2.82,5.29-7.94,15.86-8,15.97l-.05.12v10.83Z"/>
              <path class="cls-46" d="m117.82,116.93s-.09-.09-.28-.09c-.51,0-1.28.44-1.65.71l-.03.02-.03.02c-3.23,2.03-11.94,7.88-13.54,10.47-.1.16-.22.36-.34.58v21.52c4.79-3.8,8.96-7.11,10.33-8.21,3.68-2.95,4.55-5.89,4.93-8.64.41-2.9.77-10.63.88-14.95.02-1.04-.21-1.36-.28-1.43Z"/>
            </g>
            <g class="cls-58">
              <path class="cls-42" d="m48.09,117.36l12.47-9.75c-4.03-2.94-7.49-6.02-10.08-9.01l-2.39,18.75Z"/>
              <path class="cls-42" d="m49.44,98.89l-6.86,10.78c-.93,5.48-2.36,13.84-2.36,13.84l6.85-5.35,2.37-19.27Z"/>
            </g>
            <path class="cls-33" d="m51.03,145.34c16.63,10.28,21.35,11.03,25.57,11.84l2.1.11c.43,0,1.68-.24,1.91-.26l3.84-7.8c-4.29-3.5-12.54-9.75-21.35-14.5-10.55-5.69-24.01-11.87-24.01-11.87-3.62.5-8.32,5.39-8.32,5.39l.3.96c.52,1.02,1.09,4.44,19.97,16.11Z"/>
            <path class="cls-36" d="m73.61,136.63s-6.86,8-6.5,9.63c.36,1.63,8.39,6.25,11.09,6.33,2.7.07,8.48-6.71,8.5-7.83.03-1.12-4.84-8.32-13.09-8.13Z"/>
            <path class="cls-8" d="m49.99,98.02l-19.22,30.24.3.96c.3.59.62,2,4.55,5.37,6.75-7.04,17.71-15.99,33.39-21.53-7.94-4.54-14.79-9.96-19.02-15.04Z"/>
          </g>
          <path class="cls-5" d="m129.73,133.76c-1.22-3.39-4.05-19.08-4.05-20.56s.84-2.83,2.89-3.98c2.06-1.16,106.8-62.48,106.8-62.48,0,0,2.52-1.38,4.2-.48-1.64-1.41-4.6.21-4.6.21,0,0-104.74,61.33-106.8,62.48-2.06,1.16-2.89,2.51-2.89,3.99s2.83,17.16,4.05,20.56c.38,1.07.97,1.69,1.59,2.05-.47-.38-.9-.94-1.2-1.78Z"/>
          <path class="cls-38" d="m243.64,66.51s-2.97-13.69-3.86-18.71c-.14-.8-.42-1.36-.78-1.75-1.63-.41-3.64.69-3.64.69,0,0-104.74,61.33-106.8,62.48-2.06,1.16-2.89,2.51-2.89,3.98s2.83,17.16,4.05,20.56c.26.73.62,1.26,1.02,1.63,1.18.39,2.32.02,2.32.02,0,0,106.77-63.58,109.09-64.87,2.31-1.29,1.48-4.04,1.48-4.04Z"/>
          <g>
            <path class="cls-46" d="m164.28,90.2l4.45,20.78c12.55-7.42,26.51-15.66,38.81-22.92l-4.4-20.59c-12.34,7.22-26.36,15.43-38.85,22.74Z"/>
            <path class="cls-46" d="m129.35,110.61c-1.87,1.05-2.08,1.99-2.08,2.59.03,1.48,2.42,15.59,3.55,18.74.1.29.23.53.38.73.1.01.21.02.32.02h0c.22,0,.42-.03.54-.05,2.35-1.4,16.55-9.79,33.97-20.09l-4.45-20.79c-17.56,10.28-31.48,18.41-32.23,18.83Z"/>
            <path class="cls-46" d="m242.12,65.92l-.02-.06v-.06c-.14-.56-3-12.73-3.88-17.71-.04-.2-.08-.37-.14-.53-.77.04-1.63.42-1.93.58-1.58.92-14.24,8.34-30.32,17.75l4.4,20.58c17.06-10.07,30.34-17.9,31.16-18.35,1.11-.62.8-1.95.73-2.19Z"/>
          </g>
          <path class="cls-37" d="m69.57,190.76l-8.13,3.62s-2.98,1.41-10.31-.24c-6.8-1.53-10.56-2.94-11.5-3.32-.27.05-.55.08-.82.08-.2,0-.4-.01-.59-.05-3.37-.5-11.02-4.47-14.6-6.88-.27-.18-.55-.37-.84-.56-3.5-2.32-8.64-5.74-9.91-10.02-1.38-1.83-4.18-5.77-4.98-8.64,0,0-1.61,1.61-1.61,2.7s-1.22,7.65,3.89,14.64c5.1,6.99,16.06,12.77,24.1,17.52,8.05,4.75,20.11,8.12,23.9,7.72,3.11-.33,8.13-2.41,9.81-3.13.71-2.17,2.58-6.99,6.76-13.39.08-.13.17-.25.25-.38l-5.41.31Z"/>
          <path class="cls-35" d="m44.15,182.67c-3.98-1.97-11.3-5.93-15.6-8.47-4.45-2.63-13.08-8.56-14.36-9.37-.21-.14-.39-.22-.54-.26,0,.05,0,.09,0,.09,0,0-.16,2.25.43,7.04.6,4.79,6.99,8.7,10.64,11.15,3.66,2.46,11.16,6.29,14.28,6.75.89.13,1.74-.12,2.51-.58,1.6-1.25,2.81-3.26,3.34-4.17.84-1.45-.19-1.93-.71-2.19Z"/>
          <path class="cls-27" d="m41.7,188.5l.64-.21c.16-.16.31-.32.46-.49l-.16.05-.18-.79.7-.23.09.41c.09-.11.18-.22.26-.34l-.04-.18.22-.07c.11-.15.21-.3.31-.44l-.6.2-.18-.79.7-.23.16.7c.09-.13.17-.26.25-.38l-.09-.42.43-.14c.06-.1.12-.2.17-.29.03-.05.05-.09.07-.13l-.74.24-.18-.79,1.17-.38c0-.12-.03-.22-.07-.32l-1.17.38-.17-.79.72-.24c-.12-.07-.23-.12-.33-.17-.02-.01-.05-.03-.07-.04l-.39.13-.08-.36c-.12-.06-.25-.12-.37-.19l.14.65-.7.23-.18-.79.56-.19c-.13-.07-.27-.14-.41-.21l-.23.07-.05-.21c-.13-.06-.25-.13-.38-.19l.11.51-.71.23-.17-.79.42-.14c-.13-.07-.27-.14-.4-.21l-.08.03-.02-.08c-.12-.06-.25-.13-.38-.2l.08.38-.7.23-.17-.79.28-.09c-.24-.12-.48-.25-.72-.38l.06.26-.71.23-.17-.79.16-.05c-.19-.1-.38-.2-.57-.31l.03.14-.7.23-.18-.79h.05c-.15-.09-.29-.17-.44-.25v.04s-.7.23-.7.23l-.16-.73c-.15-.08-.31-.17-.46-.25l-.64.21-.14-.64c-.19-.1-.38-.21-.57-.31l-.55.18-.12-.55c-.23-.13-.45-.25-.68-.38l-.46.15-.1-.47c-.13-.07-.25-.14-.38-.21l.17.78-.7.23-.18-.79.7-.23c-.13-.07-.26-.14-.39-.22l-.39.13-.09-.4c-.13-.07-.25-.14-.38-.22l.16.72-.7.23-.18-.79.64-.21c-.13-.07-.25-.14-.38-.22l-.33.11-.08-.34c-.13-.08-.26-.15-.38-.22l.15.66-.7.23-.18-.79.58-.19c-.13-.07-.25-.15-.38-.22l-.28.09-.07-.3c-.06-.03-.12-.07-.18-.1-.07-.04-.14-.08-.2-.12l.14.62-.71.23-.17-.79.55-.18c-.12-.07-.24-.15-.37-.22l-.25.09-.06-.28c-.13-.08-.25-.16-.39-.24l.14.62-.71.23-.17-.79.55-.18c-.12-.07-.24-.15-.36-.22l-.27.09-.07-.29c-.13-.08-.26-.16-.39-.25l.14.64-.71.23-.18-.79.58-.19c-.12-.08-.24-.15-.35-.23l-.29.1-.07-.33c-.13-.08-.26-.17-.39-.25l.15.68-.71.23-.17-.79.62-.2c-.12-.08-.23-.15-.35-.23l-.33.11-.09-.38c-.13-.09-.26-.17-.39-.25l.16.74-.7.23-.18-.79.66-.22c-.12-.08-.23-.15-.35-.23l-.39.13-.1-.44c-.24-.16-.48-.32-.72-.47l-.44.15-.12-.52c-.21-.14-.43-.28-.64-.42l-.51.17-.13-.59c-.19-.12-.37-.25-.55-.37l-.58.19-.15-.68c-.15-.1-.31-.21-.46-.31l-.65.21-.17-.77c-.13-.09-.26-.18-.39-.26v.04s-.7.23-.7.23l-.16-.73.11-.04c-.19-.13-.37-.25-.54-.36l.04.18-.71.23-.16-.73.24-.08c-.29-.2-.53-.35-.69-.46l.07.32-.7.23-.05-.21c0,.38,0,.93.03,1.68h.01s.16.73.16.73l-.13.04c0,.11.01.22.02.33l.18-.06.17.78-.29.1c0,.11.02.22.03.33l.34-.11.17.79-.44.14c.01.11.02.22.04.33l.47-.15.17.79-.55.18c.01.11.02.22.04.33l.59-.19.18.79-.63.21c.02.1.05.21.08.32l.63-.21.17.79-.54.18c.04.1.08.2.13.3l.49-.16.18.79-.3.1c.06.1.11.19.17.29l.2-.06.12.56c.15.22.31.43.48.64l-.04-.19.71-.23.17.79-.42.14c.08.09.16.18.24.26l.26-.08.1.48c.17.17.33.34.51.51l.65-.21.17.79-.15.05c.2.18.4.35.61.53l-.08-.36.71-.23.17.79-.4.13c.1.08.2.16.3.24l.17-.06.05.23c.13.1.27.21.4.31l-.14-.64.7-.23.18.79-.59.2c.1.08.21.16.32.24l.35-.11.1.44c.23.17.46.33.69.49l.47-.15.13.57c.2.13.39.26.57.39l.56-.18.15.66c.17.11.33.22.49.32l.63-.21.16.74c.13.09.26.17.4.26l.69-.23.17.77c.12.08.25.15.38.23h0s.71-.23.71-.23l.17.75c.14.08.28.16.43.25l.66-.22.15.68c.17.1.35.19.53.29l.58-.19.13.57c.22.12.45.24.68.35l.46-.15.1.43c.12.06.25.13.38.19l-.16-.72.71-.23.18.79-.64.21c.14.07.28.14.42.2l.29-.09.06.26c.13.06.25.12.37.18l-.12-.54.71-.23.18.79-.43.14c.15.07.29.14.44.2l.07-.02v.06c.14.06.26.11.38.17l-.07-.33.71-.23.18.79-.17.06c.19.08.38.16.56.24v-.08s.69-.23.69-.23l.14.64c.24.1.48.18.71.26l.41-.13.07.3c.12.04.24.08.36.12l-.12-.51.71-.23.17.79-.29.1c.24.07.47.12.69.17v-.05s.69-.23.69-.23l.08.37c.11,0,.22,0,.33-.01l-.1-.46.7-.23.12.55c.1-.03.21-.06.31-.11l-.12-.54.71-.23.1.44s.02-.01.03-.02c.08-.07.17-.14.25-.21l-.07-.32Zm.7-1.76l-.18-.79.71-.23.18.79-.71.23Zm1.3-2.46l.17.79-.71.23-.17-.79.71-.23Zm-.25-1.11l.18.79-.71.23-.18-.79.7-.23Zm-.77,1.44l.18.79-.71.23-.17-.79.7-.23Zm-.24-1.11l.17.79-.7.23-.17-.79.71-.23Zm-.6,2.22l-.7.23-.18-.79.7-.23.18.79Zm.35-3.33l.18.79-.7.23-.18-.79.71-.23Zm-.77,1.44l.17.79-.7.23-.18-.79.71-.23Zm-24.74-13.23l.17.79-.7.23-.18-.79.71-.23Zm-.78-.09l-.17-.79.71-.23.18.79-.71.23Zm1.02,1.19l.17.79-.7.23-.17-.79.7-.23Zm.06-1.21l.71-.23.17.79-.7.23-.18-.79Zm.95.87l.18.79-.71.23-.17-.79.7-.23Zm.25,1.1l.17.79-.71.23-.18-.79.71-.23Zm.06-1.21l.71-.23.18.79-.71.23-.17-.79Zm.18,2.31l.18.79-.7.23-.18-.79.71-.23Zm.06-1.21l.71-.23.18.79-.71.23-.18-.79Zm.95.87l.17.79-.7.23-.18-.79.7-.23Zm.06-1.21l.71-.23.18.79-.71.23-.18-.79Zm.18,2.31l.18.79-.71.23-.17-.79.71-.23Zm.06-1.21l.7-.23.18.79-.7.23-.18-.79Zm.95.87l.18.79-.71.23-.17-.79.7-.23Zm.07-1.21l.7-.23.18.79-.71.23-.17-.79Zm.18,2.31l.18.79-.71.23-.18-.79.71-.23Zm.06-1.21l.71-.23.17.79-.7.23-.18-.79Zm.95.87l.17.79-.7.23-.18-.79.71-.23Zm.25,1.11l.18.79-.7.23-.18-.79.7-.23Zm.06-1.21l.71-.23.17.79-.7.23-.18-.79Zm.18,2.31l.17.79-.7.23-.18-.79.71-.23Zm.06-1.21l.71-.23.18.79-.71.23-.17-.79Zm.95.87l.17.79-.7.23-.18-.79.71-.23Zm.06-1.21l.71-.23.17.79-.71.23-.18-.79Zm.19,2.31l.17.79-.71.23-.17-.79.71-.23Zm.06-1.21l.71-.23.18.79-.7.23-.18-.79Zm.95.87l.17.79-.7.23-.18-.79.71-.23Zm.06-1.21l.7-.23.18.79-.71.23-.17-.79Zm.18,2.31l.18.79-.71.23-.18-.79.71-.23Zm.06-1.21l.7-.23.18.79-.71.23-.18-.79Zm.95.87l.17.79-.7.23-.18-.79.71-.23Zm.06-1.21l.71-.23.17.79-.71.23-.17-.79Zm.18,2.31l.17.79-.71.23-.18-.79.71-.23Zm.06-1.21l.71-.23.18.79-.7.23-.18-.79Zm.95.88l.18.79-.71.23-.17-.79.7-.23Zm.06-1.21l.7-.23.18.79-.7.23-.17-.79Zm.18,2.31l.17.79-.7.23-.18-.79.71-.23Zm.06-1.21l.71-.23.17.79-.7.23-.18-.79Zm.95.88l.17.79-.7.23-.18-.79.71-.23Zm.06-1.21l.71-.23.18.79-.71.23-.18-.79Zm.18,2.31l.18.79-.71.23-.17-.79.71-.23Zm.06-1.21l.71-.23.18.78-.71.23-.18-.79Zm.95.87l.18.79-.71.23-.17-.79.71-.23Zm.06-1.21l.7-.23.18.79-.7.23-.18-.79Zm.18,2.31l.17.79-.7.23-.18-.79.7-.23Zm.06-1.21l.71-.23.17.78-.71.23-.18-.79Zm.95.87l.17.79-.7.23-.17-.79.7-.23Zm.06-1.21l.7-.23.18.79-.71.23-.18-.79Zm.18,2.31l.18.79-.71.23-.17-.79.71-.23Zm.06-1.21l.7-.23.18.78-.71.23-.17-.79Zm.77-1.44l.71-.23.17.79-.71.23-.18-.79Zm.18,2.31l.17.79-.7.23-.18-.79.71-.23Zm.06-1.21l.7-.23.18.79-.71.23-.17-.79Zm.95.87l.17.79-.71.23-.18-.79.71-.23Zm.06-1.21l.71-.23.18.79-.71.23-.17-.79Zm.18,2.31l.17.79-.7.23-.18-.79.71-.23Zm.06-1.21l.71-.23.17.79-.7.23-.18-.79Zm.95.87l.18.79-.71.23-.18-.79.7-.23Zm.06-1.21l.7-.23.18.79-.7.23-.18-.79Zm.18,2.31l.17.79-.71.23-.18-.79.71-.23Zm.06-1.21l.7-.23.18.79-.7.23-.17-.79Zm.95.87l.17.79-.71.23-.17-.79.71-.23Zm.06-1.21l.71-.23.17.79-.71.23-.18-.79Zm.18,2.31l.18.79-.71.23-.18-.79.7-.23Zm.06-1.21l.71-.23.18.79-.71.23-.17-.79Zm.95.87l.18.79-.71.23-.18-.79.71-.23Zm.06-1.21l.71-.23.18.79-.71.23-.18-.79Zm.18,2.31l.17.79-.7.23-.18-.79.71-.23Zm.06-1.21l.7-.23.17.79-.7.23-.17-.79Zm.95.87l.18.79-.71.23-.17-.79.7-.23Zm.06-1.21l.7-.23.17.79-.7.23-.17-.79Zm.95.88l.18.79-.71.23-.18-.79.71-.23Zm.25,1.1l.17.79-.7.23-.17-.78.7-.23Zm.06-1.21l.71-.23.18.79-.71.23-.18-.79Zm.95.87l.18.79-.71.23-.17-.78.7-.23Zm.52-2.54l.17.79-.71.23-.18-.79.71-.23Zm-.25-1.11l.18.79-.71.23-.18-.79.71-.23Zm-.77,1.44l.18.79-.71.23-.18-.79.71-.23Zm-.07-.32l-.7.23-.17-.79.7-.23.18.79Zm-.42-1.89l.18.79-.71.23-.17-.79.7-.23Zm-.77,1.44l.18.79-.71.23-.17-.79.7-.23Zm-.07-.32l-.7.23-.18-.79.71-.23.17.79Zm-.42-1.89l.18.79-.71.23-.17-.79.7-.23Zm-.77,1.44l.18.79-.71.23-.17-.79.7-.23Zm-.07-.32l-.71.23-.18-.79.71-.23.18.79Zm-.42-1.89l.18.79-.71.23-.17-.78.71-.23Zm-.77,1.44l.18.79-.7.23-.18-.79.71-.23Zm-.07-.32l-.7.23-.18-.79.71-.23.18.79Zm-.42-1.89l.17.79-.71.23-.18-.79.71-.23Zm-.77,1.44l.18.79-.7.23-.18-.79.7-.23Zm-.07-.32l-.71.23-.18-.79.71-.23.18.79Zm-.42-1.89l.17.79-.7.23-.17-.79.7-.23Zm-.77,1.44l.18.79-.7.23-.18-.79.7-.23Zm-.07-.32l-.71.23-.18-.79.71-.23.18.79Zm-.42-1.89l.17.79-.71.23-.17-.79.71-.23Zm-.77,1.44l.18.79-.7.23-.18-.78.7-.23Zm-.25-1.11l.18.79-.71.23-.17-.79.7-.23Zm-.77,1.44l.18.79-.71.23-.17-.79.7-.23Zm-.25-1.1l.18.79-.7.23-.18-.79.7-.23Zm-.25-1.11l.18.79-.71.23-.17-.79.7-.23Zm-.77,1.44l.18.79-.71.23-.18-.79.71-.23Zm-.25-1.1l.18.79-.7.23-.18-.79.7-.23Zm-.24-1.1l.18.79-.7.23-.18-.79.71-.23Zm-.77,1.44l.17.79-.71.23-.17-.79.71-.23Zm-.25-1.11l.18.79-.71.23-.18-.79.71-.23Zm-.25-1.1l.18.79-.71.23-.18-.79.7-.23Zm-.77,1.44l.18.79-.7.23-.18-.79.71-.23Zm-.25-1.11l.18.79-.7.23-.18-.79.7-.23Zm-.25-1.1l.18.79-.7.23-.18-.79.7-.23Zm-.77,1.44l.18.79-.71.23-.17-.79.7-.23Zm-.25-1.1l.17.79-.7.23-.18-.79.71-.23Zm-.25-1.11l.18.79-.71.23-.18-.79.7-.23Zm-.77,1.44l.18.79-.71.23-.18-.79.71-.23Zm-.25-1.11l.18.79-.71.23-.17-.79.71-.23Zm-.25-1.1l.18.79-.71.23-.18-.79.7-.23Zm-.77,1.44l.18.79-.7.23-.18-.79.7-.23Zm-.25-1.11l.18.79-.7.23-.18-.79.7-.23Zm-.25-1.1l.18.79-.7.23-.18-.79.7-.23Zm-.77,1.44l.18.79-.71.23-.18-.79.71-.23Zm-.25-1.1l.18.79-.71.23-.18-.79.71-.23Zm-.07-.32l-.71.23-.17-.79.7-.23.18.79Zm-.42-1.89l.18.79-.7.23-.18-.79.7-.23Zm-.77,1.44l.17.79-.71.23-.17-.79.7-.23Zm-.07-.32l-.71.23-.17-.79.71-.23.17.79Zm-.42-1.89l.18.79-.71.23-.18-.79.71-.23Zm-.77,1.44l.18.79-.71.23-.17-.79.7-.23Zm-.07-.32l-.7.23-.18-.79.71-.23.17.79Zm-.42-1.89l.17.79-.71.23-.17-.79.71-.23Zm-.77,1.44l.17.79-.7.23-.18-.79.71-.23Zm-.07-.32l-.71.23-.17-.79.7-.23.17.79Zm-.42-1.89l.17.79-.7.23-.18-.79.71-.23Zm-.77,1.44l.18.79-.71.23-.18-.79.7-.23Zm-.07-.32l-.7.23-.18-.79.71-.23.18.79Zm-.42-1.88l.17.77-.71.23-.17-.78.71-.23Zm-.77,1.43l.18.79-.7.23-.18-.79.71-.23Zm-.07-.32l-.71.23-.17-.78.71-.23.17.77Zm-.41-1.82l.16.73-.7.23-.16-.73.71-.23Zm-1.95-.48l.7-.23.16.73-.71.23-.16-.73Zm.4,1.78l-.16-.73.71-.23.16.73-.7.23Zm.24,1.09l-.17-.77.71-.23.17.78-.71.23Zm.25,1.11l-.18-.79.7-.23.18.79-.7.23Zm.24,1.11l-.17-.79.7-.23.18.79-.71.23Zm.25,1.1l-.18-.79.71-.23.17.79-.7.23Zm.25,1.1l-.18-.79.71-.23.18.79-.7.23Zm.07.32l.7-.23.18.79-.7.23-.17-.79Zm.42,1.89l-.18-.79.71-.23.18.79-.71.23Zm.77-1.44l-.17-.79.71-.23.18.79-.71.23Zm.25,1.1l-.18-.79.71-.23.17.79-.7.23Zm.07.32l.7-.23.18.79-.71.23-.17-.79Zm.42,1.89l-.17-.79.71-.23.17.79-.71.23Zm.77-1.44l-.17-.79.7-.23.18.79-.71.23Zm.07.32l.71-.23.18.79-.71.23-.18-.79Zm.42,1.89l-.17-.79.71-.23.18.79-.71.23Zm.77-1.44l-.18-.79.71-.23.17.79-.7.23Zm.25,1.1l-.17-.79.7-.23.18.79-.71.23Zm.25,1.1l-.18-.79.71-.23.17.79-.7.23Zm.77-1.44l-.17-.79.71-.23.17.79-.71.23Zm.25,1.1l-.18-.79.71-.23.17.79-.71.23Zm.07.32l.71-.23.18.79-.71.23-.18-.79Zm.42,1.89l-.17-.79.71-.23.17.79-.71.23Zm.77-1.44l-.18-.79.71-.23.18.79-.71.23Zm.07.32l.71-.23.18.79-.71.23-.17-.79Zm.42,1.89l-.18-.79.71-.23.17.79-.71.23Zm.77-1.44l-.18-.79.71-.23.17.79-.7.23Zm.07.32l.7-.23.18.79-.71.23-.17-.79Zm.42,1.89l-.17-.79.7-.23.18.79-.71.23Zm.77-1.44l-.17-.79.71-.23.17.79-.71.23Zm.07.32l.71-.23.17.79-.71.23-.17-.79Zm.42,1.89l-.18-.79.71-.23.17.79-.7.23Zm.77-1.44l-.18-.79.71-.23.18.79-.7.23Zm.07.32l.7-.23.18.79-.71.23-.17-.79Zm.42,1.89l-.18-.79.71-.23.18.79-.71.23Zm.77-1.44l-.17-.79.71-.23.18.79-.71.23Zm.07.32l.71-.23.18.79-.7.23-.18-.79Zm.42,1.89l-.17-.79.7-.23.17.79-.7.23Zm.77-1.44l-.18-.79.71-.23.18.79-.71.23Zm.07.32l.71-.23.18.79-.71.23-.17-.79Zm.42,1.89l-.17-.79.71-.23.18.79-.71.23Zm.77-1.44l-.18-.79.71-.23.18.79-.71.23Zm.07.32l.71-.23.17.79-.7.23-.18-.79Zm.42,1.89l-.18-.79.71-.23.18.79-.7.23Zm.77-1.44l-.18-.79.71-.23.18.79-.71.23Zm.25,1.11l-.17-.79.7-.23.18.79-.71.23Zm.77-1.44l-.18-.79.7-.23.17.79-.7.23Zm.25,1.11l-.18-.79.71-.23.17.79-.71.23Zm.24,1.1l-.17-.79.71-.23.17.79-.71.23Zm.77-1.44l-.17-.79.71-.23.18.79-.71.23Zm.25,1.1l-.18-.79.71-.23.17.79-.71.23Zm.25,1.11l-.17-.79.7-.23.18.79-.71.23Zm.77-1.44l-.18-.79.71-.23.18.79-.71.23Zm.07.32l.71-.23.18.79-.71.23-.17-.79Zm.42,1.89l-.17-.79.71-.23.17.79-.71.23Zm.77-1.44l-.18-.79.7-.23.18.79-.7.23Zm.07.32l.71-.23.18.79-.7.23-.18-.79Zm.42,1.89l-.17-.79.71-.23.17.79-.71.23Zm.77-1.44l-.18-.79.71-.23.18.79-.7.23Zm.24,1.11l-.17-.79.71-.23.17.79-.71.23Zm.77-1.44l-.18-.79.71-.23.17.79-.7.23Zm.07.32l.71-.23.17.79-.7.23-.18-.79Zm.42,1.89l-.18-.79.71-.23.18.79-.71.23Zm.77-1.44l-.18-.79.7-.23.18.79-.71.23Zm.25,1.11l-.18-.79.71-.23.18.79-.71.23Zm.77-1.44l-.18-.79.71-.23.17.79-.71.23Zm.25,1.1l-.18-.79.7-.23.17.79-.7.23Zm.77-1.44l-.18-.79.71-.23.18.79-.71.23Zm.07.32l.71-.23.18.79-.71.23-.17-.79Z"/>
          <g>
            <path class="cls-29" d="m92.22,150.99s-2.57,1.03-2.61,2.5c-.05,1.47-.14,5.55-.14,5.55,0,0-.05,1.36,1,1.11,1.05-.25,2.17-.74,2.17-.74,0,0,3.08,1.7,4.52,1.98,1.43.28,3.65.47,4.14-.37.49-.84.13-5.56-.12-7.3-.25-1.74-.47-3.31-2.19-4.2-1.73-.89-2.75-1.24-2.75-1.24,0,0-1.35-.44-2.4.42-1.05.86-.86,2.61-.86,2.61l-.75-.33Z"/>
            <path class="cls-15" d="m89.65,153.21c-.02.09-.04.18-.04.28-.05,1.47-.14,5.55-.14,5.55,0,0-.05,1.36,1,1.11,1.05-.25,2.17-.74,2.17-.74l.33-4.51s-1.97-1.01-3.32-1.69Z"/>
            <g>
              <path class="cls-15" d="m101.48,157.03c-.07-1.29-.2-2.57-.3-3.31-.13-.87-.24-1.69-.54-2.41-.7.3-1.89.64-3.1.71.13.13.24.26.33.4,1.17,1.78,1.1,2.95,1.2,5.51,1.86-.2,2.41-.9,2.41-.9Z"/>
              <path class="cls-15" d="m101.48,157.03s-.39,1.41-1.29,1.55c-.34.05-.74-.02-1.1-.13.04,1.35-.08,2.42-.22,3.17,1.08.06,2.12-.05,2.43-.59.28-.48.28-2.25.18-4Z"/>
            </g>
            <path class="cls-19" d="m98,157.98c.4,0,.75-.02,1.07-.06-.1-2.56-.03-3.73-1.2-5.51-.89-1.35-3.44-2.19-4.76-2.56-.22.74-.14,1.46-.14,1.46v3.58s-1.97-1.01-3.32-1.69c-.02.09-.04.18-.04.28-.05,1.47-.14,5.55-.14,5.55,0,0-.05,1.36,1,1.11,1.05-.25,2.17-.74,2.17-.74,0,0,3.08,1.7,4.52,1.98.51.1,1.11.19,1.71.22.14-.75.26-1.82.22-3.17-.59-.18-1.09-.47-1.09-.47Z"/>
          </g>
          <g>
            <path class="cls-29" d="m32.57,123.94l3.8-5.97c0-1.67-.08-4.43-.61-5.23-.77-1.18-2.85-2.67-2.85-2.67,0,0-1.22-.32-1.81.59-.59.91-1.04,5.56-1.13,7.6-.08,1.7.86,4,2.6,5.69Z"/>
            <path class="cls-19" d="m33.47,115.55c-.02-1.57-.75-2.09-.75-2.09l-2.01-1.6c-.39,1.78-.67,4.84-.73,6.39-.08,1.7.86,4,2.6,5.69l.91-1.43c0-2.66,0-6.04,0-6.96Z"/>
            <path class="cls-15" d="m35.17,119.86l-1.69-.71,2.42-.45.46-.73c0-1.44-.06-3.67-.41-4.78-.64.51-1.61,1.17-2.61,1.38.07.27.12.59.12.98.01.91.01,4.3,0,6.96l1.69-2.65Z"/>
          </g>
          <g class="cls-56">
            <path class="cls-47" d="m198.42,4.45h0s-.03.03-.05.05c-.02.02-.04.03-.07.05l-114.63,65.95c-.27.15-.72.19-1.01.08l-.49-.19s-.06-.03-.08-.04c-.02-.01-.04-.03-.06-.04h0c-.14.14-.1.3.14.4l.49.19c.29.11.74.08,1.01-.08L198.3,4.87c.2-.12.24-.28.12-.42Z"/>
            <path class="cls-47" d="m204.05,7.76h0s-.03.03-.05.05c-.02.02-.05.03-.07.05l-114.63,65.94c-.26.15-.71.19-1,.08l-.49-.19s-.06-.03-.08-.04c-.02-.01-.04-.03-.06-.04h0c-.14.14-.09.3.14.4l.49.19c.29.11.74.07,1-.08L203.92,8.18c.21-.12.24-.28.13-.42Z"/>
            <path class="cls-47" d="m209.98,11.2h0s0,0,0,0c-.02.02-.03.03-.05.05-.02.02-.05.04-.07.05l-114.63,65.95c-.27.15-.72.19-1,.08l-.49-.19s-.06-.03-.08-.04c-.02-.01-.04-.03-.06-.04h0c-.14.14-.1.3.14.4l.49.19c.29.11.74.07,1-.08L209.86,11.62c.21-.12.25-.28.12-.42Z"/>
            <path class="cls-47" d="m215.68,14.44h0s0,0,0,0c-.02.02-.03.04-.05.05-.02.02-.04.03-.07.05l-114.63,65.94c-.27.15-.72.19-1,.08l-.49-.19s-.06-.02-.08-.04c-.02-.01-.04-.03-.06-.04h0c-.14.14-.1.3.14.4l.49.19c.29.11.74.08,1-.08L215.55,14.85c.21-.12.24-.29.12-.42Z"/>
            <path class="cls-47" d="m221.03,17.58h0s-.03.03-.05.05c-.02.02-.04.04-.07.05l-114.63,65.94c-.27.15-.72.19-1,.08l-.49-.19s-.06-.03-.08-.04c-.02-.01-.04-.03-.06-.04h0c-.14.14-.1.31.14.4l.49.19c.29.11.74.07,1-.08L220.91,17.99c.21-.12.25-.29.13-.42Z"/>
            <path class="cls-47" d="m226.62,20.8h0s-.03.03-.05.05c-.02.02-.04.04-.07.05l-114.63,65.94c-.27.15-.72.19-1,.08l-.49-.19s-.06-.02-.08-.04c-.02-.01-.04-.03-.06-.04h0c-.14.14-.1.31.14.4l.49.19c.29.11.74.08,1-.08L226.49,21.22c.2-.12.24-.28.12-.41Z"/>
            <path class="cls-47" d="m232.2,24.03h0s-.03.04-.05.05c-.02.02-.04.03-.07.05l-114.63,65.94c-.27.15-.72.19-1,.08l-.49-.19s-.06-.03-.08-.04c-.02-.01-.04-.03-.06-.04h0c-.14.14-.09.31.14.4l.49.19c.29.11.74.08,1-.08L232.08,24.44c.21-.12.24-.29.13-.42Z"/>
          </g>
          <g>
            <path class="cls-5" d="m82.14,70.22L196.91,4.2c.27-.15.71-.17.98-.04l.39.19c.06.03.11.06.14.1.12-.14.08-.31-.14-.42l-.39-.19c-.28-.13-.72-.12-.98.04l-114.77,66.02c-.21.12-.24.28-.11.39.03-.03.06-.06.11-.08Z"/>
            <path class="cls-5" d="m87.76,73.53L202.53,7.51c.26-.15.71-.17.98-.04l.39.19c.06.03.11.06.14.1.12-.14.08-.31-.14-.42l-.39-.19c-.27-.13-.72-.11-.98.04l-114.77,66.02c-.21.12-.24.28-.11.39.03-.03.06-.05.11-.08Z"/>
            <path class="cls-5" d="m93.7,76.97L208.47,10.95c.26-.15.71-.17.98-.04l.39.19c.06.03.11.07.14.1.12-.14.08-.31-.14-.42l-.39-.19c-.27-.13-.72-.12-.98.04l-114.77,66.02c-.21.12-.24.28-.11.39.03-.03.06-.06.11-.08Z"/>
            <path class="cls-5" d="m99.39,80.21L214.16,14.19c.27-.15.71-.17.99-.04l.39.19c.06.03.11.07.15.1.12-.14.08-.31-.15-.42l-.39-.18c-.27-.13-.72-.12-.99.04l-114.77,66.02c-.21.12-.24.28-.1.39.03-.03.06-.05.1-.08Z"/>
            <path class="cls-5" d="m104.75,83.35L219.51,17.32c.27-.15.71-.17.99-.04l.39.19c.06.03.11.07.15.1.12-.14.08-.31-.15-.42l-.39-.19c-.28-.13-.72-.12-.99.04l-114.77,66.02c-.21.12-.24.28-.11.39.03-.03.06-.05.11-.08Z"/>
            <path class="cls-5" d="m110.33,86.57L225.1,20.55c.27-.15.71-.17.98-.04l.39.19c.06.03.11.06.14.1.12-.14.08-.31-.14-.42l-.39-.19c-.27-.13-.72-.12-.98.04l-114.77,66.02c-.21.12-.24.28-.11.39.03-.03.06-.06.11-.08Z"/>
            <path class="cls-5" d="m115.92,89.8L230.69,23.77c.27-.15.71-.17.98-.04l.39.19c.06.03.11.07.15.1.12-.14.07-.31-.15-.42l-.39-.18c-.28-.13-.72-.12-.98.04l-114.77,66.02c-.21.12-.24.28-.11.39.03-.03.06-.05.11-.08Z"/>
          </g>
          <g>
            <path class="cls-6" d="m118.72,147.66c0,1.32-.93,2.92-2.06,3.57-1.14.66-2.06.12-2.06-1.19s.92-2.91,2.06-3.57c1.14-.66,2.06-.12,2.06,1.19Z"/>
            <path class="cls-13" d="m118.72,147.66c0,1.32-.93,2.92-2.06,3.57-1.14.66-2.06.12-2.06-1.19s.92-2.91,2.06-3.57c1.14-.66,2.06-.12,2.06,1.19Z"/>
          </g>
          <g>
            <path class="cls-34" d="m120.17,146.38s-3.75,2.19-6.05,3.44c0,0-.8.35-.73.85.07.49.52.4,1.04.35.52-.05,3.91-1.84,4.99-2.5,1.08-.66,1.72-.97,1.65-1.74-.07-.78-.52-.66-.9-.4Z"/>
            <path class="cls-28" d="m118.1,148.31c1.67-.91,2.45-1.67,2.77-2.05-.18-.16-.46-.05-.7.12,0,0-3.75,2.19-6.05,3.44,0,0-.47.21-.66.53,1.47-.21,2.63-.93,4.64-2.03Z"/>
          </g>
          <path class="cls-37" d="m44.16,185.99c.12-.19.23-.37.34-.53-3.87-1.52-12.28-6.01-17.11-8.75-6.91-3.93-14.06-9.78-14.06-9.78l-.06.64s7.14,5.84,14.06,9.78c4.72,2.68,12.85,7.03,16.83,8.64Z"/>
          <path class="cls-37" d="m41.58,188.98c.17-.14.34-.28.5-.43-4.29-2.01-10.45-5.34-14.32-7.53-6.92-3.93-14.06-9.78-14.06-9.78l-.06.64s7.14,5.84,14.06,9.78c3.74,2.12,9.62,5.3,13.89,7.33Z"/>
          <path class="cls-29" d="m27.87,175.25c-6.91-3.93-14.06-9.78-14.06-9.78l-.47,1.45s7.14,5.84,14.06,9.78c4.83,2.74,13.23,7.24,17.11,8.75.14-.23.26-.43.36-.6.17-.3.26-.56.3-.78-3.78-1.44-12.38-6.04-17.29-8.82Z"/>
          <path class="cls-29" d="m42.08,188.54c.36-.34.69-.7,1-1.08-4.29-1.95-11.04-5.58-15.17-7.92-6.91-3.93-14.06-9.78-14.06-9.78l-.16,1.47s7.15,5.85,14.06,9.78c3.87,2.2,10.03,5.52,14.32,7.53Z"/>
          <g class="cls-55">
            <path class="cls-23" d="m69.57,190.76l-8.13,3.62s-2.98,1.41-10.31-.24c-6.8-1.53-10.56-2.94-11.5-3.32-.27.05-.55.08-.82.08-.2,0-.4-.01-.59-.05-3.37-.5-11.02-4.47-14.6-6.88-.27-.18-.55-.37-.84-.56-3.5-2.32-8.64-5.74-9.91-10.02-1.38-1.83-4.18-5.77-4.98-8.64,0,0-1.61,1.61-1.61,2.7,0,.32-.11,1.13-.12,2.29,3.94,6.21,10.74,12.08,17.3,16.39,7.93,5.21,22.46,10.38,28.64,11.44,6.18,1.07,11.15-1.07,11.15-1.07l11.71-6.06-5.38.31Z"/>
          </g>
          <path class="cls-25" d="m49.95,197.55c1.64.07,5.57.55,5.45,3.04-.13,2.73-4.77,2.64-10.98,1.46-6.21-1.18-12.07-4.49-12.07-4.49,0,0,8.77,3.75,15.31,3.35,0,0-.32-3.45,2.3-3.35Z"/>
          <path class="cls-32" d="m50.74,197.61c-.16.63-.28,1.67.42,2.18.88.63,2.75,1.16,4.15,1.32.05-.16.08-.33.09-.52.1-2.14-2.81-2.8-4.66-2.98Z"/>
          <path class="cls-32" d="m40.01,195.01c-.21-.16-.4-.24-.4-.24-2.62-.97-10.38-4.4-15.35-7.47-2.77-1.71-5.33-3.58-7.36-5.16.08.53.34,1.35,1.17,2.03,1.36,1.1,5.4,4.06,9.32,6.2,4.29,2.34,9.93,5.79,12.6,4.65Z"/>
          <g class="cls-61">
            <path class="cls-18" d="m40.01,195.01c-2.67,1.14-8.31-2.31-12.6-4.65-3.93-2.14-7.97-5.1-9.32-6.2-.83-.68-1.1-1.5-1.17-2.03-1.62-1.26-2.89-2.33-3.63-2.97-1.68-1.44-1.65-.24-1.12,1.49.53,1.73,3.31,5.62,9.72,9.87,6.41,4.26,11.23,6.38,14.29,7.36,3.06.98,4.14-.52,4.4-1.55.15-.63-.23-1.07-.55-1.32Z"/>
          </g>
          <path class="cls-25" d="m11.88,182.52s-4.52-4.83-5.08-8.73c-.56-3.9.39-1.58,1.34-.48.95,1.1,1.48,1.97,1.81,3.25.33,1.28-.08,2.71,1.93,5.96Z"/>
          <g>
            <path class="cls-37" d="m33,196.56l-14.36-8.65c-.11-.07-.23-.1-.34-.1-.24,0-.49.17-.5.56l-.07,2.79c-.01.4.25.88.59,1.08l14.29,8.52c.12.07.23.1.34.1.29,0,.5-.23.51-.56l.12-2.66c.02-.4-.24-.88-.58-1.09Z"/>
            <path class="cls-47" d="m32.78,196.92l-14.36-8.65c-.06-.04-.11-.04-.13-.04-.07,0-.08.11-.08.16l-.07,2.8c0,.25.18.58.39.71l14.29,8.52s.09.04.13.04c.08,0,.09-.1.09-.16l.12-2.66c.01-.25-.17-.58-.38-.71Z"/>
          </g>
          <g>
            <path class="cls-26" d="m57.39,156.64s-1.21-.69-2.53.39c-1.31,1.08-2.7,2.48-2.7,2.48,0,0-1.23,1.17.57,1.95,1.8.79,8.46,3.4,11.42,4.01,2.95.61,6.59-2.01,6.95-2.24.36-.23,1.51-1.34-.95-1.97-2.46-.62-10.43-3.48-12.76-4.63Z"/>
            <path class="cls-27" d="m70.09,162.14c-2.46-.62-10.4-3.46-12.82-4.65,0,0-.34-.18-.83-.18s-.98.19-1.43.55c-1.29,1.06-2.67,2.45-2.69,2.46,0,0-.15.15-.25.35.12.21.37.4.75.56,1.73.75,8.42,3.39,11.37,4,.28.06.58.09.89.09h0c1.13,0,3.04-.38,5.77-2.22.05-.04.09-.06.11-.08.09-.06.23-.18.34-.33-.16-.17-.5-.38-1.22-.56Z"/>
            <path class="cls-39" d="m52.07,160.68c.1-.21.25-.35.25-.35.02-.02,1.41-1.4,2.69-2.46.45-.37.93-.55,1.43-.55s.82.18.83.18c2.42,1.19,10.36,4.03,12.82,4.65.72.18,1.06.39,1.22.56.09-.13.15-.27.13-.4-.03-.18-.24-.52-1.35-.8-2.46-.63-10.4-3.46-12.82-4.65,0,0-.34-.19-.83-.19s-.98.19-1.43.56c-1.29,1.06-2.67,2.45-2.69,2.46,0,0-.4.39-.33.8.01.07.04.13.08.2Z"/>
            <g>
              <path class="cls-26" d="m60.95,164.31c.15.05.3.1.45.15,1.57-1.56,2.76-2.65,4.31-4.03-.15-.05-.3-.1-.46-.16-1.51,1.36-2.71,2.45-4.3,4.04Z"/>
              <path class="cls-26" d="m61.88,164.61c.16.05.31.09.45.14,1.55-1.54,2.62-2.51,4.29-4.01-.15-.05-.3-.1-.46-.15-1.64,1.46-2.7,2.44-4.29,4.03Z"/>
              <path class="cls-26" d="m60.05,164c.15.05.3.1.44.15,1.58-1.56,2.9-2.77,4.31-4.04-.15-.05-.3-.11-.45-.16-1.4,1.26-2.72,2.47-4.31,4.05Z"/>
              <path class="cls-26" d="m62.81,164.89c.16.05.32.09.47.13,1.51-1.5,2.44-2.35,4.26-3.98-.15-.05-.31-.1-.46-.15-1.72,1.54-2.7,2.43-4.27,4Z"/>
              <path class="cls-26" d="m64.82,165.31c.09,0,.17.01.26.01h0c.1,0,.22,0,.34-.01,1.27-1.26,2.04-1.96,3.99-3.7-.15-.04-.31-.09-.48-.14-1.96,1.75-2.69,2.42-4.11,3.84Z"/>
              <path class="cls-26" d="m63.78,165.14c.15.03.29.07.42.1.02,0,.05,0,.07,0,1.45-1.44,2.31-2.22,4.2-3.92-.15-.05-.31-.1-.47-.15-1.85,1.66-2.7,2.43-4.22,3.96Z"/>
              <path class="cls-26" d="m69.89,161.74c-1.93,1.73-2.63,2.36-3.77,3.48.24-.04.51-.1.79-.18.89-.87,1.65-1.55,3.45-3.16-.14-.05-.29-.1-.47-.14Z"/>
              <path class="cls-26" d="m59.14,163.69c.15.05.29.1.44.16,1.57-1.56,2.98-2.84,4.32-4.05-.15-.05-.3-.11-.45-.16-1.34,1.2-2.74,2.49-4.31,4.06Z"/>
              <path class="cls-26" d="m52.22,160.86c.09.09.21.17.35.25,1.46-1.42,3.32-3.13,4.36-4.08-.1-.04-.27-.1-.49-.12-1.08.98-2.84,2.6-4.22,3.95Z"/>
              <path class="cls-26" d="m52.99,161.31c.12.05.26.11.42.18,1.46-1.43,3.27-3.09,4.35-4.07-.15-.07-.29-.13-.42-.19-1.13,1.02-2.92,2.67-4.35,4.08Z"/>
              <path class="cls-26" d="m53.85,161.67c.14.05.28.11.43.17,1.43-1.41,3.16-3,4.34-4.06-.15-.06-.29-.12-.43-.18-1.21,1.1-2.93,2.68-4.33,4.07Z"/>
              <path class="cls-26" d="m58.25,163.36c.15.05.29.11.44.16,1.56-1.55,3.07-2.93,4.32-4.05-.15-.05-.3-.11-.45-.16-1.26,1.13-2.76,2.51-4.31,4.06Z"/>
              <path class="cls-26" d="m70.78,162.07c-1.48,1.33-2.22,1.99-2.9,2.64.38-.15.79-.34,1.22-.56.5-.46,1.13-1.01,2.01-1.81-.06-.08-.16-.17-.33-.27Z"/>
              <path class="cls-26" d="m54.72,162.02c.14.06.28.11.43.17.92-.9,2.31-2.22,4.33-4.05-.15-.06-.29-.12-.43-.17-2.05,1.85-3.43,3.17-4.32,4.06Z"/>
              <path class="cls-26" d="m55.59,162.36c.14.05.29.11.43.17,1.51-1.49,3.22-3.06,4.32-4.05-.15-.06-.29-.11-.44-.17-1.15,1.04-2.84,2.59-4.32,4.06Z"/>
              <path class="cls-26" d="m57.36,163.03c.14.06.29.11.44.16,1.55-1.53,3.13-2.98,4.32-4.05-.15-.06-.3-.11-.44-.17-1.22,1.1-2.78,2.53-4.31,4.06Z"/>
              <path class="cls-26" d="m56.47,162.7c.14.05.29.11.43.16,1.54-1.52,3.17-3.01,4.32-4.05-.15-.06-.3-.11-.44-.17-1.18,1.07-2.8,2.56-4.31,4.06Z"/>
            </g>
          </g>
          <g>
            <path class="cls-26" d="m31.58,148.7c.45.4,1.43,1.34,2.55.16,1.11-1.18,2.3-2.92,2.3-2.92,0,0,.66-1.21-.49-2.03-1.15-.82-3.45-2.69-4.66-4-1.21-1.31-2.92-3.87-2.92-3.87,0,0-.59-1.08-1.61.36-1.02,1.44-1.9,3.21-1.9,3.21,0,0-.69,1.51,0,2.43.69.92,5.64,5.7,6.73,6.66Z"/>
            <path class="cls-39" d="m32.24,148.46l-.06-.05c-1.17-1.03-6.05-5.75-6.7-6.62-.6-.8.02-2.17.03-2.18,0-.01.89-1.77,1.88-3.18.17-.24.33-.41.48-.52-.04-.01-.08-.02-.12-.02-.23,0-.52.23-.81.65-.99,1.41-1.88,3.17-1.88,3.18,0,.01-.62,1.39-.03,2.19.66.87,5.53,5.6,6.7,6.62l.06.05c.28.25.71.63,1.21.63.15,0,.29-.04.44-.1-.49,0-.92-.38-1.2-.63Z"/>
            <path class="cls-27" d="m33.96,148.7c1.09-1.15,2.26-2.87,2.26-2.87.02-.04.54-1.04-.42-1.73-1.19-.85-3.48-2.72-4.69-4.04-1.21-1.31-2.87-3.79-2.95-3.92,0,0-.1-.18-.27-.24-.15.11-.32.28-.48.52-.99,1.41-1.88,3.17-1.88,3.18,0,.01-.62,1.39-.03,2.18.65.87,5.53,5.6,6.7,6.62l.06.05c.28.25.71.63,1.2.63.17-.08.34-.21.51-.39Z"/>
            <g>
              <path class="cls-26" d="m29.98,138.72c-.09-.12-.18-.23-.27-.35-.81,1.12-2.11,3.02-3.27,4.78.1.1.2.2.3.31,1.14-1.72,2.42-3.6,3.24-4.73Z"/>
              <path class="cls-26" d="m30.46,139.32c-.09-.11-.18-.22-.27-.34-.83,1.12-2.06,2.92-3.24,4.68.1.1.2.2.3.3,1.14-1.71,2.38-3.51,3.21-4.64Z"/>
              <path class="cls-26" d="m31.47,140.45c-.1-.1-.2-.21-.3-.31-.76,1-1.83,2.51-3.2,4.53.1.1.2.2.31.3,1.37-2.02,2.44-3.53,3.19-4.53Z"/>
              <path class="cls-26" d="m29.51,138.09c-.09-.12-.18-.24-.26-.36-.78,1.1-2.13,3.08-3.31,4.88.09.1.19.2.3.31,1.14-1.74,2.48-3.71,3.28-4.84Z"/>
              <path class="cls-26" d="m36.28,144.68c-1.4,1.57-2.32,2.75-3.53,4.38.13.06.26.11.4.12.01,0,.03,0,.04,0,1.09-1.46,1.96-2.58,3.19-3.97,0-.16-.02-.34-.1-.52Z"/>
              <path class="cls-26" d="m29.05,137.46c-.09-.13-.18-.25-.26-.37-.76,1.09-2.19,3.2-3.35,4.98.08.09.18.2.29.33,1.19-1.84,2.56-3.85,3.32-4.94Z"/>
              <path class="cls-26" d="m28.16,136.16s0,0,0-.01c0,0-.1-.17-.27-.24-.03,0-.06.03-.09.05-.51.76-1.43,2.14-2.35,3.54-.07.13-.11.21-.11.21,0,0-.25.56-.28,1.16,1.14-1.77,2.47-3.75,3.12-4.71Z"/>
              <path class="cls-26" d="m28.6,136.82c-.1-.14-.19-.27-.25-.37-.69,1.01-2.1,3.1-3.28,4.91.03.17.09.33.19.48,1.19-1.84,2.61-3.96,3.34-5.02Z"/>
              <path class="cls-26" d="m30.95,139.9c-.09-.1-.18-.21-.28-.33-.98,1.31-2.36,3.33-3.21,4.59.1.1.2.2.3.3,1.12-1.67,2.33-3.42,3.19-4.57Z"/>
              <path class="cls-26" d="m35.5,143.89c-.11-.08-.22-.16-.33-.25-1.24,1.42-2.25,2.77-3.55,4.54.12.11.22.21.31.28,1.31-1.79,2.33-3.15,3.57-4.57Z"/>
              <path class="cls-26" d="m34.89,143.43c-.11-.08-.22-.17-.33-.26-1.13,1.31-2.15,2.69-3.47,4.52.11.1.21.2.31.29,1.33-1.85,2.36-3.24,3.49-4.55Z"/>
              <path class="cls-26" d="m34.3,142.95c-.11-.09-.22-.17-.33-.26-1.05,1.25-2.1,2.69-3.4,4.5.11.1.21.2.31.29,1.31-1.84,2.37-3.28,3.42-4.53Z"/>
              <path class="cls-26" d="m36.09,144.37c-.08-.09-.17-.18-.3-.27,0,0-.01,0-.02-.01-1.35,1.53-2.33,2.81-3.62,4.56.1.08.21.18.33.26,1.29-1.75,2.26-3.02,3.61-4.54Z"/>
              <path class="cls-26" d="m32.01,140.98c-.1-.1-.21-.2-.3-.29-.93,1.2-2.13,2.91-3.22,4.5.1.1.2.2.31.3,1.09-1.59,2.29-3.31,3.22-4.51Z"/>
              <path class="cls-26" d="m33.71,142.47c-.11-.09-.22-.18-.32-.27-1,1.21-2.07,2.69-3.35,4.49.1.1.21.2.31.29,1.28-1.82,2.36-3.31,3.36-4.52Z"/>
              <path class="cls-26" d="m32.57,141.49c-.11-.09-.21-.19-.31-.28-.96,1.21-2.13,2.87-3.25,4.49.1.1.2.2.31.3,1.12-1.62,2.3-3.29,3.26-4.5Z"/>
              <path class="cls-26" d="m33.14,141.98c-.11-.09-.21-.18-.32-.28-.97,1.2-2.08,2.75-3.29,4.49.1.1.21.2.31.3,1.22-1.75,2.34-3.31,3.3-4.51Z"/>
            </g>
          </g>
          <g class="cls-51">
            <path class="cls-24" d="m119.03,174.65l-.27-.08c2.02-7.06,2.68-26.93,2.75-36.46.07-9.59.07-25.61.07-25.77h.28c0,.16,0,16.18-.07,25.77-.07,9.54-.74,29.44-2.77,36.53Z"/>
          </g>
          <g>
            <path class="cls-48" d="m44.42,190.27s4.19-5.83,7.5-7.57c3.31-1.74,13.97-2.95,14.38-3.03.42-.08,1.09.17.64,1.12-.46.96-2.99,6.69-5.31,8.84-2.32,2.15-3.28,3.42-8.05,2.86-4.77-.56-9.17-2.22-9.17-2.22Z"/>
            <g>
              <path class="cls-21" d="m53.83,187.65c-.41,1.32-2.52,3.28-3.4,3.57l-.89-1.99-1.03-2.19s.72-.29,1.71-.5c0,0,3.07-.61,3.58.11.32.45.03,1,.03,1Z"/>
              <path class="cls-47" d="m51.28,190.04c0,1.06-.75,1.49-1.66.96-.92-.53-1.66-1.81-1.66-2.87s.74-1.48,1.66-.96c.91.53,1.66,1.81,1.66,2.87Z"/>
            </g>
            <g>
              <path class="cls-22" d="m63,184.68c-.79,2.54-4.85,6.32-6.55,6.88l-1.71-3.84-1.99-4.21s1.39-.56,3.3-.95c0,0,5.91-1.17,6.9.21.62.86.05,1.91.05,1.91Z"/>
              <path class="cls-47" d="m58.09,189.28c0,2.04-1.43,2.86-3.19,1.84-1.76-1.02-3.19-3.49-3.19-5.53s1.43-2.86,3.19-1.84c1.76,1.02,3.19,3.49,3.19,5.53Z"/>
            </g>
            <g>
              <path class="cls-11" d="m64.55,183.52c-.5,1.58-3.02,3.94-4.08,4.29l-1.07-2.39-1.24-2.62s.86-.35,2.06-.59c0,0,3.68-.73,4.3.13.39.54.03,1.19.03,1.19Z"/>
              <path class="cls-47" d="m61.49,186.38c0,1.27-.89,1.78-1.99,1.15-1.1-.63-1.99-2.18-1.99-3.44s.89-1.78,1.99-1.15c1.1.63,1.99,2.18,1.99,3.44Z"/>
            </g>
            <g class="cls-63">
              <path class="cls-9" d="m44.42,190.27s4.19-5.83,7.5-7.57c3.31-1.74,13.97-2.95,14.38-3.03.42-.08,1.09.17.64,1.12-.46.96-2.99,6.69-5.31,8.84-2.32,2.15-3.28,3.42-8.05,2.86-4.77-.56-9.17-2.22-9.17-2.22Z"/>
            </g>
          </g>
          <g>
            <path class="cls-10" d="m12.21,159.54c0-.65-.06-1.53-.15-2.51-1.18.1-2.11.43-2.11.43l.1,4.37.04,3.97c.46-.12,1.27-.7,2.16-1.5-.02-1.93-.03-3.78-.04-4.77Z"/>
            <path class="cls-48" d="m7.88,164.76s3.29,5.02,4.43,6.15c0,0-.07-8.75-.09-11.37-.02-2.22-.65-7.12-.98-9.11-.87,1.31-1.55,2.46-1.87,3.25-1.15,2.86-1.49,11.08-1.49,11.08Z"/>
            <path class="cls-47" d="m11.61,163.85c-.5,1.97-1.54,2.56-2.31,1.31-.77-1.25-.98-3.86-.48-5.83.5-1.97,1.54-2.56,2.3-1.31.77,1.25.98,3.86.48,5.83Z"/>
            <g class="cls-66">
              <path class="cls-12" d="m7.88,164.76s3.29,5.02,4.43,6.15c0,0-.07-8.75-.09-11.37-.02-2.22-.65-7.12-.98-9.11-.87,1.31-1.55,2.46-1.87,3.25-1.15,2.86-1.49,11.08-1.49,11.08Z"/>
            </g>
          </g>
          <g>
            <path class="cls-44" d="m246.49,69.53v18.21l3.73-2.37c0-.36-.02-.57-.02-.57l.3-7.91s-.2-4.79-.67-10.83l-2.76,1.98s-.65.39-.58,1.48Z"/>
            <path class="cls-48" d="m246.49,78.79l3.98-2.61c-.04-.83-.11-2.32-.23-4.23l-3.75,2.54v4.3Z"/>
            <polygon class="cls-48" points="247.31 82.06 247.31 85.3 250.25 83.31 250.38 80 247.31 82.06"/>
          </g>
          <g>
            <path class="cls-43" d="m124.97,163.42c0,.22-.16.5-.36.62l-2.38,1.38c-.2.11-.36.02-.36-.21v-.5c0-.23.16-.51.36-.62l2.38-1.38c.2-.11.36-.02.36.21v.5Z"/>
            <path class="cls-49" d="m125.39,163.61c0,.23-.16.51-.36.62l-2.39,1.37c-.19.12-.36.02-.36-.2v-.5c0-.23.16-.51.36-.62l2.39-1.38c.19-.11.36-.02.36.21v.5Z"/>
          </g>
          <g>
            <path class="cls-43" d="m194.59,123.24c0,.22-.16.5-.36.62l-2.38,1.38c-.2.11-.36.02-.36-.21v-.5c0-.23.16-.51.36-.62l2.38-1.37c.2-.11.36-.02.36.2v.5Z"/>
            <path class="cls-49" d="m195.01,123.43c0,.23-.16.5-.36.62l-2.39,1.38c-.19.11-.36.02-.36-.21v-.5c0-.23.16-.51.36-.62l2.39-1.38c.2-.11.36-.02.36.21v.5Z"/>
          </g>
          <g>
            <path class="cls-43" d="m244.97,93.06c0,.22-.16.5-.36.62l-2.38,1.38c-.2.11-.36.02-.36-.21v-.5c0-.23.16-.51.36-.62l2.38-1.38c.2-.11.36-.02.36.21v.5Z"/>
            <path class="cls-49" d="m245.39,93.25c0,.23-.16.51-.36.62l-2.38,1.38c-.19.11-.36.02-.36-.21v-.5c0-.23.16-.51.36-.62l2.38-1.38c.2-.11.36-.02.36.21v.5Z"/>
          </g>
        </g>
      </g>
    </g>
  </g>
</svg>