<?xml version="1.0" encoding="UTF-8"?>
<svg xmlns="http://www.w3.org/2000/svg" xmlns:xlink="http://www.w3.org/1999/xlink" viewBox="0 0 189.89 138.1">
  <defs>
    <style>
      .cls-1, .cls-2, .cls-3, .cls-4, .cls-5, .cls-6, .cls-7, .cls-8, .cls-9, .cls-10, .cls-11, .cls-12, .cls-13, .cls-14, .cls-15, .cls-16, .cls-17, .cls-18, .cls-19, .cls-20, .cls-21, .cls-22, .cls-23, .cls-24, .cls-25, .cls-26, .cls-27, .cls-28, .cls-29, .cls-30, .cls-31, .cls-32, .cls-33, .cls-34, .cls-35, .cls-36, .cls-37, .cls-38, .cls-39, .cls-40, .cls-41, .cls-42, .cls-43, .cls-44, .cls-45, .cls-46, .cls-47, .cls-48 {
        stroke-width: 0px;
      }

      .cls-1, .cls-6, .cls-10, .cls-49 {
        opacity: .2;
      }

      .cls-1, .cls-10, .cls-24, .cls-46 {
        fill: #fff;
      }

      .cls-1, .cls-17, .cls-24 {
        mix-blend-mode: screen;
      }

      .cls-2 {
        fill: url(#linear-gradient-8);
      }

      .cls-2, .cls-3, .cls-4, .cls-6, .cls-8, .cls-9, .cls-50, .cls-13, .cls-14, .cls-15, .cls-16, .cls-18, .cls-19, .cls-51, .cls-49, .cls-26 {
        mix-blend-mode: multiply;
      }

      .cls-52 {
        filter: url(#luminosity-noclip-3);
      }

      .cls-53 {
        filter: url(#luminosity-noclip-5);
      }

      .cls-3 {
        fill: url(#linear-gradient-12);
      }

      .cls-4 {
        fill: url(#linear-gradient-14);
      }

      .cls-5 {
        fill: #c5d0d3;
        opacity: .7;
      }

      .cls-54 {
        mask: url(#mask);
      }

      .cls-7 {
        fill: url(#linear-gradient);
      }

      .cls-55 {
        filter: url(#luminosity-noclip);
      }

      .cls-8 {
        fill: url(#linear-gradient-10);
      }

      .cls-8, .cls-9, .cls-15, .cls-16, .cls-17, .cls-51 {
        opacity: .3;
      }

      .cls-9 {
        fill: url(#linear-gradient-11);
      }

      .cls-11 {
        fill: url(#linear-gradient-13);
      }

      .cls-12 {
        fill: url(#linear-gradient-15);
      }

      .cls-50, .cls-14, .cls-19, .cls-24 {
        opacity: .1;
      }

      .cls-13 {
        opacity: .15;
      }

      .cls-14 {
        fill: url(#linear-gradient-7);
      }

      .cls-16 {
        fill: url(#linear-gradient-6);
      }

      .cls-17 {
        fill: url(#linear-gradient-9);
      }

      .cls-18 {
        opacity: .5;
      }

      .cls-20 {
        fill: url(#linear-gradient-4);
      }

      .cls-21 {
        fill: url(#linear-gradient-2);
      }

      .cls-22 {
        fill: url(#linear-gradient-3);
      }

      .cls-23 {
        fill: url(#linear-gradient-5);
      }

      .cls-56 {
        isolation: isolate;
      }

      .cls-57 {
        fill: none;
        stroke: #d42227;
        stroke-miterlimit: 10;
        stroke-width: .34px;
      }

      .cls-26 {
        opacity: .4;
      }

      .cls-58 {
        mask: url(#mask-3);
      }

      .cls-59 {
        mask: url(#mask-2);
      }

      .cls-60 {
        mask: url(#mask-5);
      }

      .cls-61 {
        mask: url(#mask-4);
      }

      .cls-62 {
        mask: url(#mask-1);
      }

      .cls-27 {
        fill: #5f5e5d;
      }

      .cls-28 {
        fill: #343433;
      }

      .cls-29 {
        fill: #2d3537;
      }

      .cls-30 {
        fill: #555e61;
      }

      .cls-31 {
        fill: #3b4447;
      }

      .cls-32 {
        fill: #39464a;
      }

      .cls-33 {
        fill: #1b2628;
      }

      .cls-34 {
        fill: #3d4b4f;
      }

      .cls-35 {
        fill: #364047;
      }

      .cls-36 {
        fill: #141c1e;
      }

      .cls-37 {
        fill: #212020;
      }

      .cls-38 {
        fill: #231f20;
      }

      .cls-39 {
        fill: #dfe6ea;
      }

      .cls-40 {
        fill: #dad9d8;
      }

      .cls-41 {
        fill: #cdcccb;
      }

      .cls-42 {
        fill: #bd1e2d;
      }

      .cls-43 {
        fill: #b3b2b1;
      }

      .cls-44 {
        fill: #303e42;
      }

      .cls-45 {
        fill: #91908f;
      }

      .cls-47 {
        fill: #e3e3e4;
      }

      .cls-48 {
        fill: #f09041;
      }
    </style>
    <linearGradient id="linear-gradient" x1="75.34" y1="114.78" x2="74.89" y2="121.5" gradientUnits="userSpaceOnUse">
      <stop offset="0" stop-color="#d0d2d4"/>
      <stop offset="1" stop-color="#86898b"/>
    </linearGradient>
    <linearGradient id="linear-gradient-2" x1="75.42" y1="120.7" x2="75.42" y2="112.44" xlink:href="#linear-gradient"/>
    <linearGradient id="linear-gradient-3" x1="161.4" y1="64.75" x2="160.95" y2="71.47" xlink:href="#linear-gradient"/>
    <linearGradient id="linear-gradient-4" x1="161.47" y1="70.68" x2="161.47" y2="62.41" xlink:href="#linear-gradient"/>
    <linearGradient id="linear-gradient-5" x1="161.4" y1="64.75" x2="160.95" y2="71.47" xlink:href="#linear-gradient"/>
    <linearGradient id="linear-gradient-6" x1="125.56" y1="68.27" x2="135.86" y2="84.35" gradientUnits="userSpaceOnUse">
      <stop offset="0" stop-color="#d9d9d9"/>
      <stop offset="1" stop-color="#000"/>
    </linearGradient>
    <linearGradient id="linear-gradient-7" x1="43.42" y1="119.67" x2="-3.89" y2="86.29" gradientUnits="userSpaceOnUse">
      <stop offset="0" stop-color="#fff"/>
      <stop offset="1" stop-color="#000"/>
    </linearGradient>
    <filter id="luminosity-noclip" x="3.55" y="21.05" width="178.43" height="97.24" color-interpolation-filters="sRGB" filterUnits="userSpaceOnUse">
      <feFlood flood-color="#fff" result="bg"/>
      <feBlend in="SourceGraphic" in2="bg"/>
    </filter>
    <filter id="luminosity-noclip-2" x="3.55" y="-8522.22" width="178.43" height="32766" color-interpolation-filters="sRGB" filterUnits="userSpaceOnUse">
      <feFlood flood-color="#fff" result="bg"/>
      <feBlend in="SourceGraphic" in2="bg"/>
    </filter>
    <mask id="mask-1" x="3.55" y="-8522.22" width="178.43" height="32766" maskUnits="userSpaceOnUse"/>
    <linearGradient id="linear-gradient-8" x1="175.51" y1="15.53" x2="14.69" y2="110.4" gradientUnits="userSpaceOnUse">
      <stop offset="0" stop-color="#666"/>
      <stop offset=".15" stop-color="#333"/>
      <stop offset=".72" stop-color="#000"/>
      <stop offset=".82" stop-color="#fff"/>
      <stop offset="1" stop-color="#000"/>
    </linearGradient>
    <mask id="mask" x="3.55" y="21.05" width="178.43" height="97.24" maskUnits="userSpaceOnUse">
      <g class="cls-55">
        <g class="cls-62">
          <path class="cls-2" d="m180.98,24.76s-.62-1.51-2-3.71c-.04.52-.18,1.02-.48,1.46-4.15,6.11-21.47,17.47-21.47,17.47.09.05.13.09.13.09,0,0-24.83,15.9-34.52,22.05-9.69,6.15-34.15,20.38-34.15,20.38.06-.12.12-.23.18-.35l-1.03.75-4.47,1.45c-1.47,1.68-4.14,4.37-8.39,7.47,0,0-1.4,1.14-3.81,2.87-2.86,2.06-6.03,4.18-7.83,5.22-3.32,1.92-7.73,4.71-8.68,6.88,0,0-4.86,3.1-9.49,1.11,0,0-3.81-1.95-7.72-2.96-3.91-1-9.82-2.66-15.99-6.52-6.17-3.86-8.42-7.32-9.17-8.52-.75-1.2-1.84-2.73-2.83-3.32,0,0-.82-2.43-2.41-4.78-.55,1.26-1.09,2.54-1.64,3.68-1.34,2.78-1.64,4.9-1.65,6.33h0c1.41,5.93,4.8,13.41,13.55,18.69,8.8,5.31,15.58,8.04,29.48,7.77,8.19-.17,13.52-1.84,16.51-3.18,1.05-2.53,2.54-5,4.31-7.19,0,0,0,0,0,0,0,0,0,0,0-.01,4.42-6.45,14.56-12.07,14.56-12.07l81.27-52.66s11.45-7.84,16.14-13.66c1.02-1.27,1.87-2.45,2.58-3.55h0c-.53-.76-1-1.19-1-1.19Z"/>
        </g>
      </g>
    </mask>
    <linearGradient id="linear-gradient-9" x1="175.51" y1="15.53" x2="14.69" y2="110.4" gradientUnits="userSpaceOnUse">
      <stop offset="0" stop-color="#fff"/>
      <stop offset=".15" stop-color="#fff"/>
      <stop offset=".72" stop-color="#fff"/>
      <stop offset=".82" stop-color="#fff"/>
      <stop offset="1" stop-color="#fff"/>
    </linearGradient>
    <linearGradient id="linear-gradient-10" x1="122.23" y1="73.49" x2="119.12" y2="68.88" xlink:href="#linear-gradient-7"/>
    <linearGradient id="linear-gradient-11" x1="155.15" y1="52.61" x2="152.05" y2="48" xlink:href="#linear-gradient-7"/>
    <filter id="luminosity-noclip-3" x="5.57" y="75.2" width="6.24" height="22.17" color-interpolation-filters="sRGB" filterUnits="userSpaceOnUse">
      <feFlood flood-color="#fff" result="bg"/>
      <feBlend in="SourceGraphic" in2="bg"/>
    </filter>
    <filter id="luminosity-noclip-4" x="5.57" y="-8522.22" width="6.24" height="32766" color-interpolation-filters="sRGB" filterUnits="userSpaceOnUse">
      <feFlood flood-color="#fff" result="bg"/>
      <feBlend in="SourceGraphic" in2="bg"/>
    </filter>
    <mask id="mask-3" x="5.57" y="-8522.22" width="6.24" height="32766" maskUnits="userSpaceOnUse"/>
    <linearGradient id="linear-gradient-12" x1="8.78" y1="79.36" x2="7.01" y2="91.58" xlink:href="#linear-gradient-7"/>
    <mask id="mask-2" x="5.57" y="75.2" width="6.24" height="22.17" maskUnits="userSpaceOnUse">
      <g class="cls-52">
        <g class="cls-58">
          <path class="cls-3" d="m7.96,97.37s1.64-9.33,1.74-10.34c.1-1.02-1.92-6.87,2.11-11.83-2.76.5-4.45,5.57-6.24,9.49.03,2.85.34,9.21,2.39,12.68Z"/>
        </g>
      </g>
    </mask>
    <linearGradient id="linear-gradient-13" x1="8.78" y1="79.36" x2="7.01" y2="91.58" gradientUnits="userSpaceOnUse">
      <stop offset="0" stop-color="#fff"/>
      <stop offset="1" stop-color="#fff"/>
    </linearGradient>
    <filter id="luminosity-noclip-5" x="35.59" y="104.53" width="27.8" height="9.5" color-interpolation-filters="sRGB" filterUnits="userSpaceOnUse">
      <feFlood flood-color="#fff" result="bg"/>
      <feBlend in="SourceGraphic" in2="bg"/>
    </filter>
    <filter id="luminosity-noclip-6" x="35.59" y="-8522.22" width="27.8" height="32766" color-interpolation-filters="sRGB" filterUnits="userSpaceOnUse">
      <feFlood flood-color="#fff" result="bg"/>
      <feBlend in="SourceGraphic" in2="bg"/>
    </filter>
    <mask id="mask-5" x="35.59" y="-8522.22" width="27.8" height="32766" maskUnits="userSpaceOnUse"/>
    <linearGradient id="linear-gradient-14" x1="49.33" y1="106.31" x2="49.76" y2="114.56" xlink:href="#linear-gradient-7"/>
    <mask id="mask-4" x="35.59" y="104.53" width="27.8" height="9.5" maskUnits="userSpaceOnUse">
      <g class="cls-53">
        <g class="cls-60">
          <path class="cls-4" d="m35.59,113.98s2.41-2.63,4.54-4.45c2.13-1.83,3.56-2.44,6.44-2.64,2.88-.2,7.35-.34,9.52-.91,2.17-.58,3.93-1.02,5.32-1.29,1.39-.27,2.54-.37,1.69,1.25-.85,1.63-1.81,5.04-5.2,6.2-3.39,1.16-5.24,1.41-9.54,1.7-4.3.3-12.77.14-12.77.14Z"/>
        </g>
      </g>
    </mask>
    <linearGradient id="linear-gradient-15" x1="49.33" y1="106.31" x2="49.76" y2="114.56" xlink:href="#linear-gradient-13"/>
  </defs>
  <g class="cls-56">
    <g id="Layer_2" data-name="Layer 2">
      <g id="Layer_1-2" data-name="Layer 1">
        <g>
          <g>
            <path class="cls-6" d="m188.14,55.33c2.27,1.13,2.34,3.09.14,4.36l-20.14,14.66-107.55,62.47c-2.19,1.27-5.93,1.47-8.44,1.12-9.55-1.35-23.72-4.82-31.34-7.95-2.35-.96-5.77-2.88-7.9-4.26-3.58-2.31-9.65-7.4-11.89-11.4-1.24-2.21-1.66-4.1.54-5.37L133.72,32.19c2.19-1.27,5.85-1.39,8.12-.27l46.31,23.41Z"/>
            <g>
              <path class="cls-31" d="m81.87,103.19l-3.1-1.6c-1.14.3-2.39.81-3.76,1.54-6.37,3.41-12.25,12.38-12.25,19.6,0,.87-.19,2.14-.38,3.5,0,0,0,0,0,0l5.45,2.82c1.87.98,4.4.78,7.19-.83,5.75-3.32,10.42-11.4,10.42-18.04,0-3.61-1.38-6.05-3.56-7Z"/>
              <path class="cls-37" d="m78.77,101.59l3.1,1.6c2.18.94,3.56,3.39,3.56,7,0,.69-.05,1.39-.15,2.11l1.8.42c.21-1.2.36-2.34.36-3.05,0-6.02-2.92-9.61-8.67-8.07Z"/>
              <path class="cls-30" d="m85.43,110.19c0,6.64-4.67,14.72-10.42,18.04-5.76,3.32-10.42.63-10.42-6.01s4.67-14.72,10.42-18.04c5.75-3.32,10.42-.63,10.42,6.01Z"/>
              <path class="cls-31" d="m84.84,110.85c0,6.12-4.3,13.58-9.61,16.64-5.31,3.06-9.61.58-9.61-5.55s4.3-13.58,9.61-16.64c5.31-3.06,9.61-.58,9.61,5.55Z"/>
              <path class="cls-41" d="m82.37,112.41c0,4.56-3.2,10.11-7.15,12.39-3.95,2.28-7.15.43-7.15-4.13s3.2-10.11,7.15-12.39c3.95-2.28,7.15-.43,7.15,4.13Z"/>
              <path class="cls-27" d="m81.45,112.82c0,4.11-2.89,9.1-6.44,11.15-3.56,2.05-6.44.39-6.44-3.72s2.88-9.1,6.44-11.15c3.56-2.05,6.44-.39,6.44,3.72Z"/>
              <path class="cls-28" d="m80.4,112.86c0,3.63-2.55,8.05-5.69,9.86-3.15,1.82-5.7.34-5.7-3.29s2.55-8.05,5.7-9.86c3.14-1.82,5.69-.34,5.69,3.29Z"/>
              <path class="cls-45" d="m80.85,110.05c.29.66.46,1.48.46,2.44,0,3.97-2.79,8.8-6.22,10.78-3.44,1.99-6.23.38-6.23-3.59,0-2.02.72-4.26,1.88-6.24-1.33,2.13-2.18,4.61-2.18,6.83,0,4.11,2.88,5.77,6.44,3.72,3.55-2.05,6.44-7.05,6.44-11.15,0-1.11-.21-2.05-.6-2.78Z"/>
              <path class="cls-27" d="m78.09,114.8c0,1.92-1.34,4.25-3.01,5.21-1.66.96-3.01.18-3.01-1.74s1.35-4.25,3.01-5.21c1.66-.96,3.01-.18,3.01,1.74Z"/>
              <path class="cls-57" d="m76.56,115.77c0,.85-.6,1.89-1.33,2.31-.74.42-1.34.08-1.34-.77s.6-1.89,1.34-2.31c.74-.43,1.33-.08,1.33.77Z"/>
              <path class="cls-7" d="m77.2,115.4c0,1.26-.89,2.79-1.98,3.43-1.09.63-1.98.12-1.98-1.14s.89-2.79,1.98-3.42c1.09-.63,1.98-.12,1.98,1.14Z"/>
              <path class="cls-41" d="m77.1,116.2l1.74-.18,2.43-1.3c.12-.65.19-1.29.19-1.9,0-.17-.01-.34-.02-.51l-2.49,1.77-1.74.81-.04.07c-.05-.24-.13-.43-.25-.59l1.34-1.75,1.59-3.78c-.69-.51-1.57-.71-2.56-.57l-1.03,3.91-.15,1.81h0c-.26,0-.56.09-.87.27-.15.09-.3.2-.45.32h0s-.07-1.42-.07-1.42l-.94-3.2c-.92.73-1.76,1.65-2.49,2.67l.02.11,1.71,2.39.79.65h0c-.25.45-.44.95-.51,1.42l-.04-.06-1.4.78-3.2,1.14c-.05.41-.08.8-.08,1.2,0,.52.04,1,.13,1.44l3.27-1.84,1.35-1.59h0c.06.22.17.4.3.54h0l-.7,2.37-1.79,3.54c.64.19,1.36.19,2.15-.01l1.23-3.4.11-2.24h0c.19-.04.4-.12.61-.24.18-.11.36-.24.53-.39h0s.6,1.8.6,1.8l1,1.89c.7-.72,1.35-1.55,1.91-2.44l-1.35-1.35-1.22-1.08h0c.18-.33.32-.68.41-1.03h0Z"/>
              <polygon class="cls-40" points="72.71 121.04 71.1 123.9 71.13 124.71 72.92 121.18 73.63 118.8 72.71 121.04"/>
              <polygon class="cls-40" points="68.97 118.4 68.65 119.06 71.94 117.92 73.29 117.21 71.96 117.74 68.97 118.4"/>
              <polygon class="cls-45" points="71.29 112.62 71.1 112.89 72.97 115.21 73.8 115.78 73.01 115.13 71.29 112.62"/>
              <polygon class="cls-40" points="81.43 112.31 81.28 111.82 78.89 113.83 77.2 114.89 78.94 114.09 81.43 112.31"/>
              <path class="cls-45" d="m76.56,115.26c0,1.26-.88,2.79-1.97,3.43-1.09.63-1.98.12-1.98-1.14s.88-2.79,1.98-3.42c1.09-.63,1.97-.12,1.97,1.14Z"/>
              <path class="cls-21" d="m77.2,114.89l-.04.07c-.05-.24-.13-.43-.25-.59l1.34-1.75c-.43-.31-1.36-.59-2-.45l-.36,1.83.21-.02c-.26,0-.56.09-.87.27-.15.09-.3.2-.45.32h0s-.07-1.42-.07-1.42c-.65.52-1.23,1.21-1.7,1.98l.78.65h0c-.25.45-.44.95-.51,1.42l-.04-.06-1.31.72c-.06.33-.09.66-.09.98,0,.37.04.7.13,1l1.35-1.58h0c.06.22.17.4.3.54l-.7,2.37c.44.24.98.29,1.59.12l.11-2.23h0c.19-.04.4-.12.61-.24.18-.11.36-.24.53-.39h0s.6,1.79.6,1.79c.59-.53,1.12-1.18,1.55-1.91l-1.21-1.08h0c.18-.33.32-.68.41-1.03h0l1.74-.18c.1-.44.16-.88.16-1.3,0-.23-.02-.44-.05-.64l-1.74.81Z"/>
              <path class="cls-7" d="m77.2,115.4c0,1.26-.89,2.79-1.98,3.43-1.09.63-1.98.12-1.98-1.14s.89-2.79,1.98-3.42c1.09-.63,1.98-.12,1.98,1.14Z"/>
            </g>
            <g>
              <path class="cls-31" d="m167.92,53.16l-2.5-1.29c-1.26.41-2.71,1.15-4.36,2.28-5.49,3.75-10.15,11.43-10.82,18.04-.1.96-.31,2.55-.5,4.11l-.55.32,4.68,2.42c1.87.98,4.4.78,7.19-.83,5.75-3.32,10.42-11.4,10.42-18.04,0-3.61-1.38-6.05-3.56-7Z"/>
              <path class="cls-30" d="m171.49,60.16c0,6.64-4.67,14.72-10.42,18.04-5.76,3.32-10.42.63-10.42-6.01s4.67-14.72,10.42-18.04c5.75-3.32,10.42-.63,10.42,6.01Z"/>
              <path class="cls-31" d="m170.89,60.82c0,6.13-4.3,13.58-9.61,16.64-5.31,3.06-9.62.58-9.62-5.55s4.3-13.58,9.62-16.64c5.31-3.06,9.61-.58,9.61,5.54Z"/>
              <path class="cls-41" d="m168.43,62.38c0,4.56-3.2,10.11-7.15,12.38-3.95,2.28-7.15.43-7.15-4.13s3.2-10.11,7.15-12.39c3.95-2.28,7.15-.43,7.15,4.13Z"/>
              <path class="cls-27" d="m167.5,62.79c0,4.11-2.88,9.1-6.44,11.15-3.56,2.05-6.44.39-6.44-3.72s2.88-9.1,6.44-11.15c3.55-2.05,6.44-.39,6.44,3.72Z"/>
              <path class="cls-28" d="m166.46,62.84c0,3.63-2.55,8.05-5.69,9.86-3.14,1.82-5.7.34-5.7-3.29s2.55-8.05,5.7-9.86c3.14-1.82,5.69-.34,5.69,3.29Z"/>
              <path class="cls-45" d="m166.91,60.02c.29.66.46,1.48.46,2.44,0,3.97-2.79,8.8-6.22,10.78-3.44,1.99-6.23.38-6.23-3.59,0-2.02.73-4.26,1.88-6.24-1.33,2.13-2.17,4.61-2.17,6.83,0,4.11,2.88,5.77,6.44,3.72,3.55-2.05,6.44-7.04,6.44-11.15,0-1.11-.21-2.05-.59-2.78Z"/>
              <path class="cls-27" d="m164.15,64.77c0,1.92-1.35,4.25-3.01,5.21-1.66.96-3.01.18-3.01-1.74s1.35-4.26,3.01-5.21c1.66-.96,3.01-.18,3.01,1.74Z"/>
              <path class="cls-57" d="m162.62,65.74c0,.85-.6,1.89-1.34,2.31-.74.43-1.34.08-1.34-.77s.6-1.89,1.34-2.32c.74-.42,1.34-.08,1.34.77Z"/>
              <path class="cls-22" d="m163.26,65.37c0,1.26-.89,2.8-1.98,3.43-1.09.63-1.98.12-1.98-1.14s.88-2.79,1.98-3.42c1.09-.63,1.98-.12,1.98,1.14Z"/>
              <path class="cls-41" d="m163.15,66.17l1.74-.18,2.42-1.3c.12-.65.19-1.29.19-1.9,0-.17,0-.34-.02-.51l-2.49,1.77-1.74.81-.04.07c-.04-.24-.13-.43-.25-.59l1.34-1.76,1.6-3.78c-.69-.51-1.57-.71-2.56-.57l-1.04,3.91-.15,1.81h0c-.26,0-.56.09-.87.27-.15.09-.3.2-.45.32h0s-.07-1.42-.07-1.42l-.94-3.2c-.91.73-1.76,1.65-2.49,2.67l.02.11,1.71,2.39.79.65h0c-.25.45-.44.95-.51,1.42l-.04-.06-1.4.78-3.2,1.14c-.05.4-.08.8-.08,1.2,0,.52.04,1,.13,1.44l3.27-1.84,1.35-1.59h0c.07.22.17.4.3.54h0l-.71,2.38-1.79,3.54c.64.19,1.36.19,2.15-.01l1.23-3.4.11-2.24h0c.19-.04.4-.12.61-.24.18-.11.36-.24.53-.39h0l.6,1.8,1,1.89c.7-.72,1.35-1.55,1.91-2.44l-1.35-1.36-1.21-1.08h0c.18-.33.32-.68.41-1.03h0Z"/>
              <polygon class="cls-40" points="158.77 71.01 157.15 73.87 157.19 74.69 158.98 71.15 159.69 68.78 158.77 71.01"/>
              <polygon class="cls-40" points="155.02 68.38 154.7 69.03 158 67.9 159.34 67.18 158.02 67.71 155.02 68.38"/>
              <polygon class="cls-45" points="157.34 62.6 157.15 62.86 159.02 65.18 159.85 65.76 159.07 65.11 157.34 62.6"/>
              <polygon class="cls-40" points="167.49 62.29 167.34 61.8 164.95 63.8 163.26 64.87 164.99 64.06 167.49 62.29"/>
              <path class="cls-45" d="m162.62,65.23c0,1.26-.89,2.79-1.98,3.43-1.09.63-1.98.12-1.98-1.14s.88-2.79,1.98-3.43c1.09-.63,1.98-.12,1.98,1.14Z"/>
              <path class="cls-20" d="m163.26,64.87l-.04.07c-.04-.24-.13-.43-.25-.59l1.34-1.75c-.43-.32-1.37-.59-2-.45l-.35,1.83.2-.02c-.26,0-.56.09-.87.27-.15.09-.3.2-.45.32h0s-.07-1.42-.07-1.42c-.65.52-1.23,1.21-1.7,1.98l.78.65h0c-.25.45-.44.95-.51,1.42l-.04-.06-1.31.72c-.06.33-.09.66-.09.98,0,.37.04.7.12,1l1.35-1.58h0c.07.22.17.4.3.54l-.7,2.37c.43.24.98.29,1.58.12l.11-2.23h0c.19-.04.4-.12.61-.24.18-.11.36-.24.53-.39h0l.6,1.79c.59-.53,1.12-1.18,1.55-1.91l-1.21-1.08h0c.18-.33.32-.68.41-1.03h0l1.74-.18c.1-.44.16-.88.16-1.29,0-.23-.02-.44-.05-.64l-1.74.81Z"/>
              <path class="cls-23" d="m163.26,65.37c0,1.26-.89,2.8-1.98,3.43-1.09.63-1.98.12-1.98-1.14s.88-2.79,1.98-3.42c1.09-.63,1.98-.12,1.98,1.14Z"/>
              <path class="cls-37" d="m165.42,51.87l2.5,1.29c2.18.95,3.56,3.39,3.56,7,0,.03,0,.06,0,.09l.83.12h0c.45-5.85-1.47-10.25-6.89-8.5Z"/>
            </g>
            <path class="cls-38" d="m183.46,31.4c.45-3.98-2.48-6.64-2.48-6.64,0,0-1.83-4.47-6.23-9.22-4.41-4.74-20.33-12.67-24.8-14.23-4.47-1.56-9.35-1.49-11.72-1.02-2.37.47-13.35,4.68-13.35,4.68,0,0-13.48,1.9-24.46,7.05-10.98,5.15-22.77,12.6-31.51,17.96-8.74,5.35-29.61,24.8-29.61,24.8-12.13,5.62-27.31,20.4-27.31,20.4-3.05.34-4.81,6.23-6.78,10.3-1.96,4.07-1.69,6.71-1.56,7.86.14,1.15-.41,17.75,13.55,26.22,13.96,8.47,30.07,9.58,37.17,8.67,3.27-.42,6.01-1.24,8.01-1.99.2-1.35.38-2.62.38-3.5,0-7.22,5.88-16.2,12.25-19.6,8.25-4.41,12.44-.68,12.44,6.53,0,.71-.15,1.85-.36,3.05l62.66-36.42c.19-1.55.41-3.14.5-4.11.67-6.61,5.33-14.29,10.82-18.04,8.76-6,11.79-.98,11.24,6.21h0c3.05-3.12,8.1-8.35,10.68-11.29,3.84-4.38,3.16-10.3,3.34-12.42.18-2.12-2.87-5.24-2.87-5.24Z"/>
            <path class="cls-19" d="m180.98,24.76s-.94-2.31-3.11-5.36c.13,5.62-10.37,9.11-10.37,9.11l-10.48,1.18c-8.85.85-19.45,1.07-26.29,4.96-9.58,5.44-23.91,12.93-31.14,23.05,0,0-9.89,14.57-14.98,24.8,0,0-2.67,4.08-9.84,9.31,0,0-1.4,1.14-3.81,2.87-2.86,2.06-6.03,4.18-7.83,5.22-3.32,1.92-7.73,4.71-8.68,6.88,0,0-4.86,3.1-9.49,1.11,0,0-3.81-1.95-7.72-2.96-3.91-1-9.82-2.66-15.99-6.52-6.17-3.86-8.42-7.32-9.17-8.52-.75-1.2-1.84-2.73-2.83-3.32,0,0-.82-2.43-2.41-4.78-.55,1.26-1.09,2.54-1.64,3.68-1.96,4.07-1.69,6.71-1.56,7.86.14,1.15-.41,17.75,13.55,26.22,13.96,8.47,30.07,9.58,37.17,8.67,3.27-.42,6.01-1.24,8.01-1.99.2-1.35.38-2.62.38-3.5,0-7.22,5.88-16.2,12.25-19.6,8.25-4.41,12.44-.68,12.44,6.53,0,.71-.15,1.85-.36,3.05l62.66-36.42c.19-1.55.41-3.14.5-4.11.67-6.61,5.33-14.29,10.82-18.04,8.76-6,11.79-.98,11.24,6.21h0c3.05-3.12,8.1-8.35,10.68-11.29,3.84-4.38,3.16-10.3,3.34-12.42.18-2.12-2.87-5.24-2.87-5.24.45-3.98-2.48-6.64-2.48-6.64Z"/>
            <path class="cls-6" d="m172.31,60.35h0c.44-.44.91-.93,1.42-1.45.02-2.46-.41-5.28-2.09-7.1-1.03-1.1-2.4-1.69-3.99-1.69-2.06,0-4.53.98-7.35,2.9-5.9,4.04-10.69,12.04-11.4,19.02-.07.66-.19,1.63-.32,2.67-.06.46-.12.93-.17,1.4v.1s-.01.1-.01.1l.02.75,1.34-.78c.19-1.55.41-3.14.5-4.11.67-6.61,5.33-14.29,10.82-18.04,8.76-6,11.79-.98,11.24,6.21Z"/>
            <path class="cls-16" d="m183.46,31.4c.27-2.39-.68-4.3-1.48-5.45-.71,1.09-1.56,2.28-2.58,3.55-4.69,5.82-16.14,13.66-16.14,13.66l-81.27,52.66s-10.14,5.62-14.56,12.07c0,0,0,0,0,.01,2.02-2.49,4.42-4.6,6.95-5.96,2.55-1.37,4.87-2.06,6.9-2.06,4.72,0,7.54,3.66,7.54,9.79,0,.62-.09,1.41-.2,2.17h0s59.81-34.76,59.81-34.76h0l-.02-.75v-.1s.01-.1.01-.1c.06-.47.12-.94.17-1.4.13-1.04.26-2.02.32-2.67.71-6.99,5.5-14.99,11.4-19.02,2.82-1.92,5.29-2.9,7.35-2.9,1.59,0,2.97.58,3.99,1.69,1.68,1.81,2.1,4.64,2.09,7.1,3.03-3.12,7.05-7.32,9.26-9.84,3.84-4.38,3.16-10.3,3.34-12.42.18-2.12-2.87-5.24-2.87-5.24Z"/>
            <path class="cls-24" d="m186.24,35.73c-.51-2-2.78-4.33-2.78-4.33.4,1.77.71,2.99-.19,5.08-2.7,6.27-10.22,13.65-10.22,13.65,10.42-9.29,12.72-12.34,13.19-14.4Z"/>
            <path class="cls-13" d="m87.45,109.67c0,.71-.15,1.85-.36,3.05l1.52-.88c.11-.76.2-1.55.2-2.17,0-6.13-2.82-9.79-7.54-9.79-2.02,0-4.34.69-6.9,2.06-7.03,3.76-12.96,13.29-12.96,20.8,0,.77-.18,2-.37,3.3v.04s-.01.04-.01.04c-.02.19-.02.39-.02.6.49-.16.95-.32,1.37-.48.2-1.35.38-2.62.38-3.5,0-7.22,5.88-16.2,12.25-19.6,8.25-4.41,12.44-.68,12.44,6.53Z"/>
            <path class="cls-14" d="m61,126.72c0-.21,0-.41.02-.6v-.04s.01-.04.01-.04c.19-1.31.37-2.53.37-3.3,0-2.43.62-5.07,1.7-7.65-3,1.35-8.33,3.02-16.51,3.18-13.9.28-20.68-2.46-29.48-7.77-8.76-5.28-12.14-12.77-13.55-18.69,0,.66.05,1.17.09,1.53.14,1.15-.41,17.75,13.55,26.22,13.96,8.47,30.07,9.58,37.17,8.67,2.58-.33,4.82-.91,6.64-1.51h0Z"/>
            <g class="cls-54">
              <path class="cls-17" d="m180.98,24.76s-.62-1.51-2-3.71c-.04.52-.18,1.02-.48,1.46-4.15,6.11-21.47,17.47-21.47,17.47.09.05.13.09.13.09,0,0-24.83,15.9-34.52,22.05-9.69,6.15-34.15,20.38-34.15,20.38.06-.12.12-.23.18-.35l-1.03.75-4.47,1.45c-1.47,1.68-4.14,4.37-8.39,7.47,0,0-1.4,1.14-3.81,2.87-2.86,2.06-6.03,4.18-7.83,5.22-3.32,1.92-7.73,4.71-8.68,6.88,0,0-4.86,3.1-9.49,1.11,0,0-3.81-1.95-7.72-2.96-3.91-1-9.82-2.66-15.99-6.52-6.17-3.86-8.42-7.32-9.17-8.52-.75-1.2-1.84-2.73-2.83-3.32,0,0-.82-2.43-2.41-4.78-.55,1.26-1.09,2.54-1.64,3.68-1.34,2.78-1.64,4.9-1.65,6.33h0c1.41,5.93,4.8,13.41,13.55,18.69,8.8,5.31,15.58,8.04,29.48,7.77,8.19-.17,13.52-1.84,16.51-3.18,1.05-2.53,2.54-5,4.31-7.19,0,0,0,0,0,0,0,0,0,0,0-.01,4.42-6.45,14.56-12.07,14.56-12.07l81.27-52.66s11.45-7.84,16.14-13.66c1.02-1.27,1.87-2.45,2.58-3.55h0c-.53-.76-1-1.19-1-1.19Z"/>
            </g>
            <path class="cls-18" d="m35.42,58.22c-2.58,1.92-5.09,3.91-7.54,5.98-2.46,2.06-4.85,4.2-7.11,6.46-2.27,2.25-4.44,4.62-6.29,7.21-.92,1.3-1.74,2.66-2.36,4.12-.61,1.45-1.05,2.97-.94,4.59-.27-.77-.31-1.61-.21-2.43.1-.82.34-1.61.64-2.37.63-1.51,1.49-2.9,2.42-4.22,1.88-2.64,4.1-4.99,6.4-7.24,2.32-2.23,4.76-4.33,7.26-6.35,1.25-1.01,2.52-1.99,3.81-2.95,1.29-.96,2.59-1.9,3.92-2.8Z"/>
            <path class="cls-1" d="m42.2,104.53c.83-.12,1.63-.32,2.43-.55.4-.11.79-.23,1.19-.36.39-.12.79-.25,1.18-.39,1.56-.55,3.1-1.14,4.62-1.78,3.05-1.28,6-2.82,8.89-4.46,1.44-.83,2.87-1.68,4.28-2.55,1.41-.88,2.81-1.78,4.2-2.7,2.77-1.84,5.5-3.76,8.2-5.71-2.56,2.14-5.19,4.2-7.9,6.15-1.35.98-2.73,1.93-4.13,2.85-1.39.92-2.81,1.81-4.25,2.66-2.88,1.71-5.85,3.27-8.94,4.59-1.55.66-3.13,1.24-4.76,1.66-.41.1-.82.2-1.23.29-.41.08-.83.15-1.25.21-.83.11-1.68.19-2.52.1Z"/>
            <path class="cls-46" d="m157.38,39.73c-.23-.16-5.9-3.94-15.24-4.88-.58-.06-1.18-.09-1.78-.09-8.15,0-16.15,5.22-19.56,7.45-.31.2-.58.38-.82.53l-.66.42c-4.92,3.13-13.16,8.37-17.88,14.61-4,5.27-4.69,6.74-7.27,12.19-1.3,2.76-3.09,6.53-6.04,12.36l-.62,1.23,1.19-.69c.24-.14,24.58-14.3,34.17-20.39,9.58-6.08,34.27-21.9,34.52-22.05l.52-.33-.51-.35Z"/>
            <path class="cls-36" d="m142.1,35.25c-.58-.06-1.16-.09-1.74-.09-8.75,0-17.23,6.05-20.16,7.92-4.7,3-13.54,8.46-18.44,14.93-6,7.91-4.52,7.2-13.27,24.48,0,0,24.46-14.23,34.15-20.38,9.69-6.15,34.52-22.05,34.52-22.05,0,0-5.71-3.87-15.06-4.82Z"/>
            <path class="cls-36" d="m78.37,45.01c-6.94-4.26-14.6-10.04-14.6-10.04,0,0-11.07,8.37-14.65,11.6-5.37,4.84-9.83,8.2-9.83,8.2-.61.28-1.23.59-1.85.91-5.19,4.44,4.3,12.5,11.54,17.31,7.23,4.81,18.93,10.16,25.74,11.01.7.09,1.36.13,1.97.13,5.35,0,7.46-2.99,7.46-2.99,4.62-9.37,15.02-25.06,15.02-25.06,0,0-13.87-6.81-20.81-11.07Z"/>
            <path class="cls-36" d="m78.37,45.01c-6.94-4.26-14.6-10.04-14.6-10.04,0,0-11.07,8.37-14.65,11.6-5.37,4.84-9.83,8.2-9.83,8.2-.61.28-1.23.59-1.85.91-5.19,4.44,4.3,12.5,11.54,17.31,7.23,4.81,18.93,10.16,25.74,11.01.7.09,1.36.13,1.97.13,5.35,0,7.46-2.99,7.46-2.99,4.62-9.37,15.02-25.06,15.02-25.06,0,0-13.87-6.81-20.81-11.07Z"/>
            <path class="cls-36" d="m165.38,24.3c-2.48-3.3-11.77-9.18-16.6-11.87-3.46-1.93-9.07-5.18-15.65-6.68-2.19-.5-4.49-.81-6.86-.81-.46,0-.93.01-1.4.04,0,0-6.63.93-14.37,3.26,0,0,11.17,5.29,16.23,8.42,5.06,3.13,14.88,10.07,16,11.05,0,0,1.82,1.98,3.57,1.98s19.35-1.98,19.35-1.98c0,0,2.2-.11-.27-3.41Z"/>
            <path class="cls-44" d="m164.83,24.71c-2.28-3.04-10.96-8.66-16.39-11.69l-.55-.31c-4.75-2.65-12.77-7.3-21.69-7.3h-.26c-.44,0-1.43.04-1.87.07-.44.06-5.43.92-12.04,2.78,3.29,1.59,11.16,5.42,15.04,7.83,5.05,3.13,14.9,10.07,16.09,11.12l.03.02.03.03c.45.49,1.88,1.76,3.07,1.76,1.36,0,13.2-1.29,19.28-1.98h.03s0,0,0,0c0,0,.19-.03.24-.13,0-.02.22-.55-1.02-2.2Z"/>
            <path class="cls-44" d="m78.01,45.59c-5.97-3.67-12.56-8.51-14.25-9.77-2.02,1.54-11.06,8.43-14.2,11.26-5.32,4.8-9.83,8.2-9.88,8.24l-.06.04-.06.03c-.07.03-.15.07-.21.1-.5,1.15-.84,2.63-.23,4.06,1.25,2.92,7.05,8.21,12.56,11.39,5.33,3.08,15.58,10.32,28.66,11.94,2.06-.71,3.03-1.86,3.21-2.09,4.07-8.23,12.62-21.4,14.62-24.44-2.89-1.44-14.18-7.08-20.18-10.76Z"/>
            <path class="cls-44" d="m122.29,42.75c-.58.37-1.09.69-1.52.95,1.93,4.39,4.02,12.68,4.76,15.76,5.32-3.38,12.76-8.14,19.05-12.16l-4.32-11.46c-7.19.04-14.19,4.51-17.97,6.92Z"/>
            <path class="cls-44" d="m142.03,35.92c-.15-.01-.3-.02-.45-.03l4.25,10.62c4.56-2.92,8.35-5.35,10.03-6.42-1.94-1.08-6.88-3.46-13.84-4.16Z"/>
            <path class="cls-44" d="m102.29,58.42c-3.93,5.19-4.61,6.63-7.15,12,0,.02-.02.04-.02.05l.7,6.95c6.99-4.1,17.19-10.13,23.77-14.2-.44-6.06-1.43-14.47-1.83-17.72-7,4.33-12.31,8.76-15.47,12.92Z"/>
            <polygon class="cls-5" points="62.79 38.72 52.42 47.99 65.15 41.42 62.79 38.72"/>
            <path class="cls-32" d="m63.31,65.33c-5.7-3.05-15.61-9.97-16.53-11.63,0,0-2.92-.36-5.78.62-.81.64-1.29,1-1.3,1.01l-.06.04-.06.03c-.07.03-.15.07-.21.1-.5,1.15-.84,2.63-.23,4.06,1.25,2.92,7.05,8.21,12.56,11.39,5.33,3.08,15.58,10.32,28.66,11.94,2.06-.71,3.03-1.86,3.21-2.09.73-1.46,1.59-3.09,2.54-4.78-5.9-2.66-18.49-8.38-22.8-10.69Z"/>
            <path class="cls-34" d="m82.21,78.69c3.25-.37,4.01-2.15,1.85-6.74-.81-1.47-2.25-3.45-4.91-4.55-4.03-1.67-6.86-.35-8.01.69-1.15,1.04-5.58,4.03-2.42,5.53l8.64,4.09s3.19,1.38,4.85.99Z"/>
            <path class="cls-32" d="m165.61,27.03h0s.19-.03.24-.13c0-.02.22-.55-1.02-2.2-2.28-3.04-10.96-8.66-16.39-11.69l-.55-.31c-3.83-2.14-9.77-5.57-16.6-6.82-3.12,1.04-6.94,2.39-8.48,3.23-1.45.79-2.73,1.76-3.62,2.67,2.91,1.48,5.91,3.07,7.88,4.29,5.05,3.13,14.9,10.07,16.09,11.12l.03.02.03.03c.45.49,1.88,1.76,3.07,1.76,1.36,0,13.2-1.29,19.28-1.98h.03Z"/>
            <path class="cls-10" d="m78.01,45.59c-5.97-3.67-12.56-8.51-14.25-9.77-2.02,1.54-11.06,8.43-14.2,11.26-5.32,4.8-9.83,8.2-9.88,8.24l-.06.04-.06.03c-.07.03-.15.07-.21.1-.5,1.15-.84,2.63-.23,4.06.41.96,1.31,2.17,2.53,3.48,7-6.04,19.69-13.86,39.61-15.54-1.19-.67-2.29-1.31-3.26-1.91Z"/>
            <path class="cls-10" d="m145.36,10.55c-3.29-1.74-7.51-3.72-12.23-4.81-2.19-.5-4.49-.81-6.86-.81-.46,0-.93.01-1.4.04,0,0-6.63.93-14.37,3.26,0,0,2.82,1.33,6.26,3.06,5.53-1.31,15.18-2.61,28.6-.75Z"/>
            <g class="cls-50">
              <path class="cls-25" d="m44.9,108.01s-3.84-1.96-7.69-2.95c-3.08-.79-9.47-2.43-16.03-6.53-4.21-2.63-7.31-5.52-9.21-8.56-.74-1.17-1.81-2.69-2.79-3.27l.14-.23c1.02.61,2.13,2.16,2.88,3.36,1.89,3.01,4.96,5.86,9.13,8.48,6.52,4.08,12.89,5.71,15.95,6.5,3.88,1,7.71,2.95,7.75,2.97l-.12.24Z"/>
            </g>
            <path class="cls-43" d="m27.92,105.02c-.66-.2-1.32-.42-1.98-.65-.57-.2-1.05-.27-1.44-.27-.99,0-1.43.44-1.43.44-.49.4-1.01.73-1.47.87-.2.06-.4.08-.6.08-1.1,0-2.16-.75-2.16-.75-1.31-.9-1.78-2.46-1.87-3.87-.06-.88-.07-1.75-.94-2.71-2.96-3.24-5.91-7.2-5.91-7.2,0,0-.34,7.08-.42,8.88-.07,1.8.65,3.09,1.38,3.97.73.88,2.17,2.34,5.6,4.9,3.39,2.53,7.06,3.75,9.96,4.78.72.26,1.39.35,1.99.35,1.83,0,3.02-.89,3.02-.89l6.92-5.24s-5.22-1.01-10.66-2.71Z"/>
            <path class="cls-33" d="m27.72,105.67c-.69-.22-1.36-.44-2-.66-.44-.15-.85-.23-1.22-.23-.61,0-.91.21-.96.25l-.03.03h-.01c-.62.51-1.19.84-1.7,1-.25.08-.52.11-.79.11-1.3,0-2.5-.84-2.55-.87-1.28-.87-1.75-2.25-1.88-4.24v-.13c-.06-.8-.1-1.43-.77-2.17-1.84-2.01-4.18-4.78-5.32-6.24-.11,2.23-.26,5.94-.31,7.14-.06,1.3.55,2.66,1.43,3.72,1.01,1.22,2.81,2.79,5.49,4.79,3.12,2.33,6.54,3.54,9.29,4.51l.49.18c.58.21,1.18.31,1.77.31,1.56,0,2.6-.75,2.61-.75l5.73-4.34c-1.95-.42-5.57-1.27-9.26-2.42Z"/>
            <path class="cls-8" d="m121.56,72.28l-1.51.89s-1.34.41-1.69-.61c-.35-1.02-.95-2.79,1.23-3.96,2.18-1.17,3.22.89,3.22.89,0,0,1.09,1.38,0,2.05-1.09.67-1.26.73-1.26.73Z"/>
            <path class="cls-35" d="m124.04,68.62c-.1-.3-.23-.41-.34-.46-.22-.33-.48-.17-.48-.17l-5.88,3.98s-.26.11-.13.65c.06.24.16.37.31.41.17.3.48.26.93-.03.54-.35,5.39-3.29,5.39-3.29,0,0,.43-.43.22-1.1Z"/>
            <path class="cls-6" d="m123.43,68.19l-5.88,3.98s-.26.11-.13.65c.13.54.48.54,1.02.2.54-.35,5.39-3.29,5.39-3.29,0,0,.43-.43.22-1.1-.22-.67-.61-.43-.61-.43Z"/>
            <path class="cls-9" d="m154.49,51.41l-1.51.89s-1.34.41-1.69-.61c-.34-1.02-.95-2.79,1.23-3.96,2.19-1.17,3.23.89,3.23.89,0,0,1.08,1.38,0,2.05-1.08.67-1.26.74-1.26.74Z"/>
            <path class="cls-35" d="m156.96,47.74c-.1-.3-.22-.41-.34-.46-.21-.33-.49-.17-.49-.17l-5.88,3.98s-.26.11-.13.65c.06.24.16.37.3.41.17.3.48.26.93-.03.54-.35,5.39-3.29,5.39-3.29,0,0,.43-.43.21-1.1Z"/>
            <path class="cls-6" d="m156.35,47.31l-5.88,3.98s-.26.11-.13.65c.13.54.48.54,1.02.2.54-.35,5.39-3.29,5.39-3.29,0,0,.43-.43.21-1.1-.21-.67-.61-.43-.61-.43Z"/>
            <path class="cls-38" d="m98.17,73.25l-2.9,2.97s-1.51,1.66-.33,2.33c1.18.67,4.96.67,8.07.67s3.18-2.83,3.21-3.28c.03-.46.21-1.87-2.58-2.33-2.79-.46-4.48-1.35-5.47-.36Z"/>
            <path class="cls-29" d="m94.94,78.55c-1.18-.67.33-2.33.33-2.33l.54-.56-1.71-.71s-2.58.6-2.52,2.53c.04,1.59,2.18,1.43,4.12,1.35-.31-.08-.57-.16-.76-.27Z"/>
            <path class="cls-36" d="m95.7,78.82c-.31-.08-.57-.16-.76-.27-.43-.25-.5-.62-.42-1-1.37-.2-2.22-.59-2.74-1-.13.27-.21.57-.2.92.04,1.59,2.18,1.43,4.12,1.35Z"/>
            <path class="cls-13" d="m106.22,75.94c.02-.24.07-.73-.26-1.21-1.41.67-1.89,1.62-2.81,2.8-1.13,1.45-5.19.28-6.85,0-.93-.16-.82-1.03-.54-1.8l-.48.5s-1.51,1.66-.33,2.33c1.18.67,4.96.67,8.07.67s3.18-2.83,3.21-3.28Z"/>
            <path class="cls-38" d="m44.87,49.68c.9-.82,1.89-1.7,2.93-2.63l-.87-.48s.5-3.33.3-3.9c-.19-.58-2.11-4.59-2.11-4.59,0,0-1.92,2.2-2.45,3.96-.52,1.76.71,4.29,1.13,5.52.24.7.71,1.53,1.07,2.12Z"/>
            <path class="cls-36" d="m46.93,46.57s0-.03.01-.08c-.88.32-2.19.69-3.19.95.01.04.03.08.04.12.24.7.71,1.53,1.07,2.12.9-.82,1.89-1.7,2.93-2.63l-.87-.48Z"/>
            <path class="cls-13" d="m46.94,46.49c.07-.49.44-3.14.3-3.77-1.09.32-1.97,1.44-2.38,2.31-.3.66-.46,1.61-.54,2.26.89-.24,1.9-.53,2.61-.79Z"/>
            <g class="cls-51">
              <path class="cls-25" d="m70.5,31.21c.97-.59,1.97-1.21,3.01-1.85,8.34-5.13,18.72-11.52,28.46-16.09,3.49-1.64,7.25-2.94,10.75-3.97-.41-.2-.78-.37-1.09-.52-3.29.99-6.77,2.23-10.01,3.76-9.78,4.59-20.18,10.99-28.54,16.13-1.04.64-2.04,1.26-3.01,1.85-1.7,1.04-3.87,2.63-6.26,4.5.09.07.32.24.67.5,2.29-1.79,4.37-3.3,6.01-4.31Z"/>
            </g>
            <path class="cls-15" d="m142.72,27.71c-.12-.1-.33-.27-.62-.49-5.16,1.98-17.14,8.03-26.97,14.37-11.54,7.44-15.99,12.99-16.8,14.08.36.18.61.3.74.37.99-1.27,5.56-6.72,16.5-13.76,10.73-6.92,22.76-12.8,27.26-14.45-.07-.07-.11-.11-.11-.11Z"/>
            <path class="cls-26" d="m50.59,125.95c-.34,0-4.02-.04-4.02-.04-3.99.04-15.13-1.38-15.13-1.38,0,0,5.85,1.39,9.75,1.77,3.9.38,8.54.41,9.45.21.34-.08.6-.42.68-.84,0,0-.3.26-.73.27Z"/>
            <path class="cls-33" d="m49.93,124.06c-1.89-.12-6.76-.29-9.1-.56-.39-.05-.77-.15-.85.92-.08,1.07,1.4,1.2,1.4,1.2,2.05.18,3.96.31,5.19.3,0,0,3.68.04,4.02.04.43,0,.73-.27.73-.27h0c.14-.68-.2-1.54-1.39-1.62Z"/>
            <path class="cls-26" d="m28.78,121.58l-.39,1.18s-.4.67-1.75.1c-1.35-.57-6.87-3.13-10.12-5.26-2.41-1.58-4.63-3.73-5.06-4.2-.42-.47-.86-1.7-.91-2.16-.05-.45-.36-1.31.72-.2,1.08,1.11,4.85,3.95,7.35,5.4,2.5,1.45,8.7,4.12,9.74,4.45,0,0,.58.19.41.69Z"/>
            <path class="cls-33" d="m27.73,122.4c.28.12.51.18.71.21l.34-1.03c.17-.5-.41-.69-.41-.69-1.05-.33-7.24-3-9.74-4.45-2.39-1.39-5.94-4.04-7.19-5.24.16.56.49,1.38.82,1.74.42.47,2.65,2.61,5.06,4.2,3.25,2.14,9.07,4.69,10.42,5.26Z"/>
            <g class="cls-50">
              <path class="cls-25" d="m54.59,106.8l-.27-.05c.43-2.21,4.61-4.6,7.98-6.53.26-.15.52-.3.77-.44,3.18-1.83,11.15-7.38,13.4-9.62,2.14-2.12,3.47-6.79,3.48-6.84l.26.07c-.06.19-1.36,4.79-3.55,6.96-2.26,2.25-10.27,7.83-13.45,9.67-.25.14-.51.29-.77.44-3.14,1.8-7.44,4.26-7.84,6.34Z"/>
            </g>
            <g class="cls-49">
              <path class="cls-25" d="m11.08,110.31c5.52,5.47,13.85,8.98,16.68,10.08,1.14.44,1.01-.55,1.01-.55l.08-3.16c.04-1.09-.93-1.29-.93-1.29-9.79-3.59-14.91-8.15-16.7-10.01,0,0-.76-.71-.76.27l.07,3.25s.03.89.56,1.41Z"/>
            </g>
            <path class="cls-46" d="m28.24,116.65c.02-.55-.4-.66-.45-.67h-.04s-.04-.03-.04-.03c-9.45-3.47-14.63-7.86-16.64-9.87l.07,2.79c.01.19.1.71.38.99,5.32,5.27,13.29,8.71,16.47,9.94.08.03.14.05.18.06v-.02s0-.04,0-.04l.08-3.16Z"/>
            <path class="cls-39" d="m9.89,95.81c-.02.46-.04.92-.06,1.36,2.22,3.15,5.85,6.94,9.02,8.84,3.31,1.99,9.75,4.43,14.63,5.59l.86-.65c-4.7-1.03-11.47-3.47-15.07-5.63-3.39-2.04-7.34-6.3-9.38-9.5Z"/>
            <path class="cls-39" d="m18.62,106.89c-3.17-1.94-6.77-5.71-8.84-8.72-.02.51-.04.96-.06,1.32,2.16,2.9,5.44,6.23,8.48,8.1,3.92,2.41,9.09,4.35,13.2,5.55.17-.1.26-.16.26-.16l.59-.44c-4-1.12-9.4-3.05-13.62-5.64Z"/>
            <path class="cls-39" d="m16.83,101.36c-2.81-2.48-5.52-5.81-6.81-8.22-.02.46-.05.96-.07,1.48,1.63,2.58,4.37,5.77,7.16,8.04-.15-.49-.23-.95-.27-1.31Z"/>
            <path class="cls-39" d="m22.87,105.13c-.3.24-.59.41-.83.52,4.13,1.81,9.98,3.44,13.69,4.23l.86-.65c-3.45-.68-9.42-2.29-13.73-4.11Z"/>
            <path class="cls-6" d="m159.82,44.67c-.39-1.96-1.69-3.68-2.28-4.38l-.17.11s-.03.02-.06.04c.56.66,1.86,2.38,2.24,4.28.48,2.44,0,8.7,0,8.76l.27.02c.02-.26.49-6.36,0-8.83Z"/>
            <path class="cls-6" d="m123.14,62.27c-.08.05-.16.1-.23.15.61,1.4,1.72,4.08,2.01,5.56.36,1.88.4,13.51.4,18.43h.27c0-4.92-.04-16.59-.41-18.48-.3-1.54-1.43-4.26-2.05-5.66Z"/>
            <path class="cls-6" d="m88.52,82.94l-.35.2c-.34,1.1-.78,2.93-.67,4.55.17,2.46,2.56,20.93,2.59,21.11l.27-.03c-.02-.19-2.41-18.65-2.59-21.1-.12-1.71.42-3.7.75-4.74Z"/>
            <g>
              <path class="cls-6" d="m63.56,104.65c-.24-.39-.77-.39-.94-.39-.38,0-.85.08-1.26.16-1.25.24-2.85.63-5.34,1.29-1.67.44-4.71.62-7.39.78-.74.04-1.45.09-2.08.13-2.91.21-4.38.81-6.6,2.71-2.12,1.82-4.54,4.45-4.56,4.48l-.4.44h.6s2.23.05,4.92.05c3.46,0,6.11-.06,7.87-.18,4.46-.3,6.26-.57,9.61-1.72,2.93-1.01,4.12-3.65,4.91-5.4.15-.34.3-.67.44-.93.34-.65.41-1.1.21-1.42Z"/>
              <path class="cls-47" d="m35.59,113.98s2.41-2.63,4.54-4.45c2.13-1.83,3.56-2.44,6.44-2.64,2.88-.2,7.35-.34,9.52-.91,2.17-.58,3.93-1.02,5.32-1.29,1.39-.27,2.54-.37,1.69,1.25-.85,1.63-1.81,5.04-5.2,6.2-3.39,1.16-5.24,1.41-9.54,1.7-4.3.3-12.77.14-12.77.14Z"/>
              <path class="cls-47" d="m7.96,97.37s1.64-9.33,1.74-10.34c.1-1.02-1.92-6.87,2.11-11.83-2.76.5-4.45,5.57-6.24,9.49.03,2.85.34,9.21,2.39,12.68Z"/>
              <path class="cls-6" d="m11.81,75.2c-4.03,4.96-2.02,10.81-2.11,11.83-.1,1.01-1.74,10.34-1.74,10.34-2.05-3.47-2.36-9.83-2.39-12.68h0c-.09.19-.17.38-.26.56.07,2.94.45,8.92,2.42,12.26l.37.63.13-.72c.07-.38,1.64-9.35,1.74-10.37.02-.23-.03-.58-.12-1.11-.33-2.15-1.03-6.64,2.17-10.57l.27-.33-.14-.03c-.11.11-.17.17-.17.17-.06,0-.11.02-.17.03Z"/>
              <path class="cls-42" d="m181.16,24.94s.75,1.46-.48,3.05c-1.23,1.59-4,4.36-4,4.36,0,0-.72.34.73,1.9,1.46,1.57,1.62,1.57,1.62,1.57,0,0,.22.22.54.22.25,0,.56-.13.88-.59.74-1.05,2.29-2.71,3-4.06.38-3.37-1.67-5.8-2.3-6.46Z"/>
              <path class="cls-47" d="m179.68,33.3c.66-.94,2.78-3.02,3.6-4.55-.16-.63-.38-1.19-.63-1.69-.11.3-.33.57-.52.93-1.04,1.93-4.08,4.73-4.08,4.73,0,0-.48.38.21.94,0,0,.22.22.54.22.25,0,.55-.13.88-.59Z"/>
              <path class="cls-6" d="m183.46,31.4c-.71,1.35-2.26,3-3,4.06-.32.46-.63.59-.88.59-.32,0-.54-.22-.54-.22,0,0-.16,0-1.62-1.57-1.46-1.57-.73-1.9-.73-1.9,0,0,2.77-2.77,4-4.36,1.22-1.59.48-3.05.48-3.05l-.18-.18-.06.3c.03.06.64,1.34-.45,2.76-1.13,1.48-3.67,4.04-3.95,4.31-.11.07-.23.21-.27.42-.09.47.23,1.08.97,1.88,1.06,1.14,1.47,1.49,1.66,1.6.09.08.34.27.7.27.4,0,.77-.24,1.1-.7.25-.36.61-.81.99-1.28.73-.9,1.51-1.83,1.98-2.73l-.2-.21Z"/>
              <path class="cls-46" d="m8.5,86.23c-.43,1.26-1.05,2.2-1.38,2.09-.33-.11-.24-1.23.2-2.49.44-1.27,1.06-2.2,1.38-2.09.33.11.24,1.23-.2,2.49Z"/>
              <path class="cls-46" d="m8.09,82.89c-.55,1.59-1.17,2.82-1.4,2.74-.23-.08.04-1.43.59-3.02.55-1.59,1.17-2.82,1.4-2.74.23.08-.04,1.43-.59,3.02Z"/>
              <path class="cls-46" d="m8.81,89.43c-.38,1.11-.92,1.93-1.21,1.83-.29-.1-.21-1.08.17-2.19.38-1.11.93-1.93,1.21-1.83.29.1.21,1.08-.17,2.19Z"/>
              <g class="cls-59">
                <path class="cls-11" d="m7.96,97.37s1.64-9.33,1.74-10.34c.1-1.02-1.92-6.87,2.11-11.83-2.76.5-4.45,5.57-6.24,9.49.03,2.85.34,9.21,2.39,12.68Z"/>
              </g>
              <path class="cls-48" d="m57.91,112.14c3.39-1.16,4.35-4.58,5.2-6.2.85-1.63-.3-1.53-1.69-1.25-.2.04-.42.08-.64.13,0,.79-.1,2.03-.69,3.11-.81,1.5-1.81,3.07-3.4,4.62.39-.12.8-.25,1.23-.4Z"/>
              <path class="cls-46" d="m51.06,110.4c0,1.59-.83,2.88-1.86,2.88s-1.86-1.29-1.86-2.88.83-2.88,1.86-2.88,1.86,1.29,1.86,2.88Z"/>
              <path class="cls-46" d="m56.31,109.66c0,1.59-.83,2.88-1.86,2.88s-1.86-1.29-1.86-2.88.83-2.88,1.86-2.88,1.86,1.29,1.86,2.88Z"/>
              <path class="cls-46" d="m45.45,110.75c0,1.39-.73,2.52-1.63,2.52s-1.62-1.13-1.62-2.52.73-2.52,1.62-2.52,1.63,1.13,1.63,2.52Z"/>
              <g class="cls-61">
                <path class="cls-12" d="m35.59,113.98s2.41-2.63,4.54-4.45c2.13-1.83,3.56-2.44,6.44-2.64,2.88-.2,7.35-.34,9.52-.91,2.17-.58,3.93-1.02,5.32-1.29,1.39-.27,2.54-.37,1.69,1.25-.85,1.63-1.81,5.04-5.2,6.2-3.39,1.16-5.24,1.41-9.54,1.7-4.3.3-12.77.14-12.77.14Z"/>
              </g>
            </g>
          </g>
          <path class="cls-34" d="m86.25,71.7c-.85-2.55-3.99-5.61-7.01-6.84-.85-.34-1.6-.5-2.22-.5h0c-1.59,0-2.33,1.07-1.72,2.91.85,2.55,3.99,5.61,7.02,6.84.85.34,1.59.51,2.21.51,1.59,0,2.33-1.07,1.72-2.91Zm-1.13,1.47c-.05.08-.26.15-.59.15s-.89-.07-1.73-.41c-2.67-1.08-5.55-3.85-6.28-6.05-.21-.64-.15-.98-.08-1.07.05-.07.26-.15.59-.15h0c.33,0,.89.07,1.73.41,2.67,1.08,5.55,3.85,6.28,6.05.21.64.15.98.09,1.07Z"/>
        </g>
      </g>
    </g>
  </g>
</svg>