<svg width="311" height="50" viewBox="0 0 311 50" fill="none" xmlns="http://www.w3.org/2000/svg">
<g filter="url(#filter0_ddiii_20_2818)">
<g clip-path="url(#clip0_20_2818)">
<rect x="3.03323" width="48" height="48" rx="12" fill="#2663EB"/>
<rect width="48" height="48" transform="translate(3.03323)" fill="url(#paint0_linear_20_2818)"/>
<g filter="url(#filter1_d_20_2818)">
<path fill-rule="evenodd" clip-rule="evenodd" d="M27.0332 39C35.3175 39 42.0332 32.2843 42.0332 24C42.0332 15.7157 35.3175 9 27.0332 9C18.7489 9 12.0332 15.7157 12.0332 24C12.0332 32.2843 18.7489 39 27.0332 39ZM31.7127 15.9876C31.9405 15.1785 31.1553 14.7001 30.4382 15.211L20.4281 22.3422C19.6504 22.8962 19.7727 24 20.6118 24H23.2478V23.9796H28.3851L24.1991 25.4566L22.3538 32.0124C22.126 32.8215 22.9111 33.2999 23.6282 32.789L33.6384 25.6579C34.4161 25.1038 34.2937 24 33.4547 24H29.4573L31.7127 15.9876Z" fill="url(#paint1_linear_20_2818)"/>
</g>
</g>
<rect x="4.03323" y="1" width="46" height="46" rx="11" stroke="url(#paint2_linear_20_2818)" stroke-width="2"/>
</g>
<path d="M64.9892 36.172C62.4959 36.172 60.5466 35.4807 59.1412 34.098C57.7359 32.6927 57.0332 30.7433 57.0332 28.25H61.6572C61.6572 29.4287 61.9519 30.358 62.5412 31.038C63.1532 31.6953 63.9919 32.024 65.0572 32.024H68.8312C69.8286 32.024 70.6332 31.82 71.2452 31.412C71.8799 30.9813 72.1972 30.4147 72.1972 29.712V28.556C72.1972 27.4453 71.3812 26.754 69.7492 26.482L63.4932 25.428C61.4532 25.088 59.9006 24.442 58.8352 23.49C57.7926 22.5153 57.2712 21.28 57.2712 19.784V17.88C57.2712 16.6787 57.5886 15.6247 58.2232 14.718C58.8806 13.7887 59.7986 13.0747 60.9772 12.576C62.1786 12.0773 63.5612 11.828 65.1252 11.828H68.9672C70.4406 11.828 71.7439 12.134 72.8772 12.746C74.0106 13.358 74.8832 14.2193 75.4952 15.33C76.1299 16.418 76.4472 17.6873 76.4472 19.138H71.8232C71.8232 18.186 71.5626 17.4267 71.0412 16.86C70.5199 16.2707 69.8286 15.976 68.9672 15.976H65.1252C64.1732 15.976 63.4026 16.18 62.8132 16.588C62.2466 16.996 61.9632 17.54 61.9632 18.22V19.138C61.9632 20.2713 62.7452 20.974 64.3092 21.246L70.5312 22.334C72.5939 22.6967 74.1692 23.3427 75.2572 24.272C76.3452 25.1787 76.8892 26.3573 76.8892 27.808V30.052C76.8892 31.2533 76.5492 32.3187 75.8692 33.248C75.2119 34.1773 74.2826 34.9027 73.0812 35.424C71.8799 35.9227 70.4859 36.172 68.8992 36.172H64.9892Z" fill="#0A0D12"/>
<path d="M80.1617 12.1H92.8097C94.8724 12.1 96.5271 12.6553 97.7737 13.766C99.0431 14.8767 99.6777 16.3387 99.6777 18.152V20.532C99.6777 21.7107 99.3377 22.742 98.6577 23.626C98.0004 24.4873 97.0371 25.1447 95.7677 25.598V25.666C96.4931 26.142 97.0371 26.686 97.3997 27.298C97.7851 27.91 98.1591 28.76 98.5217 29.848L100.426 35.9H95.5637L93.7617 30.256C93.4671 29.2813 93.0591 28.556 92.5377 28.08C92.0164 27.604 91.3704 27.366 90.5997 27.366H84.8537V35.9H80.1617V12.1ZM91.9257 23.32C92.8777 23.32 93.6257 23.0707 94.1697 22.572C94.7137 22.0507 94.9857 21.382 94.9857 20.566V18.356C94.9857 17.6987 94.7817 17.1773 94.3737 16.792C93.9657 16.384 93.4217 16.18 92.7417 16.18H84.8537V23.32H91.9257Z" fill="#0A0D12"/>
<path d="M110.345 36.172C107.851 36.172 105.902 35.4807 104.497 34.098C103.091 32.6927 102.389 30.7433 102.389 28.25H107.013C107.013 29.4287 107.307 30.358 107.897 31.038C108.509 31.6953 109.347 32.024 110.413 32.024H114.187C115.184 32.024 115.989 31.82 116.601 31.412C117.235 30.9813 117.553 30.4147 117.553 29.712V28.556C117.553 27.4453 116.737 26.754 115.105 26.482L108.849 25.428C106.809 25.088 105.256 24.442 104.191 23.49C103.148 22.5153 102.627 21.28 102.627 19.784V17.88C102.627 16.6787 102.944 15.6247 103.579 14.718C104.236 13.7887 105.154 13.0747 106.333 12.576C107.534 12.0773 108.917 11.828 110.481 11.828H114.323C115.796 11.828 117.099 12.134 118.233 12.746C119.366 13.358 120.239 14.2193 120.851 15.33C121.485 16.418 121.803 17.6873 121.803 19.138H117.179C117.179 18.186 116.918 17.4267 116.397 16.86C115.875 16.2707 115.184 15.976 114.323 15.976H110.481C109.529 15.976 108.758 16.18 108.169 16.588C107.602 16.996 107.319 17.54 107.319 18.22V19.138C107.319 20.2713 108.101 20.974 109.665 21.246L115.887 22.334C117.949 22.6967 119.525 23.3427 120.613 24.272C121.701 25.1787 122.245 26.3573 122.245 27.808V30.052C122.245 31.2533 121.905 32.3187 121.225 33.248C120.567 34.1773 119.638 34.9027 118.437 35.424C117.235 35.9227 115.841 36.172 114.255 36.172H110.345Z" fill="#0A0D12"/>
<path d="M141.16 16.18H133.612V12.1H153.4V16.18H145.852V35.9H141.16V16.18Z" fill="#0A0D12"/>
<path d="M155.931 12.1H168.579C170.642 12.1 172.297 12.6553 173.543 13.766C174.813 14.8767 175.447 16.3387 175.447 18.152V20.532C175.447 21.7107 175.107 22.742 174.427 23.626C173.77 24.4873 172.807 25.1447 171.537 25.598V25.666C172.263 26.142 172.807 26.686 173.169 27.298C173.555 27.91 173.929 28.76 174.291 29.848L176.195 35.9H171.333L169.531 30.256C169.237 29.2813 168.829 28.556 168.307 28.08C167.786 27.604 167.14 27.366 166.369 27.366H160.623V35.9H155.931V12.1ZM167.695 23.32C168.647 23.32 169.395 23.0707 169.939 22.572C170.483 22.0507 170.755 21.382 170.755 20.566V18.356C170.755 17.6987 170.551 17.1773 170.143 16.792C169.735 16.384 169.191 16.18 168.511 16.18H160.623V23.32H167.695Z" fill="#0A0D12"/>
<path d="M192.914 30.358H184.006L181.898 35.9H177.002L186.318 12.1H188.426C189.9 12.1 190.897 12.78 191.418 14.14L199.884 35.9H194.988L192.914 30.358ZM185.264 26.414H191.656L188.494 17.846H188.46L185.264 26.414Z" fill="#0A0D12"/>
<path d="M202.117 12.1H206.299L217.723 28.284V12.1H222.313V35.9H218.131L206.707 19.716V35.9H202.117V12.1Z" fill="#0A0D12"/>
<path d="M233.661 36.172C231.168 36.172 229.218 35.4807 227.813 34.098C226.408 32.6927 225.705 30.7433 225.705 28.25H230.329C230.329 29.4287 230.624 30.358 231.213 31.038C231.825 31.6953 232.664 32.024 233.729 32.024H237.503C238.5 32.024 239.305 31.82 239.917 31.412C240.552 30.9813 240.869 30.4147 240.869 29.712V28.556C240.869 27.4453 240.053 26.754 238.421 26.482L232.165 25.428C230.125 25.088 228.572 24.442 227.507 23.49C226.464 22.5153 225.943 21.28 225.943 19.784V17.88C225.943 16.6787 226.26 15.6247 226.895 14.718C227.552 13.7887 228.47 13.0747 229.649 12.576C230.85 12.0773 232.233 11.828 233.797 11.828H237.639C239.112 11.828 240.416 12.134 241.549 12.746C242.682 13.358 243.555 14.2193 244.167 15.33C244.802 16.418 245.119 17.6873 245.119 19.138H240.495C240.495 18.186 240.234 17.4267 239.713 16.86C239.192 16.2707 238.5 15.976 237.639 15.976H233.797C232.845 15.976 232.074 16.18 231.485 16.588C230.918 16.996 230.635 17.54 230.635 18.22V19.138C230.635 20.2713 231.417 20.974 232.981 21.246L239.203 22.334C241.266 22.6967 242.841 23.3427 243.929 24.272C245.017 25.1787 245.561 26.3573 245.561 27.808V30.052C245.561 31.2533 245.221 32.3187 244.541 33.248C243.884 34.1773 242.954 34.9027 241.753 35.424C240.552 35.9227 239.158 36.172 237.571 36.172H233.661Z" fill="#0A0D12"/>
<path d="M248.834 12.1H266.65V16.18H253.526V22.572H265.392V26.652H253.526V35.9H248.834V12.1Z" fill="#0A0D12"/>
<path d="M272.651 35.9C271.676 35.9 270.883 35.6053 270.271 35.016C269.659 34.4267 269.353 33.656 269.353 32.704V12.1H287.509V16.18H274.045V21.688H286.489V25.768H274.045V31.82H287.509V35.9H272.651Z" fill="#0A0D12"/>
<path d="M290.703 12.1H303.351C305.413 12.1 307.068 12.6553 308.315 13.766C309.584 14.8767 310.219 16.3387 310.219 18.152V20.532C310.219 21.7107 309.879 22.742 309.199 23.626C308.541 24.4873 307.578 25.1447 306.309 25.598V25.666C307.034 26.142 307.578 26.686 307.941 27.298C308.326 27.91 308.7 28.76 309.063 29.848L310.967 35.9H306.105L304.303 30.256C304.008 29.2813 303.6 28.556 303.079 28.08C302.557 27.604 301.911 27.366 301.141 27.366H295.395V35.9H290.703V12.1ZM302.467 23.32C303.419 23.32 304.167 23.0707 304.711 22.572C305.255 22.0507 305.527 21.382 305.527 20.566V18.356C305.527 17.6987 305.323 17.1773 304.915 16.792C304.507 16.384 303.963 16.18 303.283 16.18H295.395V23.32H302.467Z" fill="#0A0D12"/>
<defs>
<filter id="filter0_ddiii_20_2818" x="0.0332336" y="-3" width="54" height="57" filterUnits="userSpaceOnUse" color-interpolation-filters="sRGB">
<feFlood flood-opacity="0" result="BackgroundImageFix"/>
<feColorMatrix in="SourceAlpha" type="matrix" values="0 0 0 0 0 0 0 0 0 0 0 0 0 0 0 0 0 0 127 0" result="hardAlpha"/>
<feOffset dy="1"/>
<feGaussianBlur stdDeviation="0.5"/>
<feComposite in2="hardAlpha" operator="out"/>
<feColorMatrix type="matrix" values="0 0 0 0 0.162923 0 0 0 0 0.162923 0 0 0 0 0.162923 0 0 0 0.08 0"/>
<feBlend mode="normal" in2="BackgroundImageFix" result="effect1_dropShadow_20_2818"/>
<feColorMatrix in="SourceAlpha" type="matrix" values="0 0 0 0 0 0 0 0 0 0 0 0 0 0 0 0 0 0 127 0" result="hardAlpha"/>
<feMorphology radius="1" operator="erode" in="SourceAlpha" result="effect2_dropShadow_20_2818"/>
<feOffset dy="3"/>
<feGaussianBlur stdDeviation="2"/>
<feComposite in2="hardAlpha" operator="out"/>
<feColorMatrix type="matrix" values="0 0 0 0 0.164706 0 0 0 0 0.164706 0 0 0 0 0.164706 0 0 0 0.14 0"/>
<feBlend mode="normal" in2="effect1_dropShadow_20_2818" result="effect2_dropShadow_20_2818"/>
<feBlend mode="normal" in="SourceGraphic" in2="effect2_dropShadow_20_2818" result="shape"/>
<feColorMatrix in="SourceAlpha" type="matrix" values="0 0 0 0 0 0 0 0 0 0 0 0 0 0 0 0 0 0 127 0" result="hardAlpha"/>
<feOffset dy="-3"/>
<feGaussianBlur stdDeviation="1.5"/>
<feComposite in2="hardAlpha" operator="arithmetic" k2="-1" k3="1"/>
<feColorMatrix type="matrix" values="0 0 0 0 0 0 0 0 0 0 0 0 0 0 0 0 0 0 0.1 0"/>
<feBlend mode="normal" in2="shape" result="effect3_innerShadow_20_2818"/>
<feColorMatrix in="SourceAlpha" type="matrix" values="0 0 0 0 0 0 0 0 0 0 0 0 0 0 0 0 0 0 127 0" result="hardAlpha"/>
<feOffset dy="3"/>
<feGaussianBlur stdDeviation="1.5"/>
<feComposite in2="hardAlpha" operator="arithmetic" k2="-1" k3="1"/>
<feColorMatrix type="matrix" values="0 0 0 0 1 0 0 0 0 1 0 0 0 0 1 0 0 0 0.1 0"/>
<feBlend mode="normal" in2="effect3_innerShadow_20_2818" result="effect4_innerShadow_20_2818"/>
<feColorMatrix in="SourceAlpha" type="matrix" values="0 0 0 0 0 0 0 0 0 0 0 0 0 0 0 0 0 0 127 0" result="hardAlpha"/>
<feMorphology radius="1" operator="erode" in="SourceAlpha" result="effect5_innerShadow_20_2818"/>
<feOffset/>
<feComposite in2="hardAlpha" operator="arithmetic" k2="-1" k3="1"/>
<feColorMatrix type="matrix" values="0 0 0 0 0 0 0 0 0 0 0 0 0 0 0 0 0 0 0.2 0"/>
<feBlend mode="normal" in2="effect4_innerShadow_20_2818" result="effect5_innerShadow_20_2818"/>
</filter>
<filter id="filter1_d_20_2818" x="9.03323" y="5.25" width="36" height="42" filterUnits="userSpaceOnUse" color-interpolation-filters="sRGB">
<feFlood flood-opacity="0" result="BackgroundImageFix"/>
<feColorMatrix in="SourceAlpha" type="matrix" values="0 0 0 0 0 0 0 0 0 0 0 0 0 0 0 0 0 0 127 0" result="hardAlpha"/>
<feMorphology radius="1.5" operator="erode" in="SourceAlpha" result="effect1_dropShadow_20_2818"/>
<feOffset dy="2.25"/>
<feGaussianBlur stdDeviation="2.25"/>
<feComposite in2="hardAlpha" operator="out"/>
<feColorMatrix type="matrix" values="0 0 0 0 0.141176 0 0 0 0 0.141176 0 0 0 0 0.141176 0 0 0 0.1 0"/>
<feBlend mode="normal" in2="BackgroundImageFix" result="effect1_dropShadow_20_2818"/>
<feBlend mode="normal" in="SourceGraphic" in2="effect1_dropShadow_20_2818" result="shape"/>
</filter>
<linearGradient id="paint0_linear_20_2818" x1="24" y1="5.96047e-07" x2="26" y2="48" gradientUnits="userSpaceOnUse">
<stop stop-color="white" stop-opacity="0"/>
<stop offset="1" stop-color="white" stop-opacity="0.12"/>
</linearGradient>
<linearGradient id="paint1_linear_20_2818" x1="27.0332" y1="9" x2="27.0332" y2="39" gradientUnits="userSpaceOnUse">
<stop stop-color="white" stop-opacity="0.8"/>
<stop offset="1" stop-color="white" stop-opacity="0.5"/>
</linearGradient>
<linearGradient id="paint2_linear_20_2818" x1="27.0332" y1="0" x2="27.0332" y2="48" gradientUnits="userSpaceOnUse">
<stop stop-color="white" stop-opacity="0.12"/>
<stop offset="1" stop-color="white" stop-opacity="0"/>
</linearGradient>
<clipPath id="clip0_20_2818">
<rect x="3.03323" width="48" height="48" rx="12" fill="white"/>
</clipPath>
</defs>
</svg>
