<svg width="179" height="52" viewBox="0 0 179 52" fill="none" xmlns="http://www.w3.org/2000/svg">
<g clip-path="url(#clip0_20_2827)">
<g filter="url(#filter0_ddiii_20_2827)">
<g clip-path="url(#clip1_20_2827)">
<rect x="1" y="2" width="48" height="48" rx="12" fill="#A58124"/>
<rect width="48" height="48" transform="translate(1 2)" fill="url(#paint0_linear_20_2827)"/>
<g filter="url(#filter1_d_20_2827)">
<path fill-rule="evenodd" clip-rule="evenodd" d="M25 41C33.2843 41 40 34.2843 40 26C40 17.7157 33.2843 11 25 11C16.7157 11 10 17.7157 10 26C10 34.2843 16.7157 41 25 41ZM29.6795 17.9876C29.9073 17.1785 29.1221 16.7001 28.405 17.211L18.3948 24.3422C17.6172 24.8962 17.7395 26 18.5786 26H21.2145V25.9796H26.3519L22.1659 27.4566L20.3205 34.0124C20.0928 34.8215 20.8779 35.2999 21.595 34.789L31.6052 27.6579C32.3829 27.1038 32.2605 26 31.4214 26H27.4241L29.6795 17.9876Z" fill="url(#paint1_linear_20_2827)"/>
</g>
</g>
<rect x="2" y="3" width="46" height="46" rx="11" stroke="url(#paint2_linear_20_2827)" stroke-width="2"/>
</g>
<path d="M68.888 24.232C66.7613 24.232 65.0987 23.6423 63.9 22.463C62.7013 21.2643 62.102 19.6017 62.102 17.475H66.046C66.046 18.4803 66.2973 19.273 66.8 19.853C67.322 20.4137 68.0373 20.694 68.946 20.694H72.165C73.0157 20.694 73.702 20.52 74.224 20.172C74.7653 19.8047 75.036 19.3213 75.036 18.722V17.736C75.036 16.7887 74.34 16.199 72.948 15.967L67.612 15.068C65.872 14.778 64.5477 14.227 63.639 13.415C62.7497 12.5837 62.305 11.53 62.305 10.254V8.63C62.305 7.60533 62.5757 6.70633 63.117 5.933C63.6777 5.14033 64.4607 4.53133 65.466 4.106C66.4907 3.68067 67.67 3.468 69.004 3.468H72.281C73.5377 3.468 74.6493 3.729 75.616 4.251C76.5827 4.773 77.327 5.50767 77.849 6.455C78.3903 7.383 78.661 8.46567 78.661 9.703H74.717C74.717 8.891 74.4947 8.24333 74.05 7.76C73.6053 7.25733 73.0157 7.006 72.281 7.006H69.004C68.192 7.006 67.5347 7.18 67.032 7.528C66.5487 7.876 66.307 8.34 66.307 8.92V9.703C66.307 10.6697 66.974 11.269 68.308 11.501L73.615 12.429C75.3743 12.7383 76.718 13.2893 77.646 14.082C78.574 14.8553 79.038 15.8607 79.038 17.098V19.012C79.038 20.0367 78.748 20.9453 78.168 21.738C77.6073 22.5307 76.8147 23.1493 75.79 23.594C74.7653 24.0193 73.5763 24.232 72.223 24.232H68.888ZM86.3641 7.18H79.9261V3.7H96.8041V7.18H90.3661V24H86.3641V7.18ZM104.93 24.232C103.442 24.232 102.127 23.913 100.986 23.275C99.8651 22.637 98.9951 21.738 98.3765 20.578C97.7578 19.3987 97.4485 18.0453 97.4485 16.518V11.182C97.4485 9.65467 97.7578 8.311 98.3765 7.151C99.0145 5.97167 99.9038 5.063 101.044 4.425C102.204 3.787 103.538 3.468 105.046 3.468H108.12C109.57 3.468 110.846 3.77733 111.948 4.396C113.05 5.01467 113.901 5.88467 114.5 7.006C115.119 8.108 115.428 9.39367 115.428 10.863H111.484C111.484 9.703 111.175 8.775 110.556 8.079C109.938 7.36367 109.126 7.006 108.12 7.006H105.046C103.964 7.006 103.094 7.412 102.436 8.224C101.779 9.01667 101.45 10.0607 101.45 11.356V16.344C101.45 17.6393 101.769 18.693 102.407 19.505C103.045 20.2977 103.886 20.694 104.93 20.694H108.062C109.087 20.694 109.918 20.2977 110.556 19.505C111.214 18.7123 111.542 17.6683 111.542 16.373H115.486C115.486 17.939 115.177 19.3213 114.558 20.52C113.94 21.6993 113.07 22.6177 111.948 23.275C110.827 23.913 109.532 24.232 108.062 24.232H104.93ZM67.786 33.18H61.348V29.7H78.226V33.18H71.788V50H67.786V33.18ZM77.182 35.529H80.836V37.385C81.2033 36.8243 81.7253 36.37 82.402 36.022C83.098 35.6547 83.823 35.471 84.577 35.471H86.549V38.893H84.577C83.5523 38.893 82.721 39.2023 82.083 39.821C81.445 40.4397 81.126 41.2323 81.126 42.199V50H77.182V35.529ZM92.4124 50.232C90.9044 50.232 89.6864 49.855 88.7584 49.101C87.8304 48.347 87.3664 47.3513 87.3664 46.114V45.041C87.3664 43.823 87.8498 42.8467 88.8164 42.112C89.7831 41.358 91.0591 40.981 92.6444 40.981H94.4134C94.9161 40.981 95.4574 41.0487 96.0374 41.184C96.6174 41.3193 97.1491 41.503 97.6324 41.735V40.227C97.6324 39.7437 97.4681 39.357 97.1394 39.067C96.8301 38.7577 96.4144 38.603 95.8924 38.603H93.3984C92.8571 38.603 92.4221 38.7287 92.0934 38.98C91.7648 39.2313 91.6004 39.5697 91.6004 39.995H87.7724C87.7724 38.5837 88.2848 37.4527 89.3094 36.602C90.3534 35.732 91.7164 35.297 93.3984 35.297H95.8924C97.5938 35.297 98.9664 35.7513 100.01 36.66C101.054 37.5493 101.576 38.7383 101.576 40.227V50H97.9224V48.26C97.4584 48.8593 96.8881 49.3427 96.2114 49.71C95.5348 50.058 94.8678 50.232 94.2104 50.232H92.4124ZM94.5004 47.216C95.2158 47.216 95.8538 47.0323 96.4144 46.665C96.9751 46.2977 97.3811 45.8047 97.6324 45.186V44.693C97.3231 44.461 96.8881 44.2773 96.3274 44.142C95.7861 44.0067 95.2061 43.939 94.5874 43.939H92.7604C92.2964 43.939 91.9194 44.055 91.6294 44.287C91.3394 44.519 91.1944 44.8283 91.1944 45.215V45.969C91.1944 46.3363 91.3491 46.636 91.6584 46.868C91.9871 47.1 92.4124 47.216 92.9344 47.216H94.5004ZM104.766 35.529H108.42V37.269C108.845 36.6697 109.396 36.196 110.073 35.848C110.75 35.4807 111.426 35.297 112.103 35.297H113.843C115.39 35.297 116.627 35.7803 117.555 36.747C118.502 37.7137 118.976 38.9897 118.976 40.575V50H115.032V40.72C115.032 40.1207 114.868 39.6373 114.539 39.27C114.23 38.9027 113.824 38.719 113.321 38.719H111.581C110.904 38.719 110.295 38.9703 109.754 39.473C109.232 39.9563 108.884 40.5943 108.71 41.387V50H104.766V35.529ZM127.288 50.232C125.528 50.232 124.117 49.768 123.054 48.84C121.99 47.912 121.459 46.694 121.459 45.186H125.345C125.345 45.708 125.519 46.1333 125.867 46.462C126.234 46.7713 126.708 46.926 127.288 46.926H129.898C131.058 46.926 131.638 46.607 131.638 45.969V45.476C131.638 45.2827 131.541 45.1087 131.348 44.954C131.154 44.78 130.893 44.664 130.565 44.606L125.548 43.736C124.368 43.5427 123.431 43.127 122.735 42.489C122.058 41.8317 121.72 41.068 121.72 40.198V39.241C121.72 38.0037 122.222 37.037 123.228 36.341C124.252 35.645 125.673 35.297 127.491 35.297H129.753C131.377 35.297 132.682 35.732 133.668 36.602C134.673 37.4527 135.176 38.5837 135.176 39.995H131.29C131.29 39.5697 131.145 39.2313 130.855 38.98C130.584 38.7287 130.217 38.603 129.753 38.603H127.549C126.292 38.603 125.664 38.893 125.664 39.473V39.937C125.664 40.1497 125.741 40.3333 125.896 40.488C126.07 40.6233 126.311 40.72 126.621 40.778L131.899 41.735C133.001 41.9283 133.89 42.344 134.567 42.982C135.243 43.6007 135.582 44.3063 135.582 45.099V46.143C135.582 47.3997 135.06 48.3953 134.016 49.13C132.991 49.8647 131.618 50.232 129.898 50.232H127.288ZM139.235 38.893H136.741V35.529H139.235V34.572C139.235 33.006 139.728 31.788 140.714 30.918C141.719 30.0287 143.111 29.584 144.89 29.584H146.978V32.948H144.948C144.329 32.948 143.875 33.0833 143.585 33.354C143.314 33.6247 143.179 34.05 143.179 34.63V35.529H146.659V38.893H143.179V50H139.235V38.893ZM153.75 50.232C152.532 50.232 151.45 50.0097 150.502 49.565C149.574 49.101 148.849 48.463 148.327 47.651C147.805 46.8197 147.544 45.8723 147.544 44.809V41.068C147.544 39.9273 147.805 38.922 148.327 38.052C148.849 37.182 149.574 36.5053 150.502 36.022C151.45 35.5387 152.532 35.297 153.75 35.297H156.07C157.926 35.297 159.415 35.819 160.536 36.863C161.658 37.907 162.218 39.299 162.218 41.039V44.113H151.488V44.809C151.488 45.447 151.691 45.9593 152.097 46.346C152.503 46.7327 153.054 46.926 153.75 46.926H156.012C156.689 46.926 157.23 46.781 157.636 46.491C158.062 46.1817 158.274 45.7853 158.274 45.302H162.16C162.16 46.2687 161.899 47.129 161.377 47.883C160.855 48.637 160.121 49.217 159.173 49.623C158.245 50.029 157.172 50.232 155.954 50.232H153.75ZM158.332 41.271V41.039C158.332 40.285 158.129 39.6857 157.723 39.241C157.317 38.777 156.776 38.545 156.099 38.545H153.75C153.054 38.545 152.494 38.7867 152.068 39.27C151.643 39.7533 151.43 40.3913 151.43 41.184V41.271H158.332ZM164.89 35.529H168.544V37.385C168.911 36.8243 169.433 36.37 170.11 36.022C170.806 35.6547 171.531 35.471 172.285 35.471H174.257V38.893H172.285C171.26 38.893 170.429 39.2023 169.791 39.821C169.153 40.4397 168.834 41.2323 168.834 42.199V50H164.89V35.529Z" fill="#0A0D12"/>
</g>
<defs>
<filter id="filter0_ddiii_20_2827" x="-2" y="-1" width="54" height="57" filterUnits="userSpaceOnUse" color-interpolation-filters="sRGB">
<feFlood flood-opacity="0" result="BackgroundImageFix"/>
<feColorMatrix in="SourceAlpha" type="matrix" values="0 0 0 0 0 0 0 0 0 0 0 0 0 0 0 0 0 0 127 0" result="hardAlpha"/>
<feOffset dy="1"/>
<feGaussianBlur stdDeviation="0.5"/>
<feComposite in2="hardAlpha" operator="out"/>
<feColorMatrix type="matrix" values="0 0 0 0 0.162923 0 0 0 0 0.162923 0 0 0 0 0.162923 0 0 0 0.08 0"/>
<feBlend mode="normal" in2="BackgroundImageFix" result="effect1_dropShadow_20_2827"/>
<feColorMatrix in="SourceAlpha" type="matrix" values="0 0 0 0 0 0 0 0 0 0 0 0 0 0 0 0 0 0 127 0" result="hardAlpha"/>
<feMorphology radius="1" operator="erode" in="SourceAlpha" result="effect2_dropShadow_20_2827"/>
<feOffset dy="3"/>
<feGaussianBlur stdDeviation="2"/>
<feComposite in2="hardAlpha" operator="out"/>
<feColorMatrix type="matrix" values="0 0 0 0 0.164706 0 0 0 0 0.164706 0 0 0 0 0.164706 0 0 0 0.14 0"/>
<feBlend mode="normal" in2="effect1_dropShadow_20_2827" result="effect2_dropShadow_20_2827"/>
<feBlend mode="normal" in="SourceGraphic" in2="effect2_dropShadow_20_2827" result="shape"/>
<feColorMatrix in="SourceAlpha" type="matrix" values="0 0 0 0 0 0 0 0 0 0 0 0 0 0 0 0 0 0 127 0" result="hardAlpha"/>
<feOffset dy="-3"/>
<feGaussianBlur stdDeviation="1.5"/>
<feComposite in2="hardAlpha" operator="arithmetic" k2="-1" k3="1"/>
<feColorMatrix type="matrix" values="0 0 0 0 0 0 0 0 0 0 0 0 0 0 0 0 0 0 0.1 0"/>
<feBlend mode="normal" in2="shape" result="effect3_innerShadow_20_2827"/>
<feColorMatrix in="SourceAlpha" type="matrix" values="0 0 0 0 0 0 0 0 0 0 0 0 0 0 0 0 0 0 127 0" result="hardAlpha"/>
<feOffset dy="3"/>
<feGaussianBlur stdDeviation="1.5"/>
<feComposite in2="hardAlpha" operator="arithmetic" k2="-1" k3="1"/>
<feColorMatrix type="matrix" values="0 0 0 0 1 0 0 0 0 1 0 0 0 0 1 0 0 0 0.1 0"/>
<feBlend mode="normal" in2="effect3_innerShadow_20_2827" result="effect4_innerShadow_20_2827"/>
<feColorMatrix in="SourceAlpha" type="matrix" values="0 0 0 0 0 0 0 0 0 0 0 0 0 0 0 0 0 0 127 0" result="hardAlpha"/>
<feMorphology radius="1" operator="erode" in="SourceAlpha" result="effect5_innerShadow_20_2827"/>
<feOffset/>
<feComposite in2="hardAlpha" operator="arithmetic" k2="-1" k3="1"/>
<feColorMatrix type="matrix" values="0 0 0 0 0 0 0 0 0 0 0 0 0 0 0 0 0 0 0.2 0"/>
<feBlend mode="normal" in2="effect4_innerShadow_20_2827" result="effect5_innerShadow_20_2827"/>
</filter>
<filter id="filter1_d_20_2827" x="7" y="7.25" width="36" height="42" filterUnits="userSpaceOnUse" color-interpolation-filters="sRGB">
<feFlood flood-opacity="0" result="BackgroundImageFix"/>
<feColorMatrix in="SourceAlpha" type="matrix" values="0 0 0 0 0 0 0 0 0 0 0 0 0 0 0 0 0 0 127 0" result="hardAlpha"/>
<feMorphology radius="1.5" operator="erode" in="SourceAlpha" result="effect1_dropShadow_20_2827"/>
<feOffset dy="2.25"/>
<feGaussianBlur stdDeviation="2.25"/>
<feComposite in2="hardAlpha" operator="out"/>
<feColorMatrix type="matrix" values="0 0 0 0 0.141176 0 0 0 0 0.141176 0 0 0 0 0.141176 0 0 0 0.1 0"/>
<feBlend mode="normal" in2="BackgroundImageFix" result="effect1_dropShadow_20_2827"/>
<feBlend mode="normal" in="SourceGraphic" in2="effect1_dropShadow_20_2827" result="shape"/>
</filter>
<linearGradient id="paint0_linear_20_2827" x1="24" y1="5.96047e-07" x2="26" y2="48" gradientUnits="userSpaceOnUse">
<stop stop-color="white" stop-opacity="0"/>
<stop offset="1" stop-color="white" stop-opacity="0.12"/>
</linearGradient>
<linearGradient id="paint1_linear_20_2827" x1="25" y1="11" x2="25" y2="41" gradientUnits="userSpaceOnUse">
<stop stop-color="white" stop-opacity="0.8"/>
<stop offset="1" stop-color="white" stop-opacity="0.5"/>
</linearGradient>
<linearGradient id="paint2_linear_20_2827" x1="25" y1="2" x2="25" y2="50" gradientUnits="userSpaceOnUse">
<stop stop-color="white" stop-opacity="0.12"/>
<stop offset="1" stop-color="white" stop-opacity="0"/>
</linearGradient>
<clipPath id="clip0_20_2827">
<rect width="179" height="52" fill="white"/>
</clipPath>
<clipPath id="clip1_20_2827">
<rect x="1" y="2" width="48" height="48" rx="12" fill="white"/>
</clipPath>
</defs>
</svg>
