<svg width="321" height="52" viewBox="0 0 321 52" fill="none" xmlns="http://www.w3.org/2000/svg">
<g clip-path="url(#clip0_20_2827)">
<g filter="url(#filter0_ddiii_20_2827)">
<g clip-path="url(#clip1_20_2827)">
<rect x="3" y="2" width="48" height="48" rx="12" fill="#2663EB"/>
<rect width="48" height="48" transform="translate(3 2)" fill="url(#paint0_linear_20_2827)"/>
<g filter="url(#filter1_d_20_2827)">
<path fill-rule="evenodd" clip-rule="evenodd" d="M27 41C35.2843 41 42 34.2843 42 26C42 17.7157 35.2843 11 27 11C18.7157 11 12 17.7157 12 26C12 34.2843 18.7157 41 27 41ZM31.6795 17.9876C31.9073 17.1785 31.1221 16.7001 30.405 17.211L20.3948 24.3422C19.6172 24.8962 19.7395 26 20.5786 26H23.2145V25.9796H28.3519L24.1659 27.4566L22.3205 34.0124C22.0928 34.8215 22.8779 35.2999 23.595 34.789L33.6052 27.6579C34.3829 27.1038 34.2605 26 33.4214 26H29.4241L31.6795 17.9876Z" fill="url(#paint1_linear_20_2827)"/>
</g>
</g>
<rect x="4" y="3" width="46" height="46" rx="11" stroke="url(#paint2_linear_20_2827)" stroke-width="2"/>
</g>
<path d="M66.248 39.272C63.7547 39.272 61.8053 38.5807 60.4 37.198C58.9947 35.7927 58.292 33.8433 58.292 31.35H62.916C62.916 32.5287 63.2107 33.458 63.8 34.138C64.412 34.7953 65.2507 35.124 66.316 35.124H70.09C71.0873 35.124 71.892 34.92 72.504 34.512C73.1387 34.0813 73.456 33.5147 73.456 32.812V31.656C73.456 30.5453 72.64 29.854 71.008 29.582L64.752 28.528C62.712 28.188 61.1593 27.542 60.094 26.59C59.0513 25.6153 58.53 24.38 58.53 22.884V20.98C58.53 19.7787 58.8473 18.7247 59.482 17.818C60.1393 16.8887 61.0573 16.1747 62.236 15.676C63.4373 15.1773 64.82 14.928 66.384 14.928H70.226C71.6993 14.928 73.0027 15.234 74.136 15.846C75.2693 16.458 76.142 17.3193 76.754 18.43C77.3887 19.518 77.706 20.7873 77.706 22.238H73.082C73.082 21.286 72.8213 20.5267 72.3 19.96C71.7787 19.3707 71.0873 19.076 70.226 19.076H66.384C65.432 19.076 64.6613 19.28 64.072 19.688C63.5053 20.096 63.222 20.64 63.222 21.32V22.238C63.222 23.3713 64.004 24.074 65.568 24.346L71.79 25.434C73.8527 25.7967 75.428 26.4427 76.516 27.372C77.604 28.2787 78.148 29.4573 78.148 30.908V33.152C78.148 34.3533 77.808 35.4187 77.128 36.348C76.4707 37.2773 75.5413 38.0027 74.34 38.524C73.1387 39.0227 71.7447 39.272 70.158 39.272H66.248ZM81.4205 15.2H94.0685C96.1312 15.2 97.7858 15.7553 99.0325 16.866C100.302 17.9767 100.937 19.4387 100.937 21.252V23.632C100.937 24.8107 100.597 25.842 99.9165 26.726C99.2592 27.5873 98.2958 28.2447 97.0265 28.698V28.766C97.7518 29.242 98.2958 29.786 98.6585 30.398C99.0438 31.01 99.4178 31.86 99.7805 32.948L101.685 39H96.8225L95.0205 33.356C94.7258 32.3813 94.3178 31.656 93.7965 31.18C93.2752 30.704 92.6292 30.466 91.8585 30.466H86.1125V39H81.4205V15.2ZM93.1845 26.42C94.1365 26.42 94.8845 26.1707 95.4285 25.672C95.9725 25.1507 96.2445 24.482 96.2445 23.666V21.456C96.2445 20.7987 96.0405 20.2773 95.6325 19.892C95.2245 19.484 94.6805 19.28 94.0005 19.28H86.1125V26.42H93.1845ZM111.603 39.272C109.11 39.272 107.161 38.5807 105.755 37.198C104.35 35.7927 103.647 33.8433 103.647 31.35H108.271C108.271 32.5287 108.566 33.458 109.155 34.138C109.767 34.7953 110.606 35.124 111.671 35.124H115.445C116.443 35.124 117.247 34.92 117.859 34.512C118.494 34.0813 118.811 33.5147 118.811 32.812V31.656C118.811 30.5453 117.995 29.854 116.363 29.582L110.107 28.528C108.067 28.188 106.515 27.542 105.449 26.59C104.407 25.6153 103.885 24.38 103.885 22.884V20.98C103.885 19.7787 104.203 18.7247 104.837 17.818C105.495 16.8887 106.413 16.1747 107.591 15.676C108.793 15.1773 110.175 14.928 111.739 14.928H115.581C117.055 14.928 118.358 15.234 119.491 15.846C120.625 16.458 121.497 17.3193 122.109 18.43C122.744 19.518 123.061 20.7873 123.061 22.238H118.437C118.437 21.286 118.177 20.5267 117.655 19.96C117.134 19.3707 116.443 19.076 115.581 19.076H111.739C110.787 19.076 110.017 19.28 109.427 19.688C108.861 20.096 108.577 20.64 108.577 21.32V22.238C108.577 23.3713 109.359 24.074 110.923 24.346L117.145 25.434C119.208 25.7967 120.783 26.4427 121.871 27.372C122.959 28.2787 123.503 29.4573 123.503 30.908V33.152C123.503 34.3533 123.163 35.4187 122.483 36.348C121.826 37.2773 120.897 38.0027 119.695 38.524C118.494 39.0227 117.1 39.272 115.513 39.272H111.603ZM142.419 19.28H134.871V15.2H154.659V19.28H147.111V39H142.419V19.28ZM157.19 15.2H169.838C171.901 15.2 173.555 15.7553 174.802 16.866C176.071 17.9767 176.706 19.4387 176.706 21.252V23.632C176.706 24.8107 176.366 25.842 175.686 26.726C175.029 27.5873 174.065 28.2447 172.796 28.698V28.766C173.521 29.242 174.065 29.786 174.428 30.398C174.813 31.01 175.187 31.86 175.55 32.948L177.454 39H172.592L170.79 33.356C170.495 32.3813 170.087 31.656 169.566 31.18C169.045 30.704 168.399 30.466 167.628 30.466H161.882V39H157.19V15.2ZM168.954 26.42C169.906 26.42 170.654 26.1707 171.198 25.672C171.742 25.1507 172.014 24.482 172.014 23.666V21.456C172.014 20.7987 171.81 20.2773 171.402 19.892C170.994 19.484 170.45 19.28 169.77 19.28H161.882V26.42H168.954ZM194.173 33.458H185.265L183.157 39H178.261L187.577 15.2H189.685C191.158 15.2 192.156 15.88 192.677 17.24L201.143 39H196.247L194.173 33.458ZM186.523 29.514H192.915L189.753 20.946H189.719L186.523 29.514ZM203.376 15.2H207.558L218.982 31.384V15.2H223.572V39H219.39L207.966 22.816V39H203.376V15.2ZM234.92 39.272C232.427 39.272 230.477 38.5807 229.072 37.198C227.667 35.7927 226.964 33.8433 226.964 31.35H231.588C231.588 32.5287 231.883 33.458 232.472 34.138C233.084 34.7953 233.923 35.124 234.988 35.124H238.762C239.759 35.124 240.564 34.92 241.176 34.512C241.811 34.0813 242.128 33.5147 242.128 32.812V31.656C242.128 30.5453 241.312 29.854 239.68 29.582L233.424 28.528C231.384 28.188 229.831 27.542 228.766 26.59C227.723 25.6153 227.202 24.38 227.202 22.884V20.98C227.202 19.7787 227.519 18.7247 228.154 17.818C228.811 16.8887 229.729 16.1747 230.908 15.676C232.109 15.1773 233.492 14.928 235.056 14.928H238.898C240.371 14.928 241.675 15.234 242.808 15.846C243.941 16.458 244.814 17.3193 245.426 18.43C246.061 19.518 246.378 20.7873 246.378 22.238H241.754C241.754 21.286 241.493 20.5267 240.972 19.96C240.451 19.3707 239.759 19.076 238.898 19.076H235.056C234.104 19.076 233.333 19.28 232.744 19.688C232.177 20.096 231.894 20.64 231.894 21.32V22.238C231.894 23.3713 232.676 24.074 234.24 24.346L240.462 25.434C242.525 25.7967 244.1 26.4427 245.188 27.372C246.276 28.2787 246.82 29.4573 246.82 30.908V33.152C246.82 34.3533 246.48 35.4187 245.8 36.348C245.143 37.2773 244.213 38.0027 243.012 38.524C241.811 39.0227 240.417 39.272 238.83 39.272H234.92ZM250.092 15.2H267.908V19.28H254.784V25.672H266.65V29.752H254.784V39H250.092V15.2ZM273.91 39C272.935 39 272.142 38.7053 271.53 38.116C270.918 37.5267 270.612 36.756 270.612 35.804V15.2H288.768V19.28H275.304V24.788H287.748V28.868H275.304V34.92H288.768V39H273.91ZM291.962 15.2H304.61C306.672 15.2 308.327 15.7553 309.574 16.866C310.843 17.9767 311.478 19.4387 311.478 21.252V23.632C311.478 24.8107 311.138 25.842 310.458 26.726C309.8 27.5873 308.837 28.2447 307.568 28.698V28.766C308.293 29.242 308.837 29.786 309.2 30.398C309.585 31.01 309.959 31.86 310.322 32.948L312.226 39H307.364L305.562 33.356C305.267 32.3813 304.859 31.656 304.338 31.18C303.816 30.704 303.17 30.466 302.4 30.466H296.654V39H291.962V15.2ZM303.726 26.42C304.678 26.42 305.426 26.1707 305.97 25.672C306.514 25.1507 306.786 24.482 306.786 23.666V21.456C306.786 20.7987 306.582 20.2773 306.174 19.892C305.766 19.484 305.222 19.28 304.542 19.28H296.654V26.42H303.726Z" fill="#0A0D12"/>
</g>
<defs>
<filter id="filter0_ddiii_20_2827" x="0" y="-1" width="54" height="57" filterUnits="userSpaceOnUse" color-interpolation-filters="sRGB">
<feFlood flood-opacity="0" result="BackgroundImageFix"/>
<feColorMatrix in="SourceAlpha" type="matrix" values="0 0 0 0 0 0 0 0 0 0 0 0 0 0 0 0 0 0 127 0" result="hardAlpha"/>
<feOffset dy="1"/>
<feGaussianBlur stdDeviation="0.5"/>
<feComposite in2="hardAlpha" operator="out"/>
<feColorMatrix type="matrix" values="0 0 0 0 0.162923 0 0 0 0 0.162923 0 0 0 0 0.162923 0 0 0 0.08 0"/>
<feBlend mode="normal" in2="BackgroundImageFix" result="effect1_dropShadow_20_2827"/>
<feColorMatrix in="SourceAlpha" type="matrix" values="0 0 0 0 0 0 0 0 0 0 0 0 0 0 0 0 0 0 127 0" result="hardAlpha"/>
<feMorphology radius="1" operator="erode" in="SourceAlpha" result="effect2_dropShadow_20_2827"/>
<feOffset dy="3"/>
<feGaussianBlur stdDeviation="2"/>
<feComposite in2="hardAlpha" operator="out"/>
<feColorMatrix type="matrix" values="0 0 0 0 0.164706 0 0 0 0 0.164706 0 0 0 0 0.164706 0 0 0 0.14 0"/>
<feBlend mode="normal" in2="effect1_dropShadow_20_2827" result="effect2_dropShadow_20_2827"/>
<feBlend mode="normal" in="SourceGraphic" in2="effect2_dropShadow_20_2827" result="shape"/>
<feColorMatrix in="SourceAlpha" type="matrix" values="0 0 0 0 0 0 0 0 0 0 0 0 0 0 0 0 0 0 127 0" result="hardAlpha"/>
<feOffset dy="-3"/>
<feGaussianBlur stdDeviation="1.5"/>
<feComposite in2="hardAlpha" operator="arithmetic" k2="-1" k3="1"/>
<feColorMatrix type="matrix" values="0 0 0 0 0 0 0 0 0 0 0 0 0 0 0 0 0 0 0.1 0"/>
<feBlend mode="normal" in2="shape" result="effect3_innerShadow_20_2827"/>
<feColorMatrix in="SourceAlpha" type="matrix" values="0 0 0 0 0 0 0 0 0 0 0 0 0 0 0 0 0 0 127 0" result="hardAlpha"/>
<feOffset dy="3"/>
<feGaussianBlur stdDeviation="1.5"/>
<feComposite in2="hardAlpha" operator="arithmetic" k2="-1" k3="1"/>
<feColorMatrix type="matrix" values="0 0 0 0 1 0 0 0 0 1 0 0 0 0 1 0 0 0 0.1 0"/>
<feBlend mode="normal" in2="effect3_innerShadow_20_2827" result="effect4_innerShadow_20_2827"/>
<feColorMatrix in="SourceAlpha" type="matrix" values="0 0 0 0 0 0 0 0 0 0 0 0 0 0 0 0 0 0 127 0" result="hardAlpha"/>
<feMorphology radius="1" operator="erode" in="SourceAlpha" result="effect5_innerShadow_20_2827"/>
<feOffset/>
<feComposite in2="hardAlpha" operator="arithmetic" k2="-1" k3="1"/>
<feColorMatrix type="matrix" values="0 0 0 0 0 0 0 0 0 0 0 0 0 0 0 0 0 0 0.2 0"/>
<feBlend mode="normal" in2="effect4_innerShadow_20_2827" result="effect5_innerShadow_20_2827"/>
</filter>
<filter id="filter1_d_20_2827" x="9" y="7.25" width="36" height="42" filterUnits="userSpaceOnUse" color-interpolation-filters="sRGB">
<feFlood flood-opacity="0" result="BackgroundImageFix"/>
<feColorMatrix in="SourceAlpha" type="matrix" values="0 0 0 0 0 0 0 0 0 0 0 0 0 0 0 0 0 0 127 0" result="hardAlpha"/>
<feMorphology radius="1.5" operator="erode" in="SourceAlpha" result="effect1_dropShadow_20_2827"/>
<feOffset dy="2.25"/>
<feGaussianBlur stdDeviation="2.25"/>
<feComposite in2="hardAlpha" operator="out"/>
<feColorMatrix type="matrix" values="0 0 0 0 0.141176 0 0 0 0 0.141176 0 0 0 0 0.141176 0 0 0 0.1 0"/>
<feBlend mode="normal" in2="BackgroundImageFix" result="effect1_dropShadow_20_2827"/>
<feBlend mode="normal" in="SourceGraphic" in2="effect1_dropShadow_20_2827" result="shape"/>
</filter>
<linearGradient id="paint0_linear_20_2827" x1="24" y1="5.96047e-07" x2="26" y2="48" gradientUnits="userSpaceOnUse">
<stop stop-color="white" stop-opacity="0"/>
<stop offset="1" stop-color="white" stop-opacity="0.12"/>
</linearGradient>
<linearGradient id="paint1_linear_20_2827" x1="27" y1="11" x2="27" y2="41" gradientUnits="userSpaceOnUse">
<stop stop-color="white" stop-opacity="0.8"/>
<stop offset="1" stop-color="white" stop-opacity="0.5"/>
</linearGradient>
<linearGradient id="paint2_linear_20_2827" x1="27" y1="2" x2="27" y2="50" gradientUnits="userSpaceOnUse">
<stop stop-color="white" stop-opacity="0.12"/>
<stop offset="1" stop-color="white" stop-opacity="0"/>
</linearGradient>
<clipPath id="clip0_20_2827">
<rect width="321" height="52" fill="white"/>
</clipPath>
<clipPath id="clip1_20_2827">
<rect x="3" y="2" width="48" height="48" rx="12" fill="white"/>
</clipPath>
</defs>
</svg>
