<?xml version="1.0" encoding="UTF-8"?>
<svg xmlns="http://www.w3.org/2000/svg" xmlns:xlink="http://www.w3.org/1999/xlink" viewBox="0 0 188.9 148.32">
  <defs>
    <style>
      .cls-1 {
        filter: url(#luminosity-noclip-3);
      }

      .cls-2 {
        fill: url(#linear-gradient-42);
      }

      .cls-2, .cls-3, .cls-4, .cls-5, .cls-6, .cls-7, .cls-8, .cls-9, .cls-10, .cls-11, .cls-12, .cls-13, .cls-14, .cls-15, .cls-16, .cls-17, .cls-18, .cls-19, .cls-20, .cls-21, .cls-22, .cls-23, .cls-24, .cls-25, .cls-26, .cls-27, .cls-28, .cls-29, .cls-30, .cls-31, .cls-32, .cls-33, .cls-34, .cls-35, .cls-36, .cls-37, .cls-38, .cls-39, .cls-40, .cls-41, .cls-42, .cls-43, .cls-44, .cls-45, .cls-46, .cls-47, .cls-48, .cls-49, .cls-50, .cls-51, .cls-52, .cls-53, .cls-54, .cls-55, .cls-56, .cls-57, .cls-58, .cls-59, .cls-60, .cls-61, .cls-62, .cls-63, .cls-64, .cls-65, .cls-66, .cls-67, .cls-68, .cls-69, .cls-70, .cls-71, .cls-72, .cls-73, .cls-74, .cls-75, .cls-76, .cls-77, .cls-78, .cls-79, .cls-80, .cls-81, .cls-82, .cls-83, .cls-84, .cls-85, .cls-86, .cls-87, .cls-88, .cls-89, .cls-90, .cls-91, .cls-92, .cls-93, .cls-94 {
        stroke-width: 0px;
      }

      .cls-2, .cls-3, .cls-4, .cls-6, .cls-8, .cls-9, .cls-10, .cls-58, .cls-59, .cls-61, .cls-95 {
        mix-blend-mode: multiply;
      }

      .cls-2, .cls-96, .cls-61, .cls-70 {
        opacity: .1;
      }

      .cls-3 {
        fill: url(#linear-gradient-50);
      }

      .cls-4 {
        fill: url(#linear-gradient-46);
      }

      .cls-96 {
        fill: url(#_ÕÓ_È_Ó·_ÁÂ_ËÂÌÚ_2);
        stroke: blue;
        stroke-miterlimit: 10;
        stroke-width: .5px;
      }

      .cls-96, .cls-70 {
        mix-blend-mode: screen;
      }

      .cls-5 {
        fill: #c5d0d3;
        opacity: .7;
      }

      .cls-6, .cls-11 {
        opacity: .2;
      }

      .cls-97 {
        mask: url(#mask);
      }

      .cls-7 {
        fill: url(#linear-gradient);
      }

      .cls-98 {
        filter: url(#luminosity-noclip);
      }

      .cls-8 {
        fill: url(#linear-gradient-44);
      }

      .cls-8, .cls-9, .cls-10 {
        opacity: .3;
      }

      .cls-9 {
        fill: url(#linear-gradient-41);
      }

      .cls-10 {
        fill: url(#linear-gradient-43);
      }

      .cls-11, .cls-70, .cls-91 {
        fill: #fff;
      }

      .cls-12 {
        fill: url(#linear-gradient-38);
      }

      .cls-13 {
        fill: url(#linear-gradient-33);
      }

      .cls-14 {
        fill: url(#linear-gradient-29);
      }

      .cls-15 {
        fill: url(#linear-gradient-32);
      }

      .cls-16 {
        fill: url(#linear-gradient-30);
      }

      .cls-17 {
        fill: url(#linear-gradient-31);
      }

      .cls-18 {
        fill: url(#linear-gradient-36);
      }

      .cls-19 {
        fill: url(#linear-gradient-39);
      }

      .cls-20 {
        fill: url(#linear-gradient-34);
      }

      .cls-21 {
        fill: url(#linear-gradient-37);
      }

      .cls-22 {
        fill: url(#linear-gradient-35);
      }

      .cls-23 {
        fill: url(#linear-gradient-28);
      }

      .cls-24 {
        fill: url(#linear-gradient-25);
      }

      .cls-25 {
        fill: url(#linear-gradient-11);
      }

      .cls-26 {
        fill: url(#linear-gradient-12);
      }

      .cls-27 {
        fill: url(#linear-gradient-13);
      }

      .cls-28 {
        fill: url(#linear-gradient-10);
      }

      .cls-29 {
        fill: url(#linear-gradient-17);
      }

      .cls-30 {
        fill: url(#linear-gradient-16);
      }

      .cls-31 {
        fill: url(#linear-gradient-19);
      }

      .cls-32 {
        fill: url(#linear-gradient-15);
      }

      .cls-33 {
        fill: url(#linear-gradient-23);
      }

      .cls-34 {
        fill: url(#linear-gradient-21);
      }

      .cls-35 {
        fill: url(#linear-gradient-18);
      }

      .cls-36 {
        fill: url(#linear-gradient-14);
      }

      .cls-37 {
        fill: url(#linear-gradient-22);
      }

      .cls-38 {
        fill: url(#linear-gradient-20);
      }

      .cls-39 {
        fill: url(#linear-gradient-27);
      }

      .cls-40 {
        fill: url(#linear-gradient-24);
      }

      .cls-41 {
        fill: url(#linear-gradient-26);
      }

      .cls-42 {
        fill: url(#linear-gradient-45);
      }

      .cls-43 {
        fill: url(#linear-gradient-48);
      }

      .cls-44 {
        fill: url(#linear-gradient-49);
      }

      .cls-45 {
        fill: url(#linear-gradient-47);
      }

      .cls-46 {
        fill: url(#linear-gradient-40);
      }

      .cls-47 {
        fill: url(#linear-gradient-59);
      }

      .cls-48 {
        fill: url(#linear-gradient-57);
      }

      .cls-49 {
        fill: url(#linear-gradient-58);
      }

      .cls-50 {
        fill: url(#linear-gradient-55);
      }

      .cls-51 {
        fill: url(#linear-gradient-56);
      }

      .cls-52 {
        fill: url(#linear-gradient-53);
      }

      .cls-53 {
        fill: url(#linear-gradient-51);
      }

      .cls-54 {
        fill: url(#linear-gradient-52);
      }

      .cls-55 {
        fill: url(#linear-gradient-54);
      }

      .cls-56 {
        fill: url(#linear-gradient-60);
      }

      .cls-57 {
        fill: url(#linear-gradient-61);
      }

      .cls-58 {
        opacity: .15;
      }

      .cls-59, .cls-95 {
        opacity: .25;
      }

      .cls-60 {
        fill: url(#_ÕÓ_È_Ó·_ÁÂ_ËÂÌÚ_3);
      }

      .cls-62 {
        fill: url(#linear-gradient-4);
      }

      .cls-63 {
        fill: url(#linear-gradient-2);
      }

      .cls-64 {
        fill: url(#linear-gradient-3);
      }

      .cls-65 {
        fill: url(#linear-gradient-8);
      }

      .cls-66 {
        fill: url(#linear-gradient-9);
      }

      .cls-67 {
        fill: url(#linear-gradient-7);
      }

      .cls-68 {
        fill: url(#linear-gradient-5);
      }

      .cls-69 {
        fill: url(#linear-gradient-6);
      }

      .cls-99 {
        isolation: isolate;
      }

      .cls-100 {
        mask: url(#mask-3);
      }

      .cls-101 {
        mask: url(#mask-2);
      }

      .cls-102 {
        mask: url(#mask-1);
      }

      .cls-72 {
        fill: #555e61;
      }

      .cls-73 {
        fill: gray;
      }

      .cls-74 {
        fill: #6c7e89;
      }

      .cls-75 {
        fill: #970007;
      }

      .cls-76 {
        fill: #70797c;
      }

      .cls-77 {
        fill: #3b4447;
      }

      .cls-78 {
        fill: #39464a;
      }

      .cls-79 {
        fill: #576063;
      }

      .cls-80 {
        fill: #3c4548;
      }

      .cls-81 {
        fill: #2e373a;
      }

      .cls-82 {
        fill: #3d4b4f;
      }

      .cls-83 {
        fill: #084f97;
      }

      .cls-84 {
        fill: #414e52;
      }

      .cls-85 {
        fill: #141c1e;
      }

      .cls-86 {
        fill: #c9c9ca;
      }

      .cls-87 {
        fill: #dee5e9;
      }

      .cls-88 {
        fill: #b01120;
      }

      .cls-89 {
        fill: #303e42;
      }

      .cls-90 {
        fill: #92a4af;
      }

      .cls-92 {
        fill: #e8e8e8;
      }

      .cls-93 {
        fill: #e3e3e4;
      }

      .cls-94 {
        fill: #f09041;
      }
    </style>
    <linearGradient id="linear-gradient" x1="68.56" y1="139.22" x2="75.56" y2="119.88" gradientUnits="userSpaceOnUse">
      <stop offset="0" stop-color="#e6e8ea"/>
      <stop offset="1" stop-color="#8c9091"/>
    </linearGradient>
    <linearGradient id="linear-gradient-2" x1="76.04" y1="112.67" x2="71.74" y2="127.61" gradientUnits="userSpaceOnUse">
      <stop offset="0" stop-color="#8f9193"/>
      <stop offset="1" stop-color="#35393a"/>
    </linearGradient>
    <linearGradient id="linear-gradient-3" x1="72.41" y1="119.01" x2="68.56" y2="132.13" gradientUnits="userSpaceOnUse">
      <stop offset="0" stop-color="#b4b6b8"/>
      <stop offset="1" stop-color="#5a5e5f"/>
    </linearGradient>
    <linearGradient id="linear-gradient-4" x1="73.43" y1="122.36" x2="69.29" y2="129.22" gradientUnits="userSpaceOnUse">
      <stop offset="0" stop-color="#c1c3c5"/>
      <stop offset="1" stop-color="#676b6c"/>
    </linearGradient>
    <linearGradient id="linear-gradient-5" x1="74.03" y1="128.6" x2="79.13" y2="128.6" gradientUnits="userSpaceOnUse">
      <stop offset="0" stop-color="#f3f5f7"/>
      <stop offset="1" stop-color="#999d9e"/>
    </linearGradient>
    <linearGradient id="linear-gradient-6" x1="72.75" y1="130.29" x2="77.9" y2="130.29" xlink:href="#linear-gradient-5"/>
    <linearGradient id="linear-gradient-7" x1="81.33" y1="119.43" x2="74.13" y2="124.1" xlink:href="#linear-gradient-5"/>
    <linearGradient id="linear-gradient-8" x1="72.43" y1="124.36" x2="73.72" y2="115.91" xlink:href="#linear-gradient-5"/>
    <linearGradient id="linear-gradient-9" x1="65.07" y1="127.86" x2="70.66" y2="127.86" xlink:href="#linear-gradient-5"/>
    <linearGradient id="linear-gradient-10" x1="73.04" y1="126.41" x2="80.89" y2="118.87" xlink:href="#linear-gradient-5"/>
    <linearGradient id="linear-gradient-11" x1="68.95" y1="137.22" x2="69.78" y2="129.39" xlink:href="#linear-gradient-5"/>
    <linearGradient id="linear-gradient-12" x1="72.28" y1="123.14" x2="72.53" y2="131.14" xlink:href="#linear-gradient-5"/>
    <linearGradient id="linear-gradient-13" x1="72.96" y1="127.05" x2="73.88" y2="127.05" xlink:href="#linear-gradient-5"/>
    <linearGradient id="linear-gradient-14" x1="73.8" y1="124.36" x2="74.72" y2="124.36" xlink:href="#linear-gradient-5"/>
    <linearGradient id="linear-gradient-15" x1="70.74" y1="128.75" x2="71.66" y2="128.75" xlink:href="#linear-gradient-5"/>
    <linearGradient id="linear-gradient-16" x1="69.75" y1="126.76" x2="70.44" y2="126.76" xlink:href="#linear-gradient-5"/>
    <linearGradient id="linear-gradient-17" x1="72.03" y1="123.82" x2="72.72" y2="123.82" xlink:href="#linear-gradient-5"/>
    <linearGradient id="linear-gradient-18" x1="72.47" y1="126.88" x2="71.79" y2="124.69" xlink:href="#linear-gradient-5"/>
    <linearGradient id="linear-gradient-19" x1="71.12" y1="126.07" x2="73.42" y2="126.07" xlink:href="#linear-gradient-5"/>
    <linearGradient id="linear-gradient-20" x1="72.03" y1="133.68" x2="76.85" y2="116.53" xlink:href="#linear-gradient-5"/>
    <linearGradient id="linear-gradient-21" x1="156.78" y1="87.1" x2="163.77" y2="67.76" xlink:href="#linear-gradient"/>
    <linearGradient id="linear-gradient-22" x1="164.25" y1="60.55" x2="159.95" y2="75.49" xlink:href="#linear-gradient-2"/>
    <linearGradient id="linear-gradient-23" x1="160.62" y1="66.89" x2="156.77" y2="80.01" xlink:href="#linear-gradient-3"/>
    <linearGradient id="linear-gradient-24" x1="161.64" y1="70.24" x2="157.5" y2="77.1" xlink:href="#linear-gradient-4"/>
    <linearGradient id="linear-gradient-25" x1="162.25" y1="76.49" x2="167.34" y2="76.49" xlink:href="#linear-gradient-5"/>
    <linearGradient id="linear-gradient-26" x1="160.96" y1="78.17" x2="166.11" y2="78.17" xlink:href="#linear-gradient-5"/>
    <linearGradient id="linear-gradient-27" x1="169.54" y1="67.31" x2="162.35" y2="71.98" xlink:href="#linear-gradient-5"/>
    <linearGradient id="linear-gradient-28" x1="160.64" y1="72.24" x2="161.94" y2="63.79" xlink:href="#linear-gradient-5"/>
    <linearGradient id="linear-gradient-29" x1="153.28" y1="75.74" x2="158.88" y2="75.74" xlink:href="#linear-gradient-5"/>
    <linearGradient id="linear-gradient-30" x1="161.25" y1="74.29" x2="169.1" y2="66.75" xlink:href="#linear-gradient-5"/>
    <linearGradient id="linear-gradient-31" x1="157.17" y1="85.1" x2="157.99" y2="77.27" xlink:href="#linear-gradient-5"/>
    <linearGradient id="linear-gradient-32" x1="160.5" y1="71.02" x2="160.74" y2="79.02" xlink:href="#linear-gradient-5"/>
    <linearGradient id="linear-gradient-33" x1="161.17" y1="74.93" x2="162.09" y2="74.93" xlink:href="#linear-gradient-5"/>
    <linearGradient id="linear-gradient-34" x1="162.01" y1="72.24" x2="162.93" y2="72.24" xlink:href="#linear-gradient-5"/>
    <linearGradient id="linear-gradient-35" x1="158.95" y1="76.63" x2="159.87" y2="76.63" xlink:href="#linear-gradient-5"/>
    <linearGradient id="linear-gradient-36" x1="157.96" y1="74.64" x2="158.65" y2="74.64" xlink:href="#linear-gradient-5"/>
    <linearGradient id="linear-gradient-37" x1="160.25" y1="71.7" x2="160.94" y2="71.7" xlink:href="#linear-gradient-5"/>
    <linearGradient id="linear-gradient-38" x1="160.69" y1="74.76" x2="160" y2="72.57" xlink:href="#linear-gradient-5"/>
    <linearGradient id="linear-gradient-39" x1="159.33" y1="73.95" x2="161.63" y2="73.95" xlink:href="#linear-gradient-5"/>
    <linearGradient id="linear-gradient-40" x1="160.24" y1="81.56" x2="165.06" y2="64.41" xlink:href="#linear-gradient-5"/>
    <linearGradient id="linear-gradient-41" x1="144.78" y1="78.58" x2="175.38" y2="55.93" gradientUnits="userSpaceOnUse">
      <stop offset="0" stop-color="#000"/>
      <stop offset=".42" stop-color="#fff"/>
      <stop offset=".68" stop-color="#fff"/>
      <stop offset="1" stop-color="#000"/>
    </linearGradient>
    <linearGradient id="linear-gradient-42" x1="74.32" y1="89.56" x2="92.21" y2="77.37" gradientUnits="userSpaceOnUse">
      <stop offset="0" stop-color="#fff"/>
      <stop offset="1" stop-color="#000"/>
    </linearGradient>
    <linearGradient id="linear-gradient-43" x1="90.39" y1="106.62" x2="59.21" y2="127.44" gradientUnits="userSpaceOnUse">
      <stop offset="0" stop-color="#000"/>
      <stop offset=".32" stop-color="#fff"/>
      <stop offset=".6" stop-color="#fff"/>
      <stop offset="1" stop-color="#000"/>
    </linearGradient>
    <linearGradient id="_ÕÓ_È_Ó·_ÁÂ_ËÂÌÚ_2" data-name="ÕÓ‚˚È Ó·‡ÁÂˆ „‡‰ËÂÌÚ‡ 2" x1="58.74" y1="98.79" x2="62.44" y2="104.82" gradientUnits="userSpaceOnUse">
      <stop offset="0" stop-color="#fff"/>
      <stop offset="1" stop-color="#000"/>
    </linearGradient>
    <linearGradient id="_ÕÓ_È_Ó·_ÁÂ_ËÂÌÚ_3" data-name="ÕÓ‚˚È Ó·‡ÁÂˆ „‡‰ËÂÌÚ‡ 3" x1="88.61" y1="59.58" x2="170.68" y2="59.58" gradientUnits="userSpaceOnUse">
      <stop offset="0" stop-color="#e9e9e9"/>
      <stop offset="1" stop-color="#b7b7b7"/>
    </linearGradient>
    <linearGradient id="linear-gradient-44" x1="18.92" y1="115.19" x2="23.41" y2="107.13" xlink:href="#linear-gradient-42"/>
    <linearGradient id="linear-gradient-45" x1="22.27" y1="115.22" x2="20.79" y2="110.34" xlink:href="#linear-gradient-5"/>
    <filter id="luminosity-noclip" x="7.15" y="86.28" width="1.73" height="14.24" color-interpolation-filters="sRGB" filterUnits="userSpaceOnUse">
      <feFlood flood-color="#fff" result="bg"/>
      <feBlend in="SourceGraphic" in2="bg"/>
    </filter>
    <filter id="luminosity-noclip-2" x="7.15" y="-8150.99" width="1.73" height="32766" color-interpolation-filters="sRGB" filterUnits="userSpaceOnUse">
      <feFlood flood-color="#fff" result="bg"/>
      <feBlend in="SourceGraphic" in2="bg"/>
    </filter>
    <mask id="mask-1" x="7.15" y="-8150.99" width="1.73" height="32766" maskUnits="userSpaceOnUse"/>
    <linearGradient id="linear-gradient-46" x1="7.15" y1="93.4" x2="8.88" y2="93.4" gradientUnits="userSpaceOnUse">
      <stop offset="0" stop-color="#fff"/>
      <stop offset=".09" stop-color="#f4f4f4"/>
      <stop offset=".23" stop-color="#d8d8d8"/>
      <stop offset=".43" stop-color="#ababab"/>
      <stop offset=".65" stop-color="#6c6c6c"/>
      <stop offset=".91" stop-color="#1c1c1c"/>
      <stop offset="1" stop-color="#000"/>
    </linearGradient>
    <mask id="mask" x="7.15" y="86.28" width="1.73" height="14.24" maskUnits="userSpaceOnUse">
      <g class="cls-98">
        <g class="cls-102">
          <path class="cls-4" d="m8.7,100.52s.26-4.86.15-7.27c-.12-2.4-.52-5.71.03-6.98,0,0-1.73,3.87-1.73,5.39s.85,7.12,1.55,8.85Z"/>
        </g>
      </g>
    </mask>
    <linearGradient id="linear-gradient-47" x1="7.15" y1="93.4" x2="8.88" y2="93.4" gradientUnits="userSpaceOnUse">
      <stop offset="0" stop-color="#fff"/>
      <stop offset="1" stop-color="#fff"/>
    </linearGradient>
    <linearGradient id="linear-gradient-48" x1="50.43" y1="113.8" x2="57.56" y2="113.8" gradientUnits="userSpaceOnUse">
      <stop offset="0" stop-color="#faffff"/>
      <stop offset="1" stop-color="#d4d7d9"/>
    </linearGradient>
    <linearGradient id="linear-gradient-49" x1="44.84" y1="114.52" x2="50.23" y2="114.52" xlink:href="#linear-gradient-48"/>
    <filter id="luminosity-noclip-3" x="38.36" y="109.36" width="24.92" height="9.08" color-interpolation-filters="sRGB" filterUnits="userSpaceOnUse">
      <feFlood flood-color="#fff" result="bg"/>
      <feBlend in="SourceGraphic" in2="bg"/>
    </filter>
    <filter id="luminosity-noclip-4" x="38.36" y="-8150.99" width="24.92" height="32766" color-interpolation-filters="sRGB" filterUnits="userSpaceOnUse">
      <feFlood flood-color="#fff" result="bg"/>
      <feBlend in="SourceGraphic" in2="bg"/>
    </filter>
    <mask id="mask-3" x="38.36" y="-8150.99" width="24.92" height="32766" maskUnits="userSpaceOnUse"/>
    <linearGradient id="linear-gradient-50" x1="38.36" y1="113.9" x2="63.28" y2="113.9" xlink:href="#linear-gradient-46"/>
    <mask id="mask-2" x="38.36" y="109.36" width="24.92" height="9.08" maskUnits="userSpaceOnUse">
      <g class="cls-1">
        <g class="cls-100">
          <path class="cls-3" d="m61.78,109.49s1.2-.4,1.47.2c.26.6-.97,2.79-1.91,4.14-.94,1.35-2.23,3.4-7.41,4.16-5.5.81-14.23.31-14.6.2-.19-.05-1.41-.53-.79-1.52.62-1,3.55-4.75,5.95-5.04,2.4-.29,12.45-.88,17.29-2.14Z"/>
        </g>
      </g>
    </mask>
    <linearGradient id="linear-gradient-51" x1="38.36" y1="113.9" x2="63.28" y2="113.9" xlink:href="#linear-gradient-47"/>
    <linearGradient id="linear-gradient-52" x1="9.98" y1="114.54" x2="32.06" y2="114.54" xlink:href="#linear-gradient"/>
    <linearGradient id="linear-gradient-53" x1="9.98" y1="112.47" x2="32.22" y2="112.47" gradientUnits="userSpaceOnUse">
      <stop offset="0" stop-color="#ccced0"/>
      <stop offset="1" stop-color="#727677"/>
    </linearGradient>
    <linearGradient id="linear-gradient-54" x1="10" y1="110.63" x2="32.85" y2="110.63" xlink:href="#linear-gradient"/>
    <linearGradient id="linear-gradient-55" x1="10.09" y1="118.66" x2="30.13" y2="118.66" xlink:href="#linear-gradient"/>
    <linearGradient id="linear-gradient-56" x1="10.27" y1="120.64" x2="29.27" y2="120.64" xlink:href="#linear-gradient"/>
    <linearGradient id="linear-gradient-57" x1="10.17" y1="108.38" x2="33.7" y2="108.38" xlink:href="#linear-gradient"/>
    <linearGradient id="linear-gradient-58" x1="10.34" y1="107.96" x2="33.82" y2="107.96" xlink:href="#linear-gradient-53"/>
    <linearGradient id="linear-gradient-59" x1="10.02" y1="110.21" x2="33.1" y2="110.21" xlink:href="#linear-gradient-53"/>
    <linearGradient id="linear-gradient-60" x1="10.09" y1="118.24" x2="30.25" y2="118.24" xlink:href="#linear-gradient-53"/>
    <linearGradient id="linear-gradient-61" x1="10.27" y1="120.3" x2="29.47" y2="120.3" xlink:href="#linear-gradient-53"/>
  </defs>
  <g class="cls-99">
    <g id="Layer_2" data-name="Layer 2">
      <g id="Layer_1-2" data-name="Layer 1">
        <g>
          <g>
            <path class="cls-61" d="m185.48,62.61c-17.4-10.71-54.65-31.55-54.65-31.55L1.93,108.1s-9.61,14.23,14.1,27.51c34.32,19.22,46.98,10.92,46.98,10.92l119.4-69.1s12.28-9.16,3.08-14.82Z"/>
            <path class="cls-71" d="m90.08,115.1l-3.57,4.98-9.37-3.48s-4.32-7.38,0-9.27c4.32-1.9,12.95,7.77,12.95,7.77Z"/>
            <path class="cls-71" d="m175.97,62.99l-1.9,4.31-9.03-2.16s-1.56-7.66.3-8.05c1.86-.39,6.76,0,6.76,0l3.86,5.89Z"/>
            <g>
              <path class="cls-81" d="m81.67,112.44l-7.58-4.36c-2.09-1.19-4.96-1.01-8.13.82-6.37,3.68-11.54,12.63-11.54,19.99,0,3.7,1.31,6.3,3.42,7.5l7.58,4.36c2.08,1.18,4.95,1,8.12-.83,6.37-3.68,11.54-12.63,11.54-19.99,0-3.7-1.3-6.29-3.41-7.49Z"/>
              <path class="cls-72" d="m85.07,119.93c0,7.36-5.17,16.31-11.54,19.99-3.17,1.83-6.04,2.01-8.12.83-2.11-1.2-3.42-3.79-3.42-7.5,0-7.36,5.17-16.31,11.54-19.99,3.17-1.83,6.05-2.01,8.13-.82,2.11,1.2,3.41,3.79,3.41,7.49Z"/>
              <path class="cls-77" d="m84.34,120.65c0,6.75-4.74,14.96-10.58,18.33-5.85,3.37-10.59.64-10.59-6.11s4.74-14.96,10.59-18.33c5.84-3.38,10.58-.64,10.58,6.11Z"/>
              <path class="cls-7" d="m81.28,121.84c0,5.18-3.64,11.48-8.13,14.08-4.49,2.59-8.13.49-8.13-4.69s3.64-11.48,8.13-14.08c4.49-2.59,8.13-.49,8.13,4.69Z"/>
              <path class="cls-63" d="m78.94,122.13c0,4.3-3.02,9.53-6.74,11.68-3.72,2.15-6.74.41-6.74-3.89,0-4.3,3.02-9.53,6.74-11.68,3.72-2.15,6.74-.41,6.74,3.89Z"/>
              <path class="cls-64" d="m73.87,117.51c-.54.15-1.1.39-1.68.72-3.72,2.15-6.74,7.38-6.74,11.68,0,.45.03.87.1,1.26,1.04.85,2.61.87,4.37-.15,3.13-1.81,5.67-6.2,5.67-9.82,0-1.84-.66-3.12-1.72-3.7Z"/>
              <path class="cls-73" d="m78.3,116.3c1.49.84,2.41,2.67,2.41,5.28,0,5.18-3.64,11.48-8.13,14.08-1.95,1.13-3.75,1.36-5.15.85,1.47.83,3.49.7,5.72-.58,4.49-2.59,8.13-8.89,8.13-14.08,0-2.93-1.16-4.87-2.98-5.54Z"/>
              <path class="cls-62" d="m74.45,122.65l-1.93-1.11c-.53-.3-1.27-.26-2.07.21-1.63.94-2.94,3.22-2.94,5.1,0,.94.33,1.61.87,1.91l1.93,1.11c.53.3,1.26.25,2.07-.21,1.63-.94,2.94-3.22,2.94-5.1,0-.94-.33-1.61-.87-1.91Z"/>
              <path class="cls-68" d="m79.13,129.43l-4.47-3.17-.63,1.33,4.18,3.35c.33-.49.63-.99.91-1.51Z"/>
              <path class="cls-69" d="m72.75,128.93l4.08,3.84c.37-.43.73-.89,1.07-1.37l-3.86-3.6-1.28,1.13Z"/>
              <path class="cls-67" d="m81.25,121.11c-.08-1.07-.32-1.99-.71-2.74l-5.87,3.75-.55.85,1.06,1.74.96-.92,5.11-2.68Z"/>
              <path class="cls-65" d="m73.15,117.15c-.35.2-.7.43-1.04.68l-1.02,4.56.1,1.82,2.53-1.45v-1.59l1.61-4.93c-.69.18-1.42.48-2.17.91Z"/>
              <path class="cls-66" d="m69.07,125.26l-3.11,1.4c-.48,1.37-.79,2.76-.89,4.1l3.38-2.47h1.23l.99-3.34-1.59.31Z"/>
              <path class="cls-28" d="m81.11,120.01c-.04-.2-.09-.4-.14-.58l-4.88,2.72-.48.48.19.34.6-.5,4.72-2.46Z"/>
              <path class="cls-73" d="m73.57,116.92l-1.36,4.11.06.46.38-.14v-.42l1.6-4.33c-.22.09-.45.2-.67.31Z"/>
              <path class="cls-73" d="m68.42,127.15l.59-.12v-.34l-.57.12-3,1.59c-.06.26-.12.52-.17.78l3.14-2.04Z"/>
              <path class="cls-25" d="m68.71,129.77l-1.84,6.34c.92.76,2.12,1.06,3.5.85l.63-6.06.94-1.2-1.93-.73-1.3.8Z"/>
              <path class="cls-73" d="m68.92,136.98l1-6.14h-.24l-1.27,6.04c.17.04.34.08.51.1Z"/>
              <polygon class="cls-73" points="78.21 130.94 77.45 130.66 74.26 127.8 78.21 130.94"/>
              <polygon class="cls-73" points="76.83 132.77 75.04 131.44 73.03 129.2 76.83 132.77"/>
              <path class="cls-26" d="m75.32,124.56c0,1.88-1.32,4.16-2.94,5.1-.81.47-1.54.51-2.07.21-.54-.3-.87-.97-.87-1.91,0-1.88,1.32-4.16,2.94-5.1.81-.47,1.54-.51,2.07-.21.54.3.87.97.87,1.91Z"/>
              <path class="cls-27" d="m73.88,126.79c0,.29-.2.65-.46.8-.25.15-.46.03-.46-.27s.21-.65.46-.8c.26-.15.46-.03.46.27Z"/>
              <path class="cls-36" d="m74.72,124.09c0,.29-.21.65-.46.8-.25.15-.46.03-.46-.27s.2-.65.46-.79c.25-.15.46-.03.46.26Z"/>
              <path class="cls-32" d="m71.66,128.48c0,.29-.21.65-.46.79-.25.15-.46.03-.46-.26s.21-.65.46-.8c.25-.15.46-.03.46.27Z"/>
              <path class="cls-30" d="m70.44,126.51c0,.29-.17.65-.36.79-.19.14-.34.02-.33-.27,0-.29.17-.65.36-.79.19-.14.34-.02.33.28Z"/>
              <path class="cls-29" d="m72.72,123.57c0,.29-.17.65-.36.79-.19.14-.34.02-.33-.28,0-.29.17-.65.36-.79.19-.14.34-.02.33.28Z"/>
              <path class="cls-35" d="m73.42,125.34c0,.77-.54,1.71-1.21,2.09-.67.38-1.21.07-1.21-.7s.54-1.71,1.21-2.09c.67-.38,1.21-.07,1.21.7Z"/>
              <path class="cls-31" d="m73.04,124.55c.07.14.12.31.12.52,0,.77-.54,1.71-1.21,2.09-.32.19-.61.21-.83.1.19.36.61.46,1.09.18.67-.39,1.21-1.32,1.21-2.09,0-.4-.15-.67-.38-.79Z"/>
              <path class="cls-38" d="m73.76,116.61c-1,.58-1.97,1.33-2.86,2.21.71-.65,1.47-1.22,2.25-1.67,4.49-2.59,8.13-.49,8.13,4.69s-3.64,11.48-8.13,14.08c-4.41,2.55-8,.56-8.12-4.44,0,.09,0,.17,0,.26,0,5.57,3.91,7.83,8.73,5.04,4.82-2.79,8.73-9.56,8.73-15.13s-3.91-7.83-8.73-5.04Z"/>
              <path class="cls-73" d="m70.88,118.83l-.63,3.31-.16,1.09,1.07.63-.08-1.48,1.01-4.55c-.41.3-.82.63-1.21.99Z"/>
              <path class="cls-92" d="m70.32,125.02l-.95-.27-.76.13-2.42,1.09c-.08.23-.16.45-.22.68l3.11-1.39,1.24-.24Z"/>
              <path class="cls-92" d="m68.86,128.75l-.79.59-1.61,6.38c.13.14.26.27.4.38h0s1.84-6.33,1.84-6.33l.97-.6-.82-.42Z"/>
              <polygon class="cls-92" points="74.36 122.6 73.71 122.22 74.13 121.62 79.91 117.97 80.55 118.37 74.68 122.12 74.36 122.6"/>
            </g>
            <g>
              <path class="cls-81" d="m169.88,60.32l-7.58-4.36c-2.09-1.19-4.96-1.01-8.13.83-6.37,3.68-11.54,12.63-11.54,19.99,0,3.7,1.31,6.3,3.42,7.49l7.58,4.36c2.08,1.18,4.95,1,8.12-.83,6.37-3.68,11.54-12.63,11.54-19.99,0-3.7-1.3-6.29-3.41-7.49Z"/>
              <path class="cls-72" d="m173.29,67.81c0,7.36-5.17,16.31-11.54,19.99-3.17,1.83-6.04,2.01-8.12.83-2.11-1.2-3.42-3.79-3.42-7.49,0-7.36,5.17-16.31,11.54-19.99,3.17-1.83,6.05-2.01,8.13-.82,2.1,1.2,3.41,3.79,3.41,7.49Z"/>
              <path class="cls-77" d="m172.56,68.53c0,6.75-4.74,14.96-10.59,18.33-5.84,3.38-10.58.64-10.58-6.11s4.74-14.96,10.58-18.33c5.85-3.37,10.59-.64,10.59,6.11Z"/>
              <path class="cls-34" d="m169.49,69.72c0,5.18-3.64,11.48-8.13,14.08-4.49,2.59-8.13.49-8.13-4.69s3.64-11.48,8.13-14.07c4.49-2.59,8.13-.49,8.13,4.69Z"/>
              <path class="cls-37" d="m167.15,70.01c0,4.3-3.02,9.53-6.74,11.68-3.72,2.15-6.74.41-6.74-3.89s3.02-9.53,6.74-11.68c3.72-2.15,6.74-.41,6.74,3.89Z"/>
              <path class="cls-33" d="m162.08,65.39c-.53.15-1.1.39-1.67.73-3.72,2.15-6.74,7.38-6.74,11.68,0,.45.04.87.1,1.26,1.04.85,2.61.87,4.37-.15,3.13-1.81,5.67-6.2,5.67-9.82,0-1.84-.66-3.12-1.72-3.7Z"/>
              <path class="cls-73" d="m166.51,64.18c1.49.84,2.41,2.67,2.41,5.27,0,5.18-3.64,11.48-8.13,14.08-1.96,1.13-3.75,1.37-5.15.85,1.47.83,3.49.7,5.72-.58,4.49-2.59,8.13-8.89,8.13-14.08,0-2.92-1.16-4.87-2.98-5.54Z"/>
              <path class="cls-40" d="m162.67,70.53l-1.93-1.11c-.53-.3-1.26-.26-2.07.21-1.63.94-2.94,3.22-2.94,5.1,0,.94.33,1.61.87,1.91l1.93,1.11c.53.3,1.27.25,2.07-.21,1.63-.94,2.94-3.22,2.94-5.1,0-.94-.33-1.61-.87-1.91Z"/>
              <path class="cls-24" d="m167.34,77.31l-4.46-3.17-.63,1.33,4.18,3.35c.33-.49.63-.99.91-1.51Z"/>
              <path class="cls-41" d="m160.96,76.81l4.08,3.84c.37-.44.73-.89,1.07-1.37l-3.86-3.6-1.28,1.13Z"/>
              <path class="cls-39" d="m169.46,68.99c-.08-1.07-.32-1.99-.71-2.74l-5.87,3.75-.55.85,1.05,1.74.96-.92,5.11-2.68Z"/>
              <path class="cls-23" d="m161.36,65.03c-.36.2-.7.43-1.04.68l-1.02,4.56.1,1.82,2.54-1.46v-1.59l1.61-4.93c-.69.18-1.42.48-2.17.91Z"/>
              <path class="cls-14" d="m157.28,73.14l-3.11,1.4c-.48,1.37-.79,2.76-.89,4.1l3.37-2.46h1.23l.99-3.34-1.59.31Z"/>
              <path class="cls-16" d="m169.32,67.89c-.04-.2-.09-.39-.14-.58l-4.88,2.72-.48.48.19.34.6-.5,4.72-2.46Z"/>
              <path class="cls-73" d="m161.78,64.8l-1.36,4.12.06.46.37-.14v-.42l1.6-4.33c-.22.09-.45.2-.67.31Z"/>
              <path class="cls-73" d="m156.63,75.03l.59-.12v-.34l-.57.13-3,1.59c-.06.26-.12.52-.16.78l3.14-2.04Z"/>
              <path class="cls-17" d="m156.92,77.65l-1.84,6.34c.91.76,2.12,1.06,3.5.84l.63-6.06.94-1.2-1.93-.73-1.3.8Z"/>
              <path class="cls-73" d="m157.13,84.86l1-6.14h-.24l-1.27,6.03c.17.04.34.08.51.1Z"/>
              <polygon class="cls-73" points="166.43 78.83 165.66 78.54 162.47 75.68 166.43 78.83"/>
              <polygon class="cls-73" points="165.04 80.65 163.25 79.32 161.25 77.08 165.04 80.65"/>
              <path class="cls-15" d="m163.54,72.44c0,1.88-1.32,4.16-2.94,5.1-.81.47-1.54.51-2.07.21-.54-.3-.87-.97-.87-1.91,0-1.88,1.32-4.16,2.94-5.1.81-.47,1.54-.51,2.07-.21.54.31.87.97.87,1.91Z"/>
              <path class="cls-13" d="m162.09,74.67c0,.29-.21.65-.46.8-.25.15-.46.03-.46-.26s.21-.65.46-.8c.25-.15.46-.03.46.27Z"/>
              <path class="cls-20" d="m162.93,71.98c0,.29-.21.65-.46.8-.25.15-.46.03-.46-.27s.21-.65.46-.8c.25-.15.46-.03.46.27Z"/>
              <path class="cls-22" d="m159.87,76.37c0,.29-.21.65-.46.79-.25.15-.46.03-.46-.27s.21-.65.46-.79c.26-.15.46-.03.46.27Z"/>
              <path class="cls-18" d="m158.65,74.39c0,.29-.17.65-.36.79-.19.14-.34.02-.33-.27,0-.29.17-.65.36-.79.19-.14.34-.02.33.27Z"/>
              <path class="cls-21" d="m160.94,71.44c0,.29-.17.65-.36.79-.19.14-.34.02-.33-.28,0-.29.17-.64.36-.79.19-.14.34-.02.33.27Z"/>
              <path class="cls-12" d="m161.63,73.22c0,.77-.54,1.7-1.21,2.09-.67.39-1.21.07-1.21-.7s.54-1.71,1.21-2.09c.67-.38,1.21-.07,1.21.7Z"/>
              <path class="cls-19" d="m161.25,72.43c.07.14.12.31.12.52,0,.77-.54,1.71-1.21,2.09-.32.18-.61.21-.83.09.19.37.61.46,1.09.18.67-.38,1.21-1.32,1.21-2.09,0-.4-.15-.67-.38-.79Z"/>
              <path class="cls-46" d="m161.97,64.49c-1,.58-1.96,1.33-2.86,2.21.72-.65,1.47-1.22,2.25-1.67,4.49-2.59,8.13-.49,8.13,4.69s-3.64,11.48-8.13,14.08c-4.41,2.55-8,.56-8.12-4.44,0,.09,0,.17,0,.26,0,5.57,3.91,7.83,8.73,5.04,4.82-2.79,8.73-9.56,8.73-15.13s-3.91-7.83-8.73-5.04Z"/>
              <path class="cls-73" d="m159.09,66.71l-.63,3.31-.16,1.09,1.07.63-.08-1.48,1.02-4.55c-.42.3-.82.64-1.22,1Z"/>
              <path class="cls-92" d="m158.53,72.9l-.95-.27-.76.13-2.42,1.09c-.08.23-.16.45-.22.68l3.11-1.39,1.24-.24Z"/>
              <path class="cls-92" d="m157.07,76.63l-.79.59-1.61,6.38c.13.14.26.27.4.38h0s1.84-6.33,1.84-6.33l.97-.6-.82-.42Z"/>
              <polygon class="cls-92" points="162.57 70.48 161.93 70.1 162.34 69.5 168.12 65.85 168.76 66.25 162.89 70 162.57 70.48"/>
            </g>
            <path class="cls-83" d="m184.64,45l-1.94-2.82s-1.3-8.93-1.73-10.17c-.42-1.24-4.18-6.12-6.08-7.63-1.91-1.52-8.24-5.75-8.24-5.75,0,0-4.18-4.51-8.32-7.27-4.15-2.75-16.77-10.38-23.59-11.36l-4.94,1.09s-15.64,5.54-28.06,11.84c-12.42,6.3-30.96,17.93-39.99,25.14-9.03,7.21-23.75,23.45-23.75,23.45,0,0-15.75,11.15-21.87,16.12-6.12,4.97-8.36,9.82-9.39,13.39-1.03,3.57-1.03,8.42-1.03,8.42,0,0-1.39,4.12-.73,10.24.67,6.12,2.79,11.57,11.03,16.48,8.24,4.91,16.54,7.76,25.26,8.54,8.57.77,14.33,2.66,19.59.6.19-8.56,6.17-18.8,13.54-23.05,7.48-4.32,14.81-.82,12.1,7.82l62.77-36.77c.41-8.45,6.31-18.37,13.52-22.53,6.93-4,12.4-.83,11.27,6.53l.87-.72,3.01-3.6s6.03-5.51,6.51-10.33c.49-4.81.18-7.66.18-7.66Z"/>
            <path class="cls-58" d="m182.7,42.18s-1.02-6.98-1.55-9.45c-.46,1.42-1.65,3.5-4.67,5.91-5.67,4.52-22.37,15.88-26.46,18.61-4.09,2.73-25.15,15.59-25.15,15.59l-34.92,21.07s-17.02,10.79-18.87,11.84c-1.43.81-5.09,2.9-7.84,4.1l.02.04s-.73,3.68-3.04,6.2c-2.68,2.93-6.03,2.78-12.15,3.34-6.51.6-13.15-.24-13.15-.24l4.09-2.12,6.32-3.49s.16-.45.4-1.13c-5.85.08-12.31-.59-17.39-3.06-11.59-5.65-16.76-10.26-16.76-10.26,0,0-3.76-3.73-2.03-14.34-1.48,2.3-2.3,4.43-2.83,6.23-1.03,3.57-1.03,8.42-1.03,8.42,0,0-.48,1.42-.74,3.82.15.94.41,2.38.82,4.02,1.16,3.58,3.29,6.8,3.29,6.8-.07.46.02,1.13.14,1.73.65.95,1.38,1.77,2.2,2.36,5.26,3.77,11.54,7.64,15.75,9.48,1.2.52,1.96.69,4.58,1.09.88-.1,1.98-.34,2.6-.89,1.6.34,3.87.71,6.58.85,5.1.26,11.14.03,11.92,0l.48,1.57c.28,0,.51.01.66.01,1.02,0,2.28.19,3.31.38,1.33-9.11,7.52-18.82,15.19-23.24,2.67-1.54,5.49-2.36,8.15-2.36,3.52,0,6.49,1.4,8.36,3.93.3.41.59.88.86,1.42h0s56.97-35.46,56.97-35.46h0c2.41-7.54,7.74-14.79,14.06-18.45,2.56-1.48,5.18-2.26,7.57-2.26,1.99,0,3.8.52,5.3,1.5,2.01-2.11,8.02-8.67,8.71-10.04.8-1.56.23-3.52.23-3.52ZM5.97,106.39c-.67-2.34-.38-4.9-.38-4.9,0,0-.12,2.26,1.2,5.79.72,1.92,1.53,3.21,2.12,3.99,0,.45,0,.96.03,1.52-1.37-1.38-2.39-4.4-2.97-6.41Zm2.96,4.11c-1.28-1.3-2.07-3.98-2.64-5.97-.67-2.34-.36-4.92-.36-4.92,0,0,.19,2.15,1.22,5.82.57,2.02,1.31,3.31,1.86,4.08-.03.26-.05.59-.07,1Zm21.99,12.73c-.84,2.89-1.67,4.01-2.94,4.01-.5,0-1-.17-1.53-.36-1.73-.6-12.01-6.76-13.83-8.12-1.84-1.37-2.7-2.81-2.86-4.84-.15-1.83-.34-10.72,0-12.39.29-1.42,1.02-1.63,1.43-1.63.36,0,.66.16.81.26.42.27.83.54,1.25.82,1.77,1.16,3.77,2.48,7.85,4.88,2.46,1.45,5.13,2.86,7.26,3.99,2.22,1.17,3.97,2.1,4.69,2.63,1.63,1.2,1.13,2.41,1.11,2.46l-3.23,8.27Zm1.52,3.82s3.54-.25,5.38-.6c5.67.62,12.51.44,15.81.3l.94,1.57c-3.62.19-15.92.65-22.13-1.26Zm22.15-.66c-3.29.17-13.92.58-20.46-.83.46-.24,1.02-.42,1.7-.5,6.9,1.08,16.75.63,19.2.49h0c-.14.28-.29.56-.44.84Zm67.95-46.66c-.26.34-1.54,1.03-2.43,1.49-.43.22-.74.06-.95-.2.75-.41,2.36-1.39,3.55-2.19,0,.38-.05.74-.18.9Zm1.73-2.94l-6.13,3.82s-.34.36-.17.79c0,0,.01.02.02.03-.22.02-.4-.04-.48-.24-.17-.43.17-.79.17-.79l6.13-3.82c.29-.07.45.03.52.21-.02,0-.04,0-.06,0Zm28.48-15.9c-.26.33-1.54,1.03-2.43,1.49-.43.22-.74.06-.95-.2.74-.41,2.36-1.39,3.55-2.19,0,.38-.05.74-.17.9Zm1.74-2.94l-6.13,3.82s-.34.36-.17.79c0,0,.01.02.02.03-.22.02-.4-.04-.48-.24-.17-.43.17-.79.17-.79l6.13-3.82c.29-.07.45.03.52.2-.02,0-.04,0-.06,0Z"/>
            <path class="cls-59" d="m168.46,58.3c-1.85,0-3.93.64-6.02,1.84-7.52,4.35-13.67,14.83-13.9,23.59l.74-.43c.41-8.45,6.31-18.37,13.52-22.53,6.93-4,12.4-.83,11.27,6.53l.81-.67c.23-2.42-.23-4.5-1.37-5.99-1.15-1.51-2.94-2.34-5.05-2.34Z"/>
            <path class="cls-59" d="m175.97,57.8h0s0,0,0,.01c1.09,1.44,1.75,3.2,1.97,5.18h0s6.03-5.52,6.51-10.33c.21-2.12.27-3.86.27-5.14-2,3.66-6.69,8.31-8.77,10.28Z"/>
            <path class="cls-59" d="m145.88,78.68l-55.13,34.54c.21,1.26.22,2.74-.1,4.43l54.91-32.17c-.08-.71-.12-1.45-.12-2.21,0-1.5.15-3.04.45-4.59Z"/>
            <path class="cls-9" d="m175.97,57.81c-1.75-2.3-4.42-3.56-7.51-3.56-2.39,0-5.01.78-7.57,2.26-6.33,3.65-11.65,10.91-14.06,18.45l2.42,1.61-3.37,2.11c-.29,1.55-.45,3.09-.45,4.59,0,.76.04,1.5.12,2.21l2.98-1.75c.23-8.76,6.37-19.24,13.9-23.59,2.09-1.21,4.17-1.84,6.02-1.84,2.11,0,3.9.83,5.05,2.34,1.14,1.49,1.6,3.57,1.37,5.99l.06-.05,3-3.6c-.22-1.98-.88-3.74-1.97-5.18Z"/>
            <path class="cls-2" d="m178.46,28.26c-1.22-1.55-2.62-3.13-3.57-3.88-.4-.32-1-.76-1.69-1.25-1.12.72-2.5,1.42-3.25,1.11-1.39-.58-3.95-.95-5.74-.35-1.79.6-15.56,6.7-21.24,9.51-5.68,2.81-23.99,12.62-31.11,17.72-7.12,5.09-10.42,9.83-10.42,9.83l-2.1,1.55s-15.49,23.31-16.4,25.28c-.9,1.96-8.13,10.39-8.13,10.39l13.79-9.02s65.94-41.09,77.3-49.11c8.72-6.16,11.66-10.22,12.55-11.77Z"/>
            <path class="cls-59" d="m57.21,131.42c-2.63.39-7.57.95-13.09.62-8.18-.49-13.14-.8-15.97-1.65-2.83-.85-11.98-6.2-17.03-9.79-5.05-3.59-4.73-7.48-5.41-9.03-.3-.69-.62-2.4-.89-4.1.03.7.08,1.44.16,2.2.67,6.12,2.79,11.57,11.03,16.48,8.24,4.91,16.54,7.76,25.26,8.54,6.6.6,11.54,1.85,15.86,1.45-.06-.64-.1-1.3-.1-1.98,0-.91.06-1.83.17-2.76Z"/>
            <path class="cls-10" d="m90.75,113.22l-2.57,1.61,1.69-4.42c-.27-.54-.56-1.01-.86-1.42-1.86-2.54-4.83-3.93-8.36-3.93-2.65,0-5.47.82-8.15,2.36-7.67,4.43-13.86,14.14-15.19,23.24,1.08.2,1.9.41,1.9.41,0,0-.73.15-2,.34-.11.93-.17,1.86-.17,2.76,0,.68.03,1.34.1,1.98,1.03-.09,2.02-.28,3-.6.07-8.83,6.28-19.53,13.91-23.93,2.21-1.27,4.49-1.95,6.6-1.95,2.52,0,4.6.95,5.86,2.67.95,1.29,1.84,3.57.9,7.19l3.25-1.9c.32-1.7.3-3.17.1-4.43Z"/>
            <path class="cls-58" d="m10.09,96.38c.65-1.97,2.22-6.63,9.07-15.06,6.85-8.42,17.09-17.8,17.09-17.8,0,0-12.84,10.97-18.58,18.18-5.92,7.44-8.1,12.74-8.1,12.74l-.02.04c.16.72.34,1.36.54,1.9Z"/>
            <path class="cls-96" d="m45.75,112.46c-.09.25-.17.46-.23.64l9.26-1.51s17.04-11.46,20.04-13.42c0,0,7.04-8.21,8.09-10.31l-3.41,1.78s-32.82,18.6-43.72,22.09c3.28.6,6.72.79,9.97.74Z"/>
            <path class="cls-59" d="m87.4,119.55c.94-3.62.05-5.9-.9-7.19-1.27-1.72-3.35-2.67-5.86-2.67-2.11,0-4.39.67-6.6,1.95-7.63,4.4-13.83,15.11-13.91,23.94.24-.08.49-.17.73-.26.19-8.56,6.17-18.8,13.54-23.05,7.48-4.32,14.81-.82,12.1,7.82l.9-.53Z"/>
            <path class="cls-58" d="m106.12,51.57s3.31-4.14,5.85-5.76c2.53-1.62,20.81-11.74,26.83-15.06,6.66-3.67,16.6-8.7,20.44-9.14,0,0-12.01,6.04-13.75,6.91-1.74.87-30.7,16.95-33.27,18.58-2.57,1.62-6.09,4.47-6.09,4.47Z"/>
            <path class="cls-70" d="m111.97,45.81c2.53-1.62,20.81-11.74,26.83-15.06,6.66-3.67,16.6-8.7,20.44-9.14l-1.68-.92c-3.84.44-13.78,5.47-20.44,9.14-6.01,3.31-24.29,13.43-26.83,15.06-2.53,1.62-5.85,5.76-5.85,5.76l1.69.92s3.31-4.14,5.85-5.76Z"/>
            <path class="cls-58" d="m74.89,33.17s3.31-4.14,5.85-5.77c2.53-1.62,20.98-11.58,26.99-14.89,6.66-3.67,16.83-8.48,20.67-8.91,0,0-12.17,5.88-13.91,6.75-1.74.87-30.93,16.73-33.5,18.35-2.57,1.62-6.09,4.47-6.09,4.47Z"/>
            <path class="cls-70" d="m80.74,27.41c2.53-1.62,20.98-11.58,26.99-14.89,6.66-3.67,16.83-8.48,20.67-8.91l-1.65-.87c-3.84.44-14.01,5.24-20.67,8.91-6.01,3.31-24.45,13.27-26.99,14.89-2.53,1.62-5.85,5.76-5.85,5.76l1.65.87s3.31-4.14,5.85-5.77Z"/>
            <g class="cls-95">
              <path class="cls-71" d="m36.85,125.01c-.77,0-1.41.09-1.95.26.28-.08.59-.15.93-.2,6.9,1.08,16.75.63,19.2.49h0c-.14.28-.29.56-.44.84-3.29.17-13.92.58-20.46-.83.12-.06.24-.12.36-.17-.98.4-1.57,1.04-1.92,1.64.63-.05,3.61-.28,5.26-.59,5.67.62,12.51.44,15.81.3l.94,1.57c-3.6.19-15.78.64-22.03-1.23-.45.78-.49,1.49-.49,1.49,0,0,.09.03.27.08.75-.13,1.54-.37,2.03-.81,1.6.34,3.87.71,6.58.85,5.1.26,11.14.03,11.92,0l.41,1.35c1.31-1.06,3.05-5.28,3.05-5.28-4.4.36-14.91.28-19.46.24Z"/>
              <path class="cls-71" d="m34.9,125.27c-.14.04-.27.09-.4.14.13-.05.26-.1.4-.14Z"/>
            </g>
            <g>
              <g>
                <path class="cls-85" d="m174.79,24.3c-1.65-1.29-6.01-4.24-7.57-5.29h0l.9,4.29s.04.85,1.27,1.27c1.24.42,6.76,2.97,6.76,2.97,0,0,0-1.26-1.36-3.25Z"/>
                <path class="cls-89" d="m168.06,23.03c.19.22.79.81,1.5,1.06.95.33,4.23,1.81,5.87,2.56-.26-.77-.86-2-2.21-3.5,0,0-.02-.02-.02-.02-2-1.43-4.79-3.32-5.98-4.12l.84,4.02Z"/>
              </g>
              <g>
                <path class="cls-60" d="m88.61,89.14l34.7-21.25,28.95-18.26s14.9-10.19,17.57-12.65c0,0,1.73-1.45.22-2.34-1.51-.89-6.58-5.02-11.49-4.58-4.91.45-15.9,6.47-21.98,9.59-6.08,3.12-14.5,8.31-19.25,11.05-4.74,2.73-12.16,9.04-15.23,13.61-3.07,4.57-12.11,20.64-13.5,24.83Z"/>
                <path class="cls-85" d="m89.22,88.41c2.11-5.19,10.39-19.8,13.15-23.92,3.09-4.61,10.45-10.82,15.13-13.52,1.37-.79,3.06-1.79,4.86-2.86,4.48-2.65,10.05-5.96,14.37-8.18.76-.39,1.59-.83,2.48-1.29,6.03-3.14,15.15-7.89,19.38-8.28.24-.02.48-.03.72-.03,3.81,0,7.59,2.56,9.62,3.93.4.27.72.49.96.63.29.17.44.37.46.59.04.49-.53,1.08-.73,1.25-2.64,2.42-17.4,12.53-17.55,12.63l-28.94,18.25-33.93,20.79Z"/>
                <g>
                  <path class="cls-89" d="m98.2,82.43l22.46-13.76c-.76-5.24-2.17-14.79-2.58-17.55-.12.07-.25.14-.37.21-4.62,2.67-12.02,8.96-14.99,13.39-1.29,1.92-3.45,5.57-5.69,9.52l1.17,8.19Z"/>
                  <path class="cls-89" d="m123.39,66.99l26.24-16.55c-2.07-4.27-6.14-10.87-7.4-12.9-.99.51-1.94,1.01-2.82,1.46-.89.46-1.73.9-2.49,1.29-4.31,2.22-9.88,5.52-14.35,8.17-.8.47-1.57.93-2.31,1.37.76,3.72,2.46,13.32,3.13,17.15Z"/>
                  <path class="cls-89" d="m169.7,35.26c-.25-.15-.57-.37-.98-.64-2-1.35-5.71-3.87-9.39-3.87-.23,0-.47.01-.69.03-3.11.28-8.97,3-14.23,5.65,2.21,3.29,6.01,9.76,7.6,12.49,1.55-1.06,14.88-10.22,17.37-12.5.25-.22.6-.66.58-.9-.01-.11-.17-.22-.26-.27Z"/>
                </g>
              </g>
              <g>
                <path class="cls-85" d="m82.95,87.77s5.46-8.39,8.77-13.32c3.32-4.93,9.72-13.5,9.72-13.5,0,0-16.19-9.34-23.18-13.61-7-4.27-15.87-9.44-15.87-9.44,0,0-7.94,7.06-12.51,11.72-4.58,4.66-11.69,12.68-11.69,12.68,0,0-.7,3.7,4.6,8.75,5.3,5.06,18.03,11.54,23.28,13.75,5.26,2.21,13.04,3.43,16.88,2.96Z"/>
                <path class="cls-89" d="m55.09,73.89c11.35,7.21,24.32,11.45,28.09,12.6,1.55-2.38,5.51-8.45,8.12-12.32,2.85-4.23,6.89-9.69,8.27-11.54-2.79-1.61-16.57-9.83-22.8-13.63-6.17-3.76-13.92-8.35-15.58-9.32-1.45,1.29-6.91,6.21-10.94,10.31-3.52,3.58-8.6,9.22-10.7,11.58,2.54,3.95,6.41,6.52,15.55,12.32Z"/>
                <path class="cls-82" d="m88.65,73.28c-1.13-3.39-5.31-7.46-9.33-9.09-1.13-.46-2.12-.67-2.95-.67h0c-2.12,0-3.1,1.43-2.29,3.87,1.13,3.39,5.31,7.46,9.33,9.09,1.13.45,2.12.67,2.95.67,2.12,0,3.1-1.43,2.29-3.87Zm-1.5,1.97c-.07.1-.34.2-.79.2s-1.19-.09-2.31-.55c-3.55-1.44-7.38-5.12-8.35-8.05-.29-.86-.2-1.31-.11-1.43.07-.1.34-.2.78-.2h0c.44,0,1.19.1,2.31.55,3.55,1.44,7.38,5.13,8.35,8.05.29.86.2,1.31.11,1.43Z"/>
                <path class="cls-5" d="m64.96,41.9c-1.8-1.07-3.18-1.88-3.77-2.22-1.45,1.29-6.91,6.21-10.94,10.31-.08.09-.17.18-.26.26l14.97-8.35Z"/>
                <path class="cls-78" d="m89.02,77.58c-10.33-5.99-39.39-22.79-40.58-23.07-.69-.16-1.81.07-2.81.35-2.45,2.65-4.81,5.27-6.08,6.7,2.54,3.95,6.41,6.52,15.55,12.32,11.35,7.21,24.32,11.45,28.09,12.6,1.14-1.75,3.59-5.5,5.84-8.9Z"/>
                <path class="cls-82" d="m69.26,66.18s-5.95,5.94,3.87,11.09c10.47,5.5,15.66.18,15.66.18,0,0,.3-4.05-7.39-8.45-7.59-4.35-12.14-2.82-12.14-2.82Z"/>
                <path class="cls-11" d="m39.55,61.56c1.25,1.94,2.82,3.55,5.18,5.38,5.42-3.96,19.32-13.04,37.77-17.05-1.6-.95-3.05-1.82-4.24-2.54-7-4.27-15.87-9.44-15.87-9.44,0,0-7.94,7.06-12.51,11.72-3.5,3.56-8.47,9.08-10.63,11.49.11.15.21.31.29.45Z"/>
              </g>
            </g>
            <path class="cls-8" d="m27.98,127.25c-.5,0-1-.17-1.53-.36-1.73-.6-12.01-6.76-13.83-8.12-1.84-1.37-2.7-2.81-2.86-4.84-.15-1.83-.34-10.72,0-12.39.29-1.42,1.02-1.63,1.43-1.63.36,0,.66.16.81.26.42.27.83.54,1.25.82,1.77,1.16,3.77,2.48,7.85,4.88,2.46,1.45,5.13,2.86,7.26,3.99,2.22,1.17,3.97,2.1,4.69,2.63,1.63,1.2,1.13,2.41,1.11,2.46l-3.23,8.27c-.84,2.89-1.67,4.01-2.94,4.01h0Z"/>
            <path class="cls-42" d="m30.53,123.1l3.25-8.3s.41-.94-.97-1.97c-1.38-1.02-6.96-3.69-11.91-6.6-5.06-2.97-6.92-4.28-9.12-5.71-.41-.27-1.27-.5-1.61,1.11-.33,1.61-.15,10.4,0,12.27.15,1.88.94,3.24,2.7,4.54,1.76,1.3,12.06,7.48,13.72,8.06,1.67.58,2.7.91,3.95-3.4Z"/>
            <path class="cls-80" d="m13.62,117.71c1.76,1.3,12.06,7.48,13.72,8.06.79.27,1.43.49,2.03.19.38-.57.76-1.47,1.16-2.86l3.25-8.3s.41-.94-.97-1.97c-1.38-1.02-6.96-3.69-11.91-6.6-5.06-2.97-6.92-4.28-9.12-5.71-.17-.11-.43-.22-.68-.18-.06.16-.12.34-.16.55-.33,1.61-.15,10.4,0,12.27.15,1.88.94,3.24,2.7,4.54Z"/>
            <g>
              <path class="cls-76" d="m21.83,122.78c.11.07.23.13.34.2.66-5.31,2.38-11.31,3.27-14.2-.11-.06-.22-.12-.32-.18-.88,2.85-2.6,8.83-3.29,14.18Z"/>
              <path class="cls-76" d="m23.16,123.55c.11.07.23.13.34.19.8-5.28,2.66-11.2,3.63-14.07-.11-.06-.22-.11-.33-.17-.96,2.83-2.82,8.74-3.64,14.05Z"/>
              <path class="cls-76" d="m24.49,124.3c.11.06.23.13.34.19.94-5.25,2.94-11.08,3.98-13.92-.11-.06-.22-.11-.32-.17-1.03,2.81-3.03,8.63-4,13.91Z"/>
              <path class="cls-76" d="m20.51,122.01c.12.07.23.14.35.2.52-5.35,2.1-11.43,2.92-14.34-.11-.06-.22-.12-.33-.18-.81,2.86-2.39,8.93-2.93,14.32Z"/>
              <path class="cls-76" d="m25.82,125.03c.12.06.23.12.33.18,1.09-5.2,3.22-10.94,4.33-13.75-.11-.06-.21-.12-.32-.17-1.1,2.78-3.23,8.51-4.34,13.74Z"/>
              <path class="cls-76" d="m12.08,100.72c-.1-.07-.2-.13-.31-.2,0,0-.02-.01-.03-.02-.22,2.04-.81,8.26-.55,14.05.11.34.24.66.41.97-.36-5.86.24-12.47.48-14.8Z"/>
              <path class="cls-76" d="m31.83,112.21c-1.17,2.76-3.41,8.34-4.65,13.49.06.02.12.05.16.06.06.02.12.04.18.06,1.23-5.1,3.44-10.66,4.62-13.42-.1-.06-.2-.12-.31-.19Z"/>
              <path class="cls-76" d="m20.11,105.77c-.64,2.83-1.96,9.13-2.23,14.65.12.07.24.14.35.21.24-5.47,1.54-11.77,2.2-14.67-.11-.06-.22-.13-.33-.19Z"/>
              <path class="cls-76" d="m19.2,121.22c.12.07.23.14.35.21.38-5.4,1.82-11.58,2.56-14.5-.11-.06-.22-.12-.33-.19-.73,2.85-2.17,9.03-2.58,14.48Z"/>
              <path class="cls-76" d="m33.39,113.37c-1.24,2.74-3.42,7.88-4.77,12.72.13,0,.26,0,.38-.02,1.31-4.67,3.39-9.6,4.63-12.36-.06-.11-.14-.23-.24-.35Z"/>
              <path class="cls-76" d="m13.93,117.93c.11.08.23.16.37.25-.19-5.76.72-12.52,1.14-15.27-.11-.07-.23-.14-.33-.21-.4,2.61-1.33,9.38-1.17,15.23Z"/>
              <path class="cls-76" d="m12.6,116.83c.12.12.25.24.38.36-.32-5.88.46-12.76.79-15.36-.11-.08-.23-.15-.34-.22-.31,2.42-1.1,9.26-.83,15.22Z"/>
              <path class="cls-76" d="m16.77,103.75c-.48,2.72-1.54,9.31-1.53,15.04.12.07.24.15.36.23-.04-5.65,1-12.24,1.49-15.06-.11-.07-.22-.14-.33-.21Z"/>
              <path class="cls-76" d="m16.56,119.62c.12.07.24.15.36.22.1-5.55,1.27-11.99,1.85-14.87-.11-.07-.22-.13-.33-.2-.57,2.79-1.75,9.22-1.88,14.84Z"/>
            </g>
            <g>
              <path class="cls-6" d="m8.51,100.6c-.73-1.8-1.57-7.46-1.57-8.93,0-1.55,1.68-5.32,1.75-5.48l.38.17c-.41.95-.26,3.22-.12,5.22.04.58.08,1.14.1,1.66.12,2.39-.15,7.24-.15,7.29l-.4.07Z"/>
              <path class="cls-93" d="m8.7,100.52s.26-4.86.15-7.27c-.12-2.4-.52-5.71.03-6.98,0,0-1.73,3.87-1.73,5.39s.85,7.12,1.55,8.85Z"/>
              <g class="cls-97">
                <path class="cls-45" d="m8.7,100.52s.26-4.86.15-7.27c-.12-2.4-.52-5.71.03-6.98,0,0-1.73,3.87-1.73,5.39s.85,7.12,1.55,8.85Z"/>
              </g>
            </g>
            <g>
              <path class="cls-6" d="m45.98,118.65c-3.35,0-6.44-.18-6.71-.25-.22-.06-.85-.34-1.05-.85-.12-.31-.07-.64.14-.98.48-.78,3.49-4.82,6.1-5.14.59-.07,1.62-.16,2.93-.27,4-.34,10.69-.91,14.33-1.86,0,0,.42-.14.83-.14.56,0,.78.24.87.45.42.95-1.9,4.31-1.92,4.34l-.08.11c-.94,1.35-2.35,3.39-7.48,4.14-2.56.38-5.75.45-7.97.45Z"/>
              <path class="cls-93" d="m61.78,109.49s1.2-.4,1.47.2c.26.6-.97,2.79-1.91,4.14-.94,1.35-2.23,3.4-7.41,4.16-5.5.81-14.23.31-14.6.2-.19-.05-1.41-.53-.79-1.52.62-1,3.55-4.75,5.95-5.04,2.4-.29,12.45-.88,17.29-2.14Z"/>
              <path class="cls-94" d="m63.06,109.77c-.06-.14-.23-.2-.5-.2-.35,0-.71.12-.73.12-.53.14-1.12.27-1.76.39-.78,1.79-2.22,5.03-3.29,7.04,2.64-.9,3.58-2.25,4.31-3.3l.08-.11c1.18-1.7,2.06-3.54,1.89-3.94Z"/>
              <path class="cls-86" d="m46.74,112.25c-1.2.12-2.89,2.37-3.41,3.6-.52,1.23.06,1.57,3.41,1.45,3.35-.12,9.35.09,10.76-2.7,1.42-2.8,1.2-3.63,0-3.57-1.2.06-10.76,1.23-10.76,1.23Z"/>
              <path class="cls-43" d="m57.56,113.65c0-.6-.46-1.84-.84-2.57-1.33.13-3.9.43-6.1.7-.12.21-.19.5-.19.84,0,1.25.88,2.84,1.97,3.56.54.35,1.03.43,1.39.26l3.18-1.56c.36-.17.59-.59.59-1.22Z"/>
              <path class="cls-91" d="m50.43,112.62c0,1.25.88,2.84,1.97,3.56.54.35,1.03.43,1.39.26.36-.17.59-.59.59-1.22,0-1.25-.88-2.84-1.98-3.55-.04-.03-.08-.05-.12-.07-.56.07-1.12.13-1.66.2-.12.21-.19.5-.19.84Z"/>
              <path class="cls-44" d="m45.28,113.2c-.27.13-.44.45-.44.93,0,.94.67,2.14,1.49,2.69.41.27.78.32,1.05.19l2.4-1.18c.27-.13.44-.45.44-.92,0-.5-.19-1.07-.49-1.58-.38-.49-.36-.99-.72-1.35-.87.11-1.57.19-1.95.24l-1.79.99Z"/>
              <path class="cls-91" d="m44.84,114.12c0,.94.67,2.14,1.49,2.69.41.27.78.32,1.05.19.27-.13.44-.45.44-.92,0-.94-.67-2.15-1.49-2.69-.41-.27-.78-.32-1.05-.19-.27.13-.44.45-.44.93Z"/>
              <g class="cls-101">
                <path class="cls-53" d="m61.78,109.49s1.2-.4,1.47.2c.26.6-.97,2.79-1.91,4.14-.94,1.35-2.23,3.4-7.41,4.16-5.5.81-14.23.31-14.6.2-.19-.05-1.41-.53-.79-1.52.62-1,3.55-4.75,5.95-5.04,2.4-.29,12.45-.88,17.29-2.14Z"/>
              </g>
            </g>
            <g>
              <path class="cls-88" d="m180.14,38.53s-.32,1.75.42,3.01c.74,1.26,1.3,2.33,1.55,1.92.26-.41.59-1.28.59-1.28,0,0-.5-3.33-.87-5.67l-1.69,2.01Z"/>
              <path class="cls-75" d="m182.16,38.64l-2,1.81c.07.37.19.75.4,1.09.13.21.25.42.36.62l1.55-1.49c-.09-.59-.2-1.3-.31-2.03Z"/>
            </g>
            <path class="cls-54" d="m30.53,123.1l1.53-3.91c-2.97-1.46-7.89-3.93-11.99-6.34-5.37-3.14-9.07-6.04-10.09-6.87,0,1.49.02,3.12.05,4.54,1.73,1.41,4.07,3.18,6.89,4.97,5.2,3.32,11.42,6.6,13.61,7.6Z"/>
            <path class="cls-79" d="m30.78,122.48l1.01-2.59c-2.99-1.47-7.73-3.87-11.72-6.2-5.36-3.15-9.07-6.05-10.09-6.87,0,.95.01,1.92.03,2.84,1.86,1.47,4.9,3.74,7.41,5.33,5.01,3.2,10.97,6.36,13.36,7.49Z"/>
            <path class="cls-52" d="m20.46,112.55c-5.24-3.07-8.9-5.91-10.01-6.8l-.47.24c1.02.82,4.72,3.72,10.09,6.87,4.1,2.41,9.01,4.88,11.99,6.34l.16-.42c-2.99-1.47-7.76-3.88-11.77-6.23Z"/>
            <path class="cls-55" d="m10.02,103.43c0,.22-.02.45-.02.69,1.73,1.4,4.05,3.16,6.85,4.94,4.9,3.12,12.99,7.42,15.74,8.75l.25-.64c-3.36-1.71-9.29-4.9-12.94-7.04-5.06-2.97-8.65-5.72-9.89-6.71Z"/>
            <path class="cls-50" d="m10.09,112.31c.01.27.02.53.03.75,1.57,1.22,3.5,2.62,5.72,4.05,4.11,2.62,10.46,6.06,14.03,7.89.09-.2.17-.42.26-.66-3.42-1.78-8.14-4.35-11.23-6.16-4.01-2.35-7.09-4.56-8.82-5.87Z"/>
            <path class="cls-51" d="m18.9,120.39c-3.87-2.27-6.88-4.41-8.63-5.73.06.33.15.64.26.94,1.49,1.14,3.27,2.43,5.31,3.72,3.7,2.36,9.22,5.39,12.89,7.3.18-.12.36-.29.54-.52-3.32-1.74-7.53-4.04-10.37-5.71Z"/>
            <path class="cls-48" d="m33.42,115.71l.27-.7c-3.18-1.59-9.71-5.1-13.62-7.39-4.86-2.85-8.36-5.5-9.73-6.58-.06.16-.12.34-.17.57,1.72,1.39,4.03,3.07,6.75,4.86,4.87,3.2,13.72,7.9,16.5,9.24Z"/>
            <path class="cls-49" d="m20.34,107.35c-4.67-2.74-8.07-5.28-9.55-6.44l-.45.13c1.37,1.08,4.86,3.73,9.73,6.58,3.91,2.29,10.44,5.8,13.62,7.39l.08-.21s.02-.05.04-.14c-3.23-1.62-9.62-5.05-13.47-7.31Z"/>
            <path class="cls-47" d="m32.85,116.7c-3.36-1.71-9.29-4.9-12.94-7.04-4.64-2.72-8.03-5.25-9.52-6.41l-.37.18c1.24.99,4.83,3.74,9.89,6.71,3.64,2.13,9.57,5.33,12.94,7.04l.25-.64s-.1-.05-.15-.08l-.1.25Z"/>
            <path class="cls-56" d="m19.17,117.93c-3.92-2.3-6.95-4.46-8.7-5.79l-.38.17c1.73,1.31,4.81,3.52,8.82,5.87,3.09,1.81,7.81,4.38,11.23,6.16.04-.11.08-.22.12-.34-3.4-1.78-8.04-4.3-11.08-6.08Z"/>
            <path class="cls-57" d="m19.17,120.13c-3.77-2.21-6.72-4.3-8.49-5.63l-.4.14s0,0,0,.01c1.76,1.32,4.76,3.46,8.63,5.73,2.83,1.66,7.05,3.96,10.37,5.71.07-.09.13-.19.2-.3-3.31-1.74-7.49-4.02-10.3-5.67Z"/>
            <g>
              <path class="cls-90" d="m95.86,81.81l-2.02-.49s-2.02,1.22-2.24,2.09c-.23.87.34,2.17.34,2.17l2.83.38,1.08-4.15Z"/>
              <path class="cls-74" d="m91.71,83.16c-.05.08-.09.17-.11.25-.23.87.34,2.17.34,2.17l2.83.38.27-1.05c-.87-.47-2.26-1.22-3.34-1.74Z"/>
              <path class="cls-83" d="m107.3,82.12c-.49-2.24-4.56-3.65-6.65-4.37-2.09-.72-3.57.95-4.22,1.94-.65.99-2.59,3.46-2.59,3.46l.93,2.81c3.14.95,8.12,1.18,10.28.45,2.17-.72,2.74-2.05,2.24-4.3Z"/>
              <path class="cls-6" d="m105.06,86.42c2.17-.72,2.74-2.05,2.24-4.3-.04-.2-.12-.4-.22-.59-1.84.95-4.26.42-7.04.02-3.12-.46-2.51.72-3.54,1.29-1.03.57-2.66.3-2.66.3l.93,2.81c3.14.95,8.12,1.18,10.28.45Z"/>
            </g>
            <g>
              <path class="cls-83" d="m43.14,56c1.21-1.27,2.57-2.69,4.01-4.18-.07-1.3-.25-4.03-.59-4.8-.45-1.04-3.43-4.42-3.43-4.42,0,0-2.44,1.9-2.9,4.05-.45,2.15-.04,5.25,1.2,7.11.61.92,1.23,1.69,1.7,2.24Z"/>
              <path class="cls-6" d="m42.88,48.88c-.4-.51-1.37-2.19-2.06-3.67-.26.45-.48.94-.58,1.43-.45,2.15-.04,5.25,1.2,7.11.61.92,1.23,1.69,1.7,2.24.43-.45.89-.93,1.35-1.42-.25-.38-.44-.8-.45-1.24-.04-1.53-.54-3.68-1.16-4.47Z"/>
            </g>
            <path class="cls-58" d="m122.59,77.36c-.09-.37-.29-.83-.72-.79-.7.07-2.57,1.54-2.88,1.8-.22.19-.26.89-.24,1.38l3.84-2.4Z"/>
            <path class="cls-58" d="m120.62,77.17c.35.2.72.46,1.04.76l.92-.57c-.09-.37-.29-.83-.72-.79-.28.03-.76.29-1.25.6Z"/>
            <path class="cls-58" d="m152.8,58.52c-.09-.37-.29-.83-.72-.79-.7.07-2.57,1.54-2.88,1.8-.22.19-.26.89-.24,1.39l3.84-2.4Z"/>
            <path class="cls-58" d="m150.84,58.33c.34.2.72.46,1.04.76l.92-.57c-.09-.37-.29-.83-.72-.79-.28.03-.76.29-1.25.6Z"/>
            <g class="cls-95">
              <path class="cls-71" d="m125.83,96.78l-.18-.02c.16-1.64-.1-5.35-.1-5.39l-.61-2.84h0c0-.06.35-4.9.4-7.14.05-2.19-.52-8.21-.55-8.52l-1.93-5.2.17-.06,1.94,5.24c0,.06.59,6.3.55,8.55-.04,2.19-.38,6.84-.4,7.12l.6,2.83s.26,3.78.1,5.44Z"/>
            </g>
            <g class="cls-95">
              <path class="cls-71" d="m91.45,116.96h-.18v-4.11l-.89-2.81v-.02c0-.07.42-6.5.42-8.74,0-2.24-.58-7.52-.58-7.57l-1.52-4.65.17-.05,1.52,4.67c.01.07.59,5.36.59,7.61,0,2.19-.4,8.36-.42,8.73l.88,2.82v4.12Z"/>
            </g>
            <g class="cls-95">
              <polygon class="cls-71" points="158.99 62.61 157.16 59.14 155.6 53.47 151.66 49.15 151.8 49.02 155.77 53.4 157.33 59.07 159.15 62.53 158.99 62.61"/>
            </g>
            <g class="cls-95">
              <path class="cls-71" d="m164.48,23.83l-1.64-3.33c-.36-.34-8.4-7.84-16.28-12.29-8.03-4.53-16.7-6.79-16.79-6.81l.05-.17c.09.02,8.78,2.28,16.83,6.82,8.05,4.54,16.25,12.25,16.33,12.33l.02.03,1.64,3.34-.16.08Z"/>
            </g>
          </g>
          <g>
            <path class="cls-84" d="m25.59,127.54c.46,0,.83-.31.96-.79l.58-2.14c.18-.66-.15-1.44-.74-1.78l-13.89-8.04c-.18-.1-.37-.16-.56-.16-.46,0-.83.31-.96.79l-.58,2.14c-.18.66.15,1.44.74,1.78l13.89,8.04c.18.1.37.16.56.16Z"/>
            <path class="cls-87" d="m10.66,117.63c-.15.54.13,1.22.62,1.5l13.89,8.04c.49.28,1,.07,1.15-.47l.58-2.14c.15-.54-.13-1.22-.62-1.5l-13.89-8.04c-.48-.28-1-.07-1.15.48l-.58,2.14Z"/>
          </g>
        </g>
      </g>
    </g>
  </g>
</svg>