<svg width="418" height="92" viewBox="0 0 418 92" fill="none" xmlns="http://www.w3.org/2000/svg">
<g clip-path="url(#clip0_1_2)">
<rect width="418" height="92" rx="10" fill="white"/>
<rect x="2" y="2" width="414" height="88" rx="8" fill="white" stroke="black" stroke-width="4"/>
<line x1="101" y1="8.74228e-08" x2="101" y2="92" stroke="black" stroke-width="4"/>
<path d="M377.054 55.7273H381.974V70.8409C381.974 72.5379 381.569 74.0227 380.759 75.2955C379.955 76.5682 378.83 77.5606 377.384 78.2727C375.937 78.9773 374.251 79.3295 372.327 79.3295C370.395 79.3295 368.705 78.9773 367.259 78.2727C365.812 77.5606 364.687 76.5682 363.884 75.2955C363.08 74.0227 362.679 72.5379 362.679 70.8409V55.7273H367.599V70.4205C367.599 71.3068 367.793 72.0947 368.179 72.7841C368.573 73.4735 369.126 74.0152 369.838 74.4091C370.55 74.803 371.38 75 372.327 75C373.281 75 374.111 74.803 374.815 74.4091C375.527 74.0152 376.077 73.4735 376.463 72.7841C376.857 72.0947 377.054 71.3068 377.054 70.4205V55.7273ZM385.773 79V76.0795L397.386 59.7841H385.75V55.7273H403.568V58.6477L391.943 74.9432H403.591V79H385.773Z" fill="#73AF00"/>
<path d="M47.3984 45.4209V50.9141C47.3984 54.1693 46.4544 57.2861 44.5664 60.2646C42.6947 63.2432 40.0091 64.7324 36.5098 64.7324C34.4915 64.7324 32.7826 64.293 31.3828 63.4141C29.9993 62.5189 28.681 60.8831 27.4277 58.5068C26.1908 56.1143 25.5723 53.5833 25.5723 50.9141V45.4209C25.5723 42.182 26.5081 39.0732 28.3799 36.0947C30.2516 33.0999 32.9372 31.6025 36.4365 31.6025C38.4385 31.6025 40.1312 32.042 41.5146 32.9209C42.9144 33.7998 44.2409 35.4355 45.4941 37.8281C46.7637 40.2044 47.3984 42.7354 47.3984 45.4209ZM42.3691 45.4209C42.3691 42.7028 41.6123 40.3265 40.0986 38.292C39.236 37.1689 38.0234 36.6074 36.4609 36.6074C34.9473 36.6074 33.7103 37.2259 32.75 38.4629C31.3014 40.3346 30.5771 42.654 30.5771 45.4209V50.9141C30.5771 53.6484 31.3421 56.0247 32.8721 58.043C33.7184 59.166 34.931 59.7275 36.5098 59.7275C38.0072 59.7275 39.236 59.109 40.1963 57.8721C41.6449 56.0003 42.3691 53.681 42.3691 50.9141V45.4209ZM69.0537 31.6025V58.9951H74.1074C75.3118 58.9951 76.1663 59.2311 76.6709 59.7031C77.1917 60.1589 77.4521 60.7611 77.4521 61.5098C77.4521 62.2422 77.1917 62.8444 76.6709 63.3164C76.1663 63.7721 75.3118 64 74.1074 64H58.9951C57.7907 64 56.9281 63.7721 56.4072 63.3164C55.9027 62.8444 55.6504 62.234 55.6504 61.4854C55.6504 60.7529 55.9027 60.1589 56.4072 59.7031C56.9281 59.2311 57.7907 58.9951 58.9951 58.9951H64.0488V38.1211L59.5811 39.293C58.8649 39.4883 58.3278 39.5859 57.9697 39.5859C57.335 39.5859 56.7816 39.3337 56.3096 38.8291C55.8538 38.3245 55.626 37.7061 55.626 36.9736C55.626 36.3063 55.7969 35.7855 56.1387 35.4111C56.4805 35.0205 57.1966 34.6787 58.2871 34.3857L69.0537 31.6025Z" fill="black"/>
<path d="M142.451 31.6025V58.9951H147.505C148.709 58.9951 149.564 59.2311 150.068 59.7031C150.589 60.1589 150.85 60.7611 150.85 61.5098C150.85 62.2422 150.589 62.8444 150.068 63.3164C149.564 63.7721 148.709 64 147.505 64H132.393C131.188 64 130.326 63.7721 129.805 63.3164C129.3 62.8444 129.048 62.234 129.048 61.4854C129.048 60.7529 129.3 60.1589 129.805 59.7031C130.326 59.2311 131.188 58.9951 132.393 58.9951H137.446V38.1211L132.979 39.293C132.262 39.4883 131.725 39.5859 131.367 39.5859C130.732 39.5859 130.179 39.3337 129.707 38.8291C129.251 38.3245 129.023 37.7061 129.023 36.9736C129.023 36.3063 129.194 35.7855 129.536 35.4111C129.878 35.0205 130.594 34.6787 131.685 34.3857L142.451 31.6025ZM177.266 32.4082V51.9883C178.324 51.9883 179.105 52.2243 179.609 52.6963C180.114 53.152 180.366 53.7461 180.366 54.4785C180.366 55.2109 180.106 55.8132 179.585 56.2852C179.08 56.7572 178.307 56.9932 177.266 56.9932V58.9951C178.324 58.9951 179.105 59.2311 179.609 59.7031C180.114 60.1751 180.366 60.7773 180.366 61.5098C180.366 62.2422 180.106 62.8444 179.585 63.3164C179.08 63.7721 178.226 64 177.021 64H170.308C169.103 64 168.241 63.7721 167.72 63.3164C167.215 62.8444 166.963 62.234 166.963 61.4854C166.963 60.7529 167.215 60.1589 167.72 59.7031C168.241 59.2311 169.103 58.9951 170.308 58.9951H172.261V56.9932H158.662V52.8184L170.649 32.4082H177.266ZM172.261 51.9883V39.6836L165.01 51.9883H172.261ZM210.884 45.4209V50.9141C210.884 54.1693 209.94 57.2861 208.052 60.2646C206.18 63.2432 203.494 64.7324 199.995 64.7324C197.977 64.7324 196.268 64.293 194.868 63.4141C193.485 62.5189 192.166 60.8831 190.913 58.5068C189.676 56.1143 189.058 53.5833 189.058 50.9141V45.4209C189.058 42.182 189.993 39.0732 191.865 36.0947C193.737 33.0999 196.423 31.6025 199.922 31.6025C201.924 31.6025 203.617 32.042 205 32.9209C206.4 33.7998 207.726 35.4355 208.979 37.8281C210.249 40.2044 210.884 42.7354 210.884 45.4209ZM205.854 45.4209C205.854 42.7028 205.098 40.3265 203.584 38.292C202.721 37.1689 201.509 36.6074 199.946 36.6074C198.433 36.6074 197.196 37.2259 196.235 38.4629C194.787 40.3346 194.062 42.654 194.062 45.4209V50.9141C194.062 53.6484 194.827 56.0247 196.357 58.043C197.204 59.166 198.416 59.7275 199.995 59.7275C201.493 59.7275 202.721 59.109 203.682 57.8721C205.13 56.0003 205.854 53.681 205.854 50.9141V45.4209ZM261.177 64.6836L261.03 64.9033C262.756 64.9033 264.375 65.2533 265.889 65.9531C266.507 66.2461 267.02 66.3926 267.427 66.3926C268.013 66.3926 268.729 66.1159 269.575 65.5625C270.422 65.0091 271.089 64.7324 271.577 64.7324C272.277 64.7324 272.863 64.9684 273.335 65.4404C273.823 65.9287 274.067 66.5309 274.067 67.2471C274.067 68.1097 273.62 68.8584 272.725 69.4932C270.951 70.7627 269.168 71.3975 267.378 71.3975C266.466 71.3975 265.547 71.2184 264.619 70.8604C263.122 70.2744 261.934 69.9814 261.055 69.9814C259.639 69.9814 257.482 70.3477 254.585 71.0801C253.983 71.2266 253.511 71.2998 253.169 71.2998C252.534 71.2998 251.973 71.0475 251.484 70.543C251.012 70.0547 250.776 69.4362 250.776 68.6875C250.776 68.0365 251.102 67.3936 251.753 66.7588L254.951 63.6582C252.314 62.5189 250.158 60.6634 248.481 58.0918C246.821 55.5202 245.991 52.5579 245.991 49.2051C245.991 44.3548 247.66 40.3997 250.996 37.3398C253.665 34.8822 256.668 33.6533 260.005 33.6533C263.358 33.6533 266.369 34.8822 269.038 37.3398C272.375 40.3997 274.043 44.3548 274.043 49.2051C274.043 53.3717 272.782 56.9118 270.259 59.8252C267.736 62.7223 264.709 64.3418 261.177 64.6836ZM269.038 49.2051C269.038 46.1615 268.118 43.6468 266.279 41.6611C264.44 39.6592 262.349 38.6582 260.005 38.6582C257.677 38.6582 255.594 39.6592 253.755 41.6611C251.916 43.6631 250.996 46.1777 250.996 49.2051C250.996 52.2324 251.916 54.7471 253.755 56.749C255.594 58.7347 257.677 59.7275 260.005 59.7275C262.349 59.7275 264.44 58.7347 266.279 56.749C268.118 54.7633 269.038 52.2487 269.038 49.2051ZM299.458 39.415V54.5518C299.458 56.4561 299.141 57.9697 298.506 59.0928C297.529 60.8343 296.113 62.2096 294.258 63.2188C292.419 64.2279 290.482 64.7324 288.447 64.7324C285.827 64.7324 282.254 63.6257 277.729 61.4121V53.1846C277.729 51.9801 277.957 51.1257 278.413 50.6211C278.885 50.1003 279.495 49.8398 280.244 49.8398C280.977 49.8398 281.571 50.1003 282.026 50.6211C282.498 51.1257 282.734 51.9801 282.734 53.1846V58.0918C285.029 59.1823 286.991 59.7275 288.618 59.7275C289.481 59.7275 290.376 59.5322 291.304 59.1416C292.231 58.7347 292.931 58.2546 293.403 57.7012C293.875 57.1478 294.185 56.6025 294.331 56.0654C294.412 55.7725 294.453 55.0726 294.453 53.9658V39.415H288.374C287.17 39.415 286.307 39.1872 285.786 38.7314C285.282 38.2594 285.029 37.6491 285.029 36.9004C285.029 36.1517 285.282 35.5495 285.786 35.0938C286.307 34.6217 287.17 34.3857 288.374 34.3857L302.388 34.4102C303.592 34.4102 304.447 34.638 304.951 35.0938C305.472 35.5495 305.732 36.1517 305.732 36.9004C305.732 37.6491 305.472 38.2594 304.951 38.7314C304.447 39.1872 303.592 39.415 302.388 39.415H299.458ZM326.191 55.9434H314.033L312.812 58.9951H314.033C315.238 58.9951 316.092 59.2311 316.597 59.7031C317.118 60.1589 317.378 60.7611 317.378 61.5098C317.378 62.2422 317.118 62.8444 316.597 63.3164C316.092 63.7721 315.238 64 314.033 64H307.295C306.09 64 305.236 63.7721 304.731 63.3164C304.211 62.8444 303.95 62.234 303.95 61.4854C303.95 60.7367 304.219 60.1263 304.756 59.6543C305.293 59.1823 306.18 58.9626 307.417 58.9951L315.278 39.415H312.007C310.802 39.415 309.94 39.1872 309.419 38.7314C308.914 38.2594 308.662 37.6491 308.662 36.9004C308.662 36.1517 308.914 35.5495 309.419 35.0938C309.94 34.6217 310.802 34.3857 312.007 34.3857L322.822 34.4102L332.783 58.9951C333.955 58.9951 334.728 59.1253 335.103 59.3857C335.851 59.9229 336.226 60.6309 336.226 61.5098C336.226 62.2422 335.973 62.8444 335.469 63.3164C334.964 63.7721 334.11 64 332.905 64H326.167C324.963 64 324.1 63.7721 323.579 63.3164C323.075 62.8444 322.822 62.234 322.822 61.4854C322.822 60.7529 323.075 60.1589 323.579 59.7031C324.1 59.2311 324.963 58.9951 326.167 58.9951H327.388L326.191 55.9434ZM324.116 50.9385L320.088 41.0264L316.035 50.9385H324.116Z" fill="black"/>
<path d="M405.106 9.96553H360.894C358.744 9.96553 357 11.7091 357 13.8599V20.3131H409V13.8599C409 11.7091 407.256 9.96553 405.106 9.96553Z" fill="#82AFFF"/>
<path d="M357 40.1401C357 42.2908 358.744 44.0345 360.894 44.0345H405.106C407.256 44.0345 409 42.2909 409 40.1401V33.6869H357V40.1401Z" fill="#73AF00"/>
<path d="M409 21.7289H357V32.2701H409V21.7289Z" fill="#F5F5F5"/>
<path d="M357 21.3218V21.7291H409V21.3218V20.313H357V21.3218Z" fill="#FF4B55"/>
<path d="M357 32.6782V33.687H409V32.6782V32.2709H357V32.6782Z" fill="#FF4B55"/>
<path d="M368.526 18.476C366.691 18.476 365.203 16.9917 365.203 15.1629C365.203 13.3274 366.691 11.8364 368.526 11.8364C368.534 11.8364 368.54 11.8364 368.547 11.8365C368.655 11.8379 368.693 11.6944 368.598 11.6433C368.033 11.3404 367.388 11.1689 366.702 11.1739C364.506 11.1896 362.722 13.0095 362.745 15.2056C362.768 17.3792 364.545 19.1386 366.731 19.1386C367.407 19.1386 368.043 18.9674 368.601 18.6686C368.696 18.6177 368.658 18.4742 368.55 18.4758C368.542 18.476 368.534 18.476 368.526 18.476Z" fill="#F5F5F5"/>
<path d="M371.129 17.5598L370.98 18.0048L370.511 18.0084C370.45 18.0088 370.425 18.0864 370.474 18.1224L370.851 18.4011L370.71 18.8484C370.692 18.9063 370.758 18.9542 370.807 18.9189L371.189 18.6461L371.57 18.9189C371.62 18.9542 371.686 18.9063 371.667 18.8484L371.526 18.4011L371.903 18.1224C371.952 18.0864 371.927 18.0088 371.866 18.0084L371.397 18.0048L371.249 17.5598C371.229 17.5022 371.148 17.5022 371.129 17.5598Z" fill="#F5F5F5"/>
<path d="M374.434 17.5598L374.285 18.0048L373.816 18.0084C373.756 18.0088 373.73 18.0864 373.779 18.1224L374.157 18.4011L374.015 18.8484C373.997 18.9063 374.063 18.9542 374.112 18.9189L374.494 18.6461L374.875 18.9189C374.925 18.9542 374.991 18.9063 374.973 18.8484L374.831 18.4011L375.208 18.1224C375.257 18.0864 375.232 18.0088 375.171 18.0084L374.702 18.0048L374.554 17.5598C374.534 17.5022 374.453 17.5022 374.434 17.5598Z" fill="#F5F5F5"/>
<path d="M377.739 17.5598L377.59 18.0048L377.121 18.0084C377.061 18.0088 377.035 18.0864 377.084 18.1224L377.462 18.4011L377.32 18.8484C377.302 18.9063 377.368 18.9542 377.417 18.9189L377.799 18.6461L378.181 18.9189C378.23 18.9542 378.296 18.9063 378.278 18.8484L378.136 18.4011L378.513 18.1224C378.562 18.0864 378.537 18.0088 378.476 18.0084L378.007 18.0048L377.859 17.5598C377.84 17.5022 377.758 17.5022 377.739 17.5598Z" fill="#F5F5F5"/>
<path d="M381.044 17.5598L380.896 18.0048L380.426 18.0084C380.366 18.0088 380.34 18.0864 380.389 18.1224L380.767 18.4011L380.625 18.8484C380.607 18.9063 380.673 18.9542 380.722 18.9189L381.104 18.6461L381.485 18.9189C381.535 18.9542 381.601 18.9063 381.583 18.8484L381.441 18.4011L381.818 18.1224C381.867 18.0864 381.842 18.0088 381.781 18.0084L381.312 18.0048L381.164 17.5598C381.145 17.5022 381.063 17.5022 381.044 17.5598Z" fill="#F5F5F5"/>
<path d="M384.349 17.5598L384.201 18.0048L383.732 18.0084C383.671 18.0088 383.646 18.0864 383.694 18.1224L384.072 18.4011L383.93 18.8484C383.912 18.9063 383.978 18.9542 384.027 18.9189L384.409 18.6461L384.791 18.9189C384.84 18.9542 384.906 18.9063 384.888 18.8484L384.746 18.4011L385.124 18.1224C385.173 18.0864 385.147 18.0088 385.087 18.0084L384.617 18.0048L384.469 17.5598C384.45 17.5022 384.368 17.5022 384.349 17.5598Z" fill="#F5F5F5"/>
<path d="M374.434 14.4751L374.285 14.9202L373.816 14.9237C373.756 14.9241 373.73 15.0017 373.779 15.0378L374.157 15.3165L374.015 15.7637C373.997 15.8216 374.063 15.8696 374.112 15.8342L374.494 15.5614L374.875 15.8342C374.925 15.8696 374.991 15.8216 374.973 15.7637L374.831 15.3165L375.208 15.0378C375.257 15.0017 375.232 14.9241 375.171 14.9237L374.702 14.9202L374.554 14.4751C374.534 14.4173 374.453 14.4173 374.434 14.4751Z" fill="#F5F5F5"/>
<path d="M377.739 14.4751L377.59 14.9202L377.121 14.9237C377.061 14.9241 377.035 15.0017 377.084 15.0378L377.462 15.3165L377.32 15.7637C377.302 15.8216 377.368 15.8696 377.417 15.8342L377.799 15.5614L378.181 15.8342C378.23 15.8696 378.296 15.8216 378.278 15.7637L378.136 15.3165L378.513 15.0378C378.562 15.0017 378.537 14.9241 378.476 14.9237L378.007 14.9202L377.859 14.4751C377.84 14.4173 377.758 14.4173 377.739 14.4751Z" fill="#F5F5F5"/>
<path d="M381.044 14.4751L380.896 14.9202L380.426 14.9237C380.366 14.9241 380.34 15.0017 380.389 15.0378L380.767 15.3165L380.625 15.7637C380.607 15.8216 380.673 15.8696 380.722 15.8342L381.104 15.5614L381.485 15.8342C381.535 15.8696 381.601 15.8216 381.583 15.7637L381.441 15.3165L381.818 15.0378C381.867 15.0017 381.842 14.9241 381.781 14.9237L381.312 14.9202L381.164 14.4751C381.145 14.4173 381.063 14.4173 381.044 14.4751Z" fill="#F5F5F5"/>
<path d="M384.349 14.4751L384.201 14.9202L383.732 14.9237C383.671 14.9241 383.646 15.0017 383.694 15.0378L384.072 15.3165L383.93 15.7637C383.912 15.8216 383.978 15.8696 384.027 15.8342L384.409 15.5614L384.791 15.8342C384.84 15.8696 384.906 15.8216 384.888 15.7637L384.746 15.3165L385.124 15.0378C385.173 15.0017 385.147 14.9241 385.087 14.9237L384.617 14.9202L384.469 14.4751C384.45 14.4173 384.368 14.4173 384.349 14.4751Z" fill="#F5F5F5"/>
<path d="M377.739 17.5598L377.59 18.0048L377.121 18.0084C377.061 18.0088 377.035 18.0864 377.084 18.1224L377.462 18.4011L377.32 18.8484C377.302 18.9063 377.368 18.9542 377.417 18.9189L377.799 18.6461L378.181 18.9189C378.23 18.9542 378.296 18.9063 378.278 18.8484L378.136 18.4011L378.513 18.1224C378.562 18.0864 378.537 18.0088 378.476 18.0084L378.007 18.0048L377.859 17.5598C377.84 17.5022 377.758 17.5022 377.739 17.5598Z" fill="#F5F5F5"/>
<path d="M377.739 11.3903L377.59 11.8353L377.121 11.8389C377.061 11.8393 377.035 11.9169 377.084 11.9529L377.462 12.2316L377.32 12.6789C377.302 12.7368 377.368 12.7847 377.417 12.7494L377.799 12.4766L378.181 12.7494C378.23 12.7847 378.296 12.7368 378.278 12.6789L378.136 12.2316L378.513 11.9529C378.562 11.9169 378.537 11.8393 378.476 11.8389L378.007 11.8353L377.859 11.3903C377.84 11.3327 377.758 11.3327 377.739 11.3903Z" fill="#F5F5F5"/>
<path d="M381.044 17.5598L380.896 18.0048L380.426 18.0084C380.366 18.0088 380.34 18.0864 380.389 18.1224L380.767 18.4011L380.625 18.8484C380.607 18.9063 380.673 18.9542 380.722 18.9189L381.104 18.6461L381.485 18.9189C381.535 18.9542 381.601 18.9063 381.583 18.8484L381.441 18.4011L381.818 18.1224C381.867 18.0864 381.842 18.0088 381.781 18.0084L381.312 18.0048L381.164 17.5598C381.145 17.5022 381.063 17.5022 381.044 17.5598Z" fill="#F5F5F5"/>
<path d="M384.349 17.5598L384.201 18.0048L383.732 18.0084C383.671 18.0088 383.646 18.0864 383.694 18.1224L384.072 18.4011L383.93 18.8484C383.912 18.9063 383.978 18.9542 384.027 18.9189L384.409 18.6461L384.791 18.9189C384.84 18.9542 384.906 18.9063 384.888 18.8484L384.746 18.4011L385.124 18.1224C385.173 18.0864 385.147 18.0088 385.087 18.0084L384.617 18.0048L384.469 17.5598C384.45 17.5022 384.368 17.5022 384.349 17.5598Z" fill="#F5F5F5"/>
<path d="M381.044 11.3903L380.896 11.8353L380.426 11.8389C380.366 11.8393 380.34 11.9169 380.389 11.9529L380.767 12.2316L380.625 12.6789C380.607 12.7368 380.673 12.7847 380.722 12.7494L381.104 12.4766L381.485 12.7494C381.535 12.7847 381.601 12.7368 381.583 12.6789L381.441 12.2316L381.818 11.9529C381.867 11.9169 381.842 11.8393 381.781 11.8389L381.312 11.8353L381.164 11.3903C381.145 11.3327 381.063 11.3327 381.044 11.3903Z" fill="#F5F5F5"/>
<path d="M384.349 11.3903L384.201 11.8353L383.732 11.8389C383.671 11.8393 383.646 11.9169 383.694 11.9529L384.072 12.2316L383.93 12.6789C383.912 12.7368 383.978 12.7847 384.027 12.7494L384.409 12.4766L384.791 12.7494C384.84 12.7847 384.906 12.7368 384.888 12.6789L384.746 12.2316L385.124 11.9529C385.173 11.9169 385.147 11.8393 385.087 11.8389L384.617 11.8353L384.469 11.3903C384.45 11.3327 384.368 11.3327 384.349 11.3903Z" fill="#F5F5F5"/>
</g>
<defs>
<clipPath id="clip0_1_2">
<rect width="418" height="92" rx="10" fill="white"/>
</clipPath>
</defs>
</svg>
